<?xml version="1.0" encoding="UTF-8" standalone="no"?>
<!-- Created with Inkscape (http://www.inkscape.org/) -->

<svg
   xmlns:dc="http://purl.org/dc/elements/1.1/"
   xmlns:cc="http://creativecommons.org/ns#"
   xmlns:rdf="http://www.w3.org/1999/02/22-rdf-syntax-ns#"
   xmlns:svg="http://www.w3.org/2000/svg"
   xmlns="http://www.w3.org/2000/svg"
   xmlns:sodipodi="http://sodipodi.sourceforge.net/DTD/sodipodi-0.dtd"
   xmlns:inkscape="http://www.inkscape.org/namespaces/inkscape"
   width="735"
   height="105"
   viewBox="0 0 735.00001 105"
   id="svg2"
   version="1.1"
   inkscape:version="0.91pre3 r13670"
   sodipodi:docname="barum.svg">
  <defs
     id="defs4" />
  <sodipodi:namedview
     id="base"
     pagecolor="#ffffff"
     bordercolor="#666666"
     borderopacity="1.0"
     inkscape:pageopacity="0.0"
     inkscape:pageshadow="2"
     inkscape:zoom="0.98994949"
     inkscape:cx="284.78518"
     inkscape:cy="149.9867"
     inkscape:document-units="px"
     inkscape:current-layer="layer1"
     showgrid="false"
     inkscape:window-width="1366"
     inkscape:window-height="715"
     inkscape:window-x="-8"
     inkscape:window-y="-8"
     inkscape:window-maximized="1"
     units="px" />
  <metadata
     id="metadata7">
    <rdf:RDF>
      <cc:Work
         rdf:about="">
        <dc:format>image/svg+xml</dc:format>
        <dc:type
           rdf:resource="http://purl.org/dc/dcmitype/StillImage" />
        <dc:title></dc:title>
      </cc:Work>
    </rdf:RDF>
  </metadata>
  <g
     inkscape:label="Layer 1"
     inkscape:groupmode="layer"
     id="layer1"
     transform="translate(0,-947.36223)">
    <g
       id="g3386"
       transform="matrix(3.1535521,0,0,3.1535521,-804.37637,607.54664)">
      <circle
         r="13.928571"
         cy="124.8622"
         cx="470.89285"
         id="path3379"
         style="opacity:1;fill:#fbde38;fill-opacity:1;fill-rule:nonzero;stroke:none" />
      <path
         d="m 473.96134,122.78206 c 0,-1.13047 0.70004,-3.13285 1.09525,-3.13285 0.23321,0 0.89218,0.19561 1.46439,0.43469 1.41714,0.59212 1.44602,1.72679 0.0654,2.5686 -1.19165,0.72656 -2.625,0.7973 -2.625,0.12956 z m -1.61362,6.82601 c -0.082,-0.13263 0.0617,-1.07763 0.31921,-2.1 0.53353,-2.11803 0.84114,-2.25535 2.80636,-1.25276 0.98462,0.50231 1.18805,0.75991 1.18805,1.50441 0,0.69153 -0.22443,1.03514 -0.975,1.49278 -0.97132,0.59222 -3.0552,0.81416 -3.33862,0.35557 z m 8.44488,1.92597 c 0.85687,-0.43421 1.78014,-1.12857 2.0517,-1.54303 0.65531,-1.00012 0.4196,-3.07426 -0.49538,-4.35924 l -0.6923,-0.97224 0.6288,-0.50917 c 0.86987,-0.70438 1.87345,-2.41902 1.8748,-3.20313 6e-4,-0.35859 -0.34651,-1.06512 -0.7714,-1.57007 -0.98809,-1.17428 -3.14509,-1.82795 -6.03193,-1.82795 -1.2637,0 -2.19555,-0.12733 -2.19555,-0.3 0,-0.17902 -1.15314,-0.3 -2.85941,-0.3 -2.44947,0 -2.88719,0.0753 -3.05312,0.525 -0.27862,0.75516 -0.6949,0.96521 -1.92317,0.97041 -2.27505,0.01 -9.87433,1.60472 -9.85763,2.06912 0.004,0.10201 0.26115,0.51659 0.57218,0.9213 0.49911,0.64944 0.65566,0.69476 1.33341,0.38595 0.78655,-0.35837 4.82434,-1.09155 7.57994,-1.37635 1.35604,-0.14015 1.52584,-0.0968 1.40667,0.35889 -0.10807,0.41327 -0.7245,0.58912 -3.0422,0.86788 -3.7081,0.44599 -6.05929,0.992 -6.04713,1.40432 0.005,0.17792 0.19146,0.56326 0.41381,0.85633 0.38055,0.50159 0.55829,0.50598 3.02976,0.075 3.04783,-0.5315 4.94689,-0.58848 4.94689,-0.14844 0,0.39433 -0.20757,0.44744 -3.37156,0.86271 -3.60894,0.47366 -3.6602,0.50021 -2.93427,1.5197 0.55414,0.77821 0.67827,0.81468 2.0231,0.59445 0.788,-0.12905 1.92194,-0.3025 2.51987,-0.38545 l 1.08714,-0.15081 -0.70613,2.74999 c -0.38837,1.5125 -0.70883,2.85125 -0.71214,2.975 -0.009,0.33757 5.92775,0.27232 6.04399,-0.0664 0.0602,-0.17549 0.63706,-0.11604 1.45,0.14945 2.10142,0.68626 5.78476,0.41318 7.73126,-0.57319 z m -11.52891,8.4865 c -6.04293,-1.00943 -10.85771,-5.48185 -12.40205,-11.52017 -0.75458,-2.95035 -0.75558,-4.54805 -0.005,-7.48397 1.5168,-5.93062 5.98111,-10.16863 12.07003,-11.45818 7.3412,-1.55477 14.96592,2.86054 17.57307,10.17618 1.0417,2.923 1.07994,6.94542 0.0933,9.81481 -1.38825,4.03741 -4.12843,7.13287 -7.98202,9.01692 -3.27436,1.60087 -5.96486,2.01949 -9.34764,1.45441 z"
         style="fill:#013472;fill-opacity:1"
         id="path3361"
         inkscape:connector-curvature="0" />
      <path
         d="m 328.22632,130.77249 c 2.37388,-1.50548 3.71993,-4.51537 2.80797,-6.2789 -0.69585,-1.34563 -1.79432,-1.96166 -3.45325,-1.93664 -1.6609,0.025 -2.80874,0.56477 -4.1295,1.94166 -2.16292,2.25487 -2.35996,4.61258 -0.52047,6.22768 1.44898,1.27222 3.33606,1.28868 5.29525,0.0462 z m 27.22818,8.53524 c -1.60491,-0.51681 -2.61072,-1.37559 -2.88336,-2.46188 -0.11679,-0.46532 0.14561,-2.34712 0.64222,-4.60584 0.46183,-2.1005 0.75579,-4.03773 0.65325,-4.30494 -0.10295,-0.26829 -0.52184,-0.48586 -0.93542,-0.48586 -1.19197,0 -2.71385,1.57848 -3.46917,3.59818 -0.52702,1.40923 -1.09091,2.19161 -2.59091,3.59478 -2.12467,1.98753 -5.79619,3.9342 -8.44954,4.48001 -3.97435,0.81756 -8.11592,0.13134 -9.88513,-1.63787 l -1.00649,-1.00649 -1.85931,1.013 c -5.64533,3.07575 -11.54619,2.47592 -14.21365,-1.44484 -2.67483,-3.93158 -1.52212,-9.9116 2.73181,-14.17213 4.15337,-4.15981 10.07784,-5.34689 16.28539,-3.26308 1.81324,0.60868 2.33512,0.68654 2.53109,0.37761 0.13578,-0.21404 0.24894,-0.49042 0.25147,-0.61417 0.003,-0.12375 2.43459,-0.225 5.40459,-0.225 5.0182,0 5.4,0.0385 5.4,0.54496 0,0.29973 -0.59712,3.21824 -1.32693,6.48558 -0.72981,3.26735 -1.25537,6.12712 -1.1679,6.35505 0.2647,0.68981 2.05171,0.4961 3.03189,-0.32867 1.23173,-1.03643 2.06679,-3.16699 3.06668,-7.82434 0.47271,-2.20181 1.0075,-4.27987 1.18842,-4.61793 0.30339,-0.5669 0.6075,-0.61465 3.91437,-0.61465 l 3.58542,0 0.41262,0.975 c 0.94446,2.23171 2.64308,2.8938 7.47043,2.91183 1.93875,0.007 3.52485,0.0469 3.52468,0.0882 -1.8e-4,0.0412 -0.46445,2.22746 -1.03171,4.85825 -0.56726,2.63079 -0.96414,4.89204 -0.88197,5.025 0.0822,0.13296 0.62008,0.24175 1.19534,0.24175 2.0259,0 3.1562,-1.90749 4.48336,-7.5661 0.43651,-1.86114 0.98679,-4.09265 1.22285,-4.9589 l 0.42921,-1.575 5.57414,0 5.57415,0 -0.15978,0.675 c -0.0879,0.37125 -0.72147,3.49495 -1.40799,6.94156 -1.34152,6.73505 -1.33989,6.76895 0.32543,6.77885 1.68624,0.01 3.14095,-2.80575 4.33731,-8.39541 0.44143,-2.0625 0.92872,-4.25625 1.08286,-4.875 l 0.28025,-1.125 5.83843,0 c 3.21114,0 5.83844,0.0546 5.83844,0.12126 0,0.0667 -0.74207,3.13794 -1.64904,6.825 -0.90697,3.68705 -1.64947,6.78861 -1.65,6.89234 -6e-4,0.10373 0.39163,0.35123 0.87147,0.54998 0.72325,0.29958 0.99772,0.27928 1.60508,-0.11867 1.46768,-0.96166 3.20781,-5.31977 4.26034,-10.66991 0.27591,-1.4025 0.56936,-2.78625 0.65212,-3.075 0.13665,-0.47683 0.68539,-0.525 5.98025,-0.525 5.73686,0 5.82978,0.0101 5.82978,0.63499 0,0.51539 0.12714,0.59883 0.675,0.44301 5.15357,-1.46572 6.70514,-1.74379 9.04482,-1.62099 1.98734,0.10431 2.80223,0.30712 4.35823,1.08466 l 1.91385,0.95637 1.97905,-0.57342 c 4.63781,-1.34378 8.67212,-1.61648 11.19528,-0.75675 2.63543,0.89798 2.6309,0.33086 0.087,10.8793 -1.23925,5.13858 -2.25319,9.41261 -2.25319,9.49785 0,0.0852 -2.6416,0.15498 -5.87022,0.15498 -5.45042,0 -5.859,-0.0376 -5.7134,-0.525 0.2349,-0.78646 2.58362,-13.05357 2.58362,-13.49398 0,-0.49031 -1.14701,-0.47232 -2.05696,0.0323 -1.75254,0.97183 -2.91652,3.75347 -4.22077,10.08671 l -0.77227,3.75 -5.775,0.0815 c -3.34036,0.0471 -5.775,-0.0339 -5.775,-0.19228 0,-0.15056 0.7425,-3.33463 1.65,-7.07572 0.9075,-3.74109 1.65,-6.86081 1.65,-6.93273 0,-0.0719 -0.43875,-0.13025 -0.975,-0.12963 -2.33737,0.003 -4.05057,2.35103 -4.883,6.69328 -0.2431,1.26808 -0.63835,3.3306 -0.87832,4.58338 -0.23998,1.25278 -0.59401,2.46778 -0.78674,2.7 -0.27869,0.33581 -1.51521,0.42222 -6.04176,0.42222 -5.49122,0 -5.69702,-0.0217 -5.85269,-0.61697 -0.113,-0.43211 -0.30683,-0.55434 -0.64692,-0.40793 -4.64385,1.99911 -8.45206,2.43394 -11.96671,1.3664 -1.15314,-0.35025 -2.40359,-0.88539 -2.77877,-1.1892 -0.66763,-0.54061 -0.72761,-0.53471 -2.81817,0.27705 -5.33332,2.07094 -10.69706,1.8312 -12.87347,-0.57539 -0.54354,-0.60102 -0.57028,-0.60185 -1.84113,-0.0571 -3.91134,1.6766 -8.92226,2.41579 -11.26416,1.66166 z"
         style="fill:#013473;fill-opacity:1"
         id="path3357"
         inkscape:connector-curvature="0" />
      <path
         d="m 292.85757,120.52757 c 0.63043,-0.17506 1.67668,-0.79751 2.325,-1.38323 2.15933,-1.95083 1.35038,-4.07547 -1.92169,-5.04717 -2.99937,-0.89072 -3.0177,-0.8781 -3.91251,2.69291 -0.43287,1.72748 -0.78703,3.34748 -0.78703,3.6 0,0.55754 2.49589,0.63742 4.29623,0.13749 z m -1.13632,12.94251 c 2.82556,-1.23667 3.70827,-3.90087 1.88355,-5.68487 -0.99587,-0.97365 -3.34081,-2.00056 -5.27422,-2.30972 l -1.12455,-0.17983 -0.9824,3.97673 c -0.61375,2.48447 -0.87648,4.08263 -0.70014,4.25897 0.89677,0.89677 4.08074,0.86528 6.19776,-0.0613 z m -1.9125,5.64256 c -0.88143,-0.14654 -2.44452,-0.60326 -3.47354,-1.01493 -2.2545,-0.90194 -2.27387,-0.90321 -2.27387,-0.1485 0,0.58007 -0.2,0.6 -6.02022,0.6 -5.59327,0 -6.00909,-0.0372 -5.8634,-0.525 0.59793,-2.00183 2.85006,-11.00856 2.77216,-11.08646 -0.13025,-0.13025 -6.86091,0.73877 -8.73854,1.12827 -1.42269,0.29512 -1.53132,0.27202 -2.1076,-0.44822 -0.33418,-0.41766 -0.83915,-1.15137 -1.12216,-1.63047 l -0.51457,-0.87109 3.22217,-0.61126 c 1.77219,-0.3362 4.63966,-0.76919 6.37216,-0.96222 3.65596,-0.40734 3.94608,-0.5164 4.23361,-1.5915 0.2051,-0.76691 0.16426,-0.80205 -0.93203,-0.80205 -1.68766,0 -8.12958,0.86648 -11.38198,1.53095 -1.55671,0.31804 -2.92155,0.47493 -3.03297,0.34865 -0.74895,-0.84887 -1.74106,-2.64328 -1.55773,-2.81744 0.61849,-0.58754 10.60807,-2.39032 15.73881,-2.84032 1.76191,-0.15453 2.34972,-0.31941 2.45119,-0.68756 0.0734,-0.26635 0.21906,-0.78254 0.32364,-1.14708 0.18274,-0.63698 0.12815,-0.65674 -1.4012,-0.50706 -8.50117,0.83199 -14.0268,1.76067 -16.84164,2.83055 -0.85234,0.32395 -1.63688,0.58908 -1.74343,0.58916 -0.26327,2e-4 -2.16634,-2.98979 -2.00537,-3.15074 0.0704,-0.0704 1.74156,-0.59202 3.71359,-1.15905 4.17732,-1.20113 9.25347,-2.10511 14.53551,-2.58855 4.62097,-0.42294 5.00987,-0.56601 5.2672,-1.9377 l 0.19957,-1.06381 5.81662,0 c 5.35226,0 5.81661,0.0422 5.81661,0.52801 0,0.47572 0.39362,0.5314 3.975,0.56226 7.42703,0.064 11.83134,1.51799 13.32039,4.39751 0.60715,1.1741 0.5928,3.34329 -0.0318,4.80747 -0.58117,1.36236 -2.64469,3.67615 -3.82103,4.28446 l -0.83858,0.43364 1.30969,1.60795 c 5.12048,6.28656 1.80672,12.08589 -7.91366,13.84953 -2.52195,0.45758 -5.06702,0.4892 -7.45259,0.0926 z"
         style="fill:#013473;fill-opacity:1"
         id="path3349"
         inkscape:connector-curvature="0" />
    </g>
  </g>
</svg>
