<?xml version="1.0" encoding="UTF-8" standalone="no"?>
<!-- Created with Inkscape (http://www.inkscape.org/) -->

<svg
   xmlns:dc="http://purl.org/dc/elements/1.1/"
   xmlns:cc="http://creativecommons.org/ns#"
   xmlns:rdf="http://www.w3.org/1999/02/22-rdf-syntax-ns#"
   xmlns:svg="http://www.w3.org/2000/svg"
   xmlns="http://www.w3.org/2000/svg"
   xmlns:sodipodi="http://sodipodi.sourceforge.net/DTD/sodipodi-0.dtd"
   xmlns:inkscape="http://www.inkscape.org/namespaces/inkscape"
   width="735"
   height="105"
   viewBox="0 0 735 105"
   id="svg3392"
   version="1.1"
   inkscape:version="0.91pre3 r13670"
   sodipodi:docname="bfgoodrich.svg">
  <defs
     id="defs3394" />
  <sodipodi:namedview
     id="base"
     pagecolor="#ffffff"
     bordercolor="#666666"
     borderopacity="1.0"
     inkscape:pageopacity="0.0"
     inkscape:pageshadow="2"
     inkscape:zoom="0.49497475"
     inkscape:cx="542.06907"
     inkscape:cy="162.23352"
     inkscape:document-units="px"
     inkscape:current-layer="layer1"
     showgrid="false"
     showguides="false"
     units="px"
     inkscape:window-width="1366"
     inkscape:window-height="715"
     inkscape:window-x="-8"
     inkscape:window-y="-8"
     inkscape:window-maximized="1" />
  <metadata
     id="metadata3397">
    <rdf:RDF>
      <cc:Work
         rdf:about="">
        <dc:format>image/svg+xml</dc:format>
        <dc:type
           rdf:resource="http://purl.org/dc/dcmitype/StillImage" />
        <dc:title></dc:title>
      </cc:Work>
    </rdf:RDF>
  </metadata>
  <g
     inkscape:label="Layer 1"
     inkscape:groupmode="layer"
     id="layer1"
     transform="translate(0,-947.36216)">
    <g
       id="g3521"
       transform="matrix(0.69044816,0,0,0.69044816,198.80662,744.68503)">
      <path
         id="path3515"
         d="m 181.53572,441.18242 c -222.337497,-0.13817 -404.23915,-0.36317 -404.22589,-0.5 0.0133,-0.13682 1.5121,-5.12238 3.33077,-11.07902 l 3.30667,-10.83025 406.37472,0.11907 c 223.50609,0.0655 406.5043,0.24866 406.66268,0.40705 0.2668,0.2668 -3.21186,17.25536 -4.2252,20.63438 -0.28034,0.93483 -1.67886,1.5 -3.71179,1.5 -1.79408,0 -185.17446,-0.11305 -407.51196,-0.25123 z"
         style="fill:#203b80;fill-opacity:1"
         inkscape:connector-curvature="0" />
      <path
         id="path3513"
         d="m 603.13791,441.4525 c -0.26463,-0.26463 1.19434,-7.01463 3.24217,-15 l 3.72331,-14.51885 -5.37745,0 c -4.36911,0 -5.26952,-0.28127 -4.80185,-1.5 0.46689,-1.21668 2.81606,-1.5 12.43723,-1.5 10.13283,0 11.77774,0.21862 11.28603,1.5 -0.40208,1.04779 -2.03654,1.5 -5.42161,1.5 -5.57698,0 -4.75214,-1.6102 -9.52721,18.59836 -2.40133,10.16269 -3.72293,12.75818 -5.56062,10.92049 z"
         style="fill:#203b80;fill-opacity:1"
         inkscape:connector-curvature="0" />
      <path
         id="path3511"
         d="m 620.35966,431.18365 c 1.60286,-5.9125 2.91694,-11.0875 2.92017,-11.5 0.003,-0.4125 0.68089,-0.75 1.50589,-0.75 1.96806,0 1.94113,0.30044 -1.12342,12.53044 -2.11354,8.43472 -2.97264,10.46956 -4.42017,10.46956 -1.6597,0 -1.57445,-0.82 1.11753,-10.75 z"
         style="fill:#203b80;fill-opacity:1"
         inkscape:connector-curvature="0" />
      <path
         id="path3509"
         d="m 626.81494,439.68365 c 0.31203,-1.2375 1.58622,-6.29891 2.83154,-11.24757 l 2.26421,-8.99757 5.59352,-0.25099 c 5.15656,-0.23138 5.55269,-0.0949 5.07088,1.74757 -0.3662,1.40034 -1.36431,1.99856 -3.33457,1.99856 -4.10861,0 -5.36172,1.83569 -7.42752,10.88058 -1.50185,6.57565 -2.20722,8.11942 -3.70991,8.11942 -1.42563,0 -1.72404,-0.52125 -1.28815,-2.25 z"
         style="fill:#203b80;fill-opacity:1"
         inkscape:connector-curvature="0" />
      <path
         id="path3507"
         d="m 642.03572,440.85355 c -4.05459,-2.36158 -0.31177,-19.43165 4.76811,-21.7462 2.71268,-1.23598 11.16353,-0.54181 13.23189,1.08689 1.32853,1.04614 1.60838,4.80084 0.62984,8.45069 -0.54148,2.01968 -1.29845,2.23629 -8.73635,2.5 l -8.14349,0.28872 0,3.5 0,3.5 5.32923,0.30501 c 4.67117,0.26734 5.3956,0.0512 5.86664,-1.75 0.61677,-2.35854 3.30413,-2.80994 3.30413,-0.55501 0,3.26388 -3.78378,5.50125 -9.25,5.46959 -2.8875,-0.0167 -6.0375,-0.48908 -7,-1.04969 z"
         style="fill:#203b80;fill-opacity:1"
         inkscape:connector-curvature="0" />
      <path
         id="path3505"
         d="m 657.71429,427.36222 c 0.86429,-0.86428 1.57143,-1.95714 1.57143,-2.42857 0,-2.04779 -3.41581,-4 -6.99885,-4 -2.97462,0 -4.32972,0.60225 -5.92857,2.63486 -3.47016,4.41159 -2.78483,5.36514 3.85599,5.36514 4.05628,0 6.42484,-0.49627 7.5,-1.57143 z"
         style="fill:#ffffff;fill-opacity:1"
         inkscape:connector-curvature="0" />
      <path
         id="path3503"
         d="m 662.43733,441.04851 c -1.59286,-1.00944 -1.19193,-4.26922 0.59839,-4.86533 0.6875,-0.22891 1.25,0.26598 1.25,1.09975 0,3.46712 10.10485,3.19184 11.98785,-0.32657 2.00743,-3.75092 1.26737,-5.02271 -2.92275,-5.02271 -8.43849,0 -10.65792,-2.68037 -8.00254,-9.66455 1.38101,-3.63232 2.5619,-4.30162 7.62234,-4.32014 5.61802,-0.0205 9.54597,1.55045 9.13786,3.65474 -0.41534,2.14158 -2.82276,2.97796 -2.82276,0.98067 0,-1.99851 -3.3633,-2.99275 -7.49917,-2.21685 -2.57881,0.48378 -3.57217,1.33202 -4.42504,3.77856 -1.37216,3.93619 -0.33875,4.75111 6.05177,4.77226 5.94017,0.0197 7.15109,1.40849 5.73856,6.58173 -0.59073,2.16347 -1.53237,4.49608 -2.09253,5.18358 -1.16243,1.42667 -12.50007,1.70958 -14.62198,0.36486 z"
         style="fill:#203b80;fill-opacity:1"
         inkscape:connector-curvature="0" />
      <path
         id="path3501"
         d="m 625.28572,410.93365 c 0,-1.30059 0.66667,-2 1.90638,-2 1.41405,0 1.77131,0.51651 1.38337,2 -0.28766,1.1 -1.14553,2 -1.90638,2 -0.76085,0 -1.38337,-0.9 -1.38337,-2 z"
         style="fill:#203b80;fill-opacity:1"
         inkscape:connector-curvature="0" />
      <path
         id="path3499"
         d="m 42.285721,398.91409 c -17.59771,-0.8683 -24.25465,-2.93815 -30.650637,-9.53026 -6.6930001,-6.89822 -7.0217501,-10.52143 -2.7174601,-29.95018 3.9461901,-17.8124 8.4132571,-32.6368 11.9397571,-39.62335 4.5456,-9.0055 18.83603,-18.50317 31.42834,-20.88782 8.89027,-1.68358 41.29443,-2.36242 53.377379,-1.11821 17.70764,1.82339 22.81928,5.89205 23.4649,18.67716 0.20681,4.09547 0.0933,8.57264 -0.25218,9.94926 l -0.6282,2.50296 -16.48095,0 c -15.989119,0 -16.480949,-0.0617 -16.480949,-2.06574 0,-6.23183 -6.60095,-8.49772 -22.4008,-7.68946 -11.11288,0.56849 -16.21416,2.17894 -19.29055,6.08994 -4.39601,5.58863 -12.30865,32.37641 -12.30865,41.67023 0,8.73809 1.18399,9.41292 17.28178,9.85003 16.30289,0.44268 19.67697,-0.43906 23.48584,-6.13743 1.55049,-2.31967 3.35934,-5.47024 4.01965,-7.00129 1.58987,-3.68636 0.79363,-3.93793 -11.19529,-3.53711 -5.27805,0.17646 -9.59546,0.0113 -9.59422,-0.36712 0.003,-0.81856 2.87008,-13.55455 3.61626,-16.06205 0.47954,-1.61148 2.69212,-1.75 27.95337,-1.75 15.087929,0 27.432609,0.26252 27.432609,0.58339 0,1.33055 -4.24126,17.39034 -6.18414,23.41661 -4.60198,14.27406 -11.17878,23.64219 -19.524369,27.81091 -6.86631,3.42981 -11.3651,4.11977 -36.29149,5.5659 -3.025,0.17549 -12.025,-0.003 -20,-0.39637 z"
         style="fill:#203b80;fill-opacity:1"
         inkscape:connector-curvature="0" />
      <path
         d="m 176.6906,380.53784 c 2.82755,-1.18143 3.73106,-2.44856 5.88255,-8.25 3.57752,-9.64671 4.54402,-13.1186 5.29066,-19.00532 0.6157,-4.8544 0.49306,-5.25615 -2.12916,-6.97429 -2.06261,-1.35147 -4.74443,-1.82982 -10.36572,-1.84887 -12.50069,-0.0424 -15.24019,2.06849 -19.4337,14.97429 -4.38354,13.49062 -4.08256,20.5522 0.92198,21.63169 5.45636,1.17694 16.45414,0.88444 19.83339,-0.5275 z m -37.40488,18.06484 c -15.75271,-3.654 -18.4482,-9.84132 -13.93516,-31.98723 4.28298,-21.01691 11.96669,-32.93086 24.187,-37.50307 5.14458,-1.92483 7.87281,-2.14158 28.46901,-2.26172 24.86279,-0.14504 29.2451,0.53143 35.79197,5.52497 5.48466,4.18336 6.16211,8.2258 3.5523,21.19732 -2.80141,13.92389 -6.38084,24.57849 -10.33489,30.76309 -3.33104,5.21012 -12.12683,11.68306 -18.62393,13.70559 -5.45043,1.69671 -42.39087,2.11876 -49.1063,0.56105 z"
         style="fill:#213c81;fill-opacity:1"
         id="path3495"
         inkscape:connector-curvature="0" />
      <path
         d="m 274.33965,379.32454 c 2.91145,-2.91197 8.92609,-20.79307 8.93713,-26.56946 0.005,-2.74026 -0.58508,-5.2726 -1.42488,-6.11239 -2.91766,-2.91766 -14.79929,-3.18312 -21.87267,-0.48867 -6.49222,2.47306 -15.00133,29.81803 -10.44351,33.56137 1.9312,1.5861 5.52694,2.05281 14.4726,1.87849 6.9014,-0.13448 8.56144,-0.49912 10.33133,-2.26934 z m -38.93729,19.48124 c -7.38849,-1.22708 -12.90735,-4.54157 -15.26856,-9.16993 -1.76655,-3.46271 -1.85061,-4.65925 -0.9139,-13.00785 2.41422,-21.51726 9.07045,-37.16136 18.60143,-43.71885 7.64046,-5.25678 11.32376,-5.89532 35.27462,-6.1153 25.66791,-0.23576 31.07813,0.79286 37.39502,7.10976 3.31122,3.31122 3.79475,4.39071 3.79475,8.47193 0,9.86177 -6.6551,33.82747 -11.56342,41.64101 -4.52031,7.1959 -13.81859,12.96205 -23.91045,14.82764 -6.91371,1.27807 -35.63571,1.25265 -43.40949,-0.0384 z"
         style="fill:#203b80;fill-opacity:1"
         id="path3491"
         inkscape:connector-curvature="0" />
      <path
         d="m 366.78232,382.02011 c 4.54021,-2.56751 7.1476,-7.26548 9.36495,-16.87367 3.13014,-13.56348 3.1141,-15.09554 -0.18413,-17.58357 -2.23808,-1.68829 -4.51599,-2.19125 -11,-2.42878 -14.31693,-0.52448 -18.14011,3.49827 -21.37249,22.48808 -2.30848,13.562 -1.65101,15.61983 5.21366,16.3184 7.41924,0.75501 14.60411,-0.0125 17.97801,-1.92046 z m -38.77286,16.50538 c -9.46176,-2.03207 -14.69142,-7.19461 -15.46581,-15.26735 -0.31784,-3.31333 0.48291,-8.65831 2.55644,-17.06423 5.79072,-23.47515 12.39922,-33.02358 25.80754,-37.28861 8.90868,-2.83376 19.75836,-3.58054 28.74603,-1.9786 5.91692,1.05462 7.66564,1.83579 10.26383,4.58492 l 3.13177,3.31372 4.77841,-17.94585 4.7784,-17.94584 15.33983,0 c 8.4369,0 15.33982,0.26383 15.33982,0.58629 0,0.32245 -5.42652,21.13495 -12.05894,46.25 -6.63241,25.11504 -12.49975,47.35121 -13.03854,49.41371 l -0.97961,3.75 -14.96145,0 c -8.2288,0 -14.96146,-0.16842 -14.96146,-0.37427 0,-0.20585 0.675,-2.28743 1.5,-4.62573 2.17147,-6.15459 1.90519,-6.56294 -2.0278,-3.10973 -5.25569,4.61455 -10.59896,6.99186 -18.17809,8.08774 -8.65005,1.25073 -13.36035,1.1623 -20.57037,-0.38617 z"
         style="fill:#213c81;fill-opacity:1"
         id="path3487"
         inkscape:connector-curvature="0" />
      <path
         id="path3485"
         d="m 480.03572,399.21176 c -3.1625,-0.20785 -5.75,-0.61821 -5.75,-0.91189 0,-0.57824 15.19349,-57.50344 17.6466,-66.11622 l 1.49532,-5.25 14.31824,0 14.31824,0 -9.23063,36.25 -9.23063,36.25 -8.90857,0.078 c -4.89971,0.0429 -11.49607,-0.0921 -14.65857,-0.2999 z"
         style="fill:#203b80;fill-opacity:1"
         inkscape:connector-curvature="0" />
      <path
         id="path3483"
         d="m 539.78572,399.37071 c -1.1,-0.25121 -4.2755,-0.91512 -7.05667,-1.47535 -14.10442,-2.84118 -17.49097,-13.96753 -10.76752,-35.37618 4.31667,-13.74502 9.82059,-24.20818 14.52795,-27.61817 11.43351,-8.28239 41.5887,-11.49092 60.26837,-6.41259 12.06426,3.27984 13.52787,5.29161 13.52787,18.59445 l 0,7.85078 -8.25,-0.007 c -4.5375,-0.004 -11.2875,-0.29398 -15,-0.6446 -6.60853,-0.62414 -6.75,-0.69734 -6.75,-3.49289 0,-4.92641 -3.02591,-6.85562 -10.75,-6.85385 -9.82552,0.002 -13.13202,1.94798 -16.14146,9.49845 -3.51741,8.82494 -5.08331,15.34296 -5.09667,21.21482 -0.0155,6.82709 1.4811,7.66757 12.61317,7.08328 9.3087,-0.48858 11.53373,-1.71912 13.41487,-7.41902 l 1.11519,-3.37919 14.4415,0 14.4415,0 -0.60211,2.75 c -1.74508,7.97027 -4.21667,13.03244 -8.43599,17.27812 -6.94514,6.98853 -11.61358,8.14391 -34.5,8.53828 -10.45,0.18007 -19.9,0.12187 -21,-0.12934 z"
         style="fill:#203b80;fill-opacity:1"
         inkscape:connector-curvature="0" />
      <path
         id="path3481"
         d="m 603.55742,398.668 c 0.58369,-1.52107 26.7283,-99.62231 26.7283,-100.29139 0,-0.24363 6.78032,-0.44296 15.06739,-0.44296 13.87558,0 15.02745,0.13842 14.56246,1.75 -1.51201,5.24047 -9.62985,37.13095 -9.62985,37.83036 0,0.45405 1.6875,-0.79121 3.75,-2.76723 6.05779,-5.80378 9.58251,-7.0935 20.75,-7.59255 10.94994,-0.48934 16.35884,0.52351 21.50701,4.02729 4.61934,3.14387 7.04951,6.75464 7.67259,11.40002 0.48102,3.58626 -4.57442,24.96134 -12.32272,52.10211 l -1.4988,5.25 -14.92904,0 c -8.21097,0 -14.92904,-0.21334 -14.92904,-0.47408 0,-0.26074 2.7,-10.24665 6,-22.1909 5.97364,-21.62141 7.12945,-29.18652 4.75,-31.09019 -3.88327,-3.10679 -14.54554,-2.5311 -19.89547,1.07422 -5.15401,3.47328 -6.94521,7.75408 -12.82563,30.65192 l -5.5289,21.52903 -14.86751,0.27741 c -11.99024,0.22372 -14.76944,0.0219 -14.36079,-1.04306 z"
         style="fill:#203b80;fill-opacity:1"
         inkscape:connector-curvature="0" />
      <path
         id="path3479"
         d="m 407.28572,397.7972 c 0,-0.62504 4.05,-16.56323 9,-35.4182 4.95,-18.85497 9,-34.54356 9,-34.86355 0,-0.31999 6.57314,-0.5818 14.60699,-0.5818 13.50266,0 14.5558,0.1323 13.92997,1.75 -0.37236,0.9625 -0.93291,3.1 -1.24566,4.75 l -0.56863,3 2.88867,-2.63584 c 1.58876,-1.44971 4.37138,-3.38422 6.18359,-4.29891 3.07878,-1.55398 15.80529,-3.54048 22.79207,-3.55766 l 3.087,-0.008 -2.12557,9.75 -2.12557,9.75 -8.46143,-0.26252 c -10.32278,-0.32028 -16.70071,1.06663 -21.76048,4.73191 -3.81574,2.76411 -3.86952,2.90086 -10.18797,25.90469 l -6.35198,23.12592 -14.3305,0 c -10.03404,0 -14.3305,-0.34072 -14.3305,-1.13645 z"
         style="fill:#203b80;fill-opacity:1"
         inkscape:connector-curvature="0" />
      <path
         d="m -128.25347,337.31032 c 4.20695,-1.61436 7.33883,-14.63821 4.15542,-17.28021 -0.94606,-0.78516 -6.38713,-1.06113 -17.20138,-0.87244 l -15.81761,0.27598 -2.68063,9.25 -2.68062,9.25 16.30022,0 c 8.96512,0 17.03119,-0.2805 17.9246,-0.62333 z m -6.02237,35.68322 c 5.29667,-4.98016 5.85375,-14.2379 0.96853,-16.09526 -1.39544,-0.53055 -9.69053,-0.96463 -18.43353,-0.96463 l -15.89635,0 -1.10586,4.25 c -0.60823,2.3375 -1.55236,6.05 -2.09807,8.25 -0.54571,2.2 -1.2325,4.82455 -1.5262,5.83234 -0.50619,1.73691 0.40425,1.81503 17.48114,1.5 17.5039,-0.32291 18.0888,-0.40159 20.61034,-2.77245 z m -75.05351,23.19011 c 0.28584,-0.9625 6.0149,-23.4625 12.73123,-50 l 12.21151,-48.25 40.15803,0 c 44.306603,0 46.608303,0.27041 52.357683,6.151 3.72225,3.80721 4.47365,8.5347 2.70019,16.98844 -3.50404,16.7031 -11.543043,25.51841 -23.659593,25.94437 -1.31119,0.0461 0.2296,0.6449 3.42398,1.33068 3.82538,0.82125 6.7269,2.1667 8.5,3.9415 2.459073,2.46142 2.691583,3.36312 2.686743,10.41931 -0.004,6.55447 -0.47452,8.71658 -3.102633,14.27207 -5.66491,11.97487 -12.73193,17.62007 -24.86594,19.86317 -3.60396,0.66622 -20.99901,1.08946 -44.77718,1.08946 -36.56344,0 -38.85271,-0.10443 -38.36402,-1.75 z"
         style="fill:#d42d24;fill-opacity:1"
         id="path3473"
         inkscape:connector-curvature="0" />
      <path
         id="path3471"
         d="m -94.714277,396.95955 c 0,-1.10812 21.192,-85.14469 23.64802,-93.7759 l 1.4939,-5.25 42.92904,0 c 23.6109709,0 42.919208,0.3375 42.907198,0.75 -0.012,0.4125 -1.0612,5.25 -2.331527,10.75 l -2.3097,10 -26.9042,0.5 -26.904211,0.5 -1.67987,6.22753 c -0.92393,3.42514 -1.9786,7.58764 -2.34371,9.25 l -0.66385,3.02247 24.07945,0 c 13.2437109,0 24.0614309,0.3375 24.0393809,0.75 -0.022,0.4125 -1.06775,5.475 -2.32379,11.25 l -2.28372,10.5 -24.8409309,0.5 -24.84093,0.5 -4.58629,17.5 -4.58629,17.5 -16.24898,0.27477 c -10.59512,0.17917 -16.24899,-0.0814 -16.24899,-0.74887 z"
         style="fill:#d52e25;fill-opacity:1"
         inkscape:connector-curvature="0" />
      <path
         id="path3469"
         d="m 496.29654,318.00226 c 0.006,-0.86273 0.6936,-3.81861 1.5281,-6.56861 0.8345,-2.75 1.97197,-6.6875 2.52772,-8.75 l 1.01045,-3.75 14.56844,0 c 11.3761,0 14.46152,0.27865 14.08048,1.27163 -0.26839,0.6994 -1.27032,4.8619 -2.22651,9.25 -0.9562,4.3881 -2.02226,8.26753 -2.36902,8.62095 -0.34676,0.35341 -7.04298,0.83429 -14.88048,1.06861 -12.46134,0.37256 -14.24864,0.22914 -14.23918,-1.14258 z"
         style="fill:#203b80;fill-opacity:1"
         inkscape:connector-curvature="0" />
      <path
         id="path3467"
         d="m 698.06086,318.41527 c -7.77937,-4.33711 -5.60118,-15.70201 3.28018,-17.11463 2.88981,-0.45964 4.15333,-0.0623 6.75,2.12265 8.22408,6.92011 -0.66826,20.21137 -10.03018,14.99198 z"
         style="fill:#203b80;fill-opacity:1"
         inkscape:connector-curvature="0" />
      <path
         id="path3465"
         d="m 705.17895,317.93365 c 2.06624,0 5.10677,-4.35615 5.10677,-7.31645 0,-6.66797 -5.9263,-10.32438 -11.80583,-7.28396 -3.24903,1.68014 -4.19417,3.37201 -4.19417,7.50788 0,3.93674 5.45742,8.57942 8.83179,7.5133 0.73248,-0.23142 1.66013,-0.42077 2.06144,-0.42077 z"
         style="fill:#ffffff;fill-opacity:1"
         inkscape:connector-curvature="0" />
      <path
         id="path3463"
         d="m 698.28572,309.93365 c 0,-5.67922 0.12929,-6 2.41821,-6 1.33002,0 3.13002,0.27315 4,0.60699 1.7384,0.66708 2.16616,4.91381 0.59291,5.88614 -0.60631,0.37472 -0.36838,1.55818 0.61501,3.05902 0.88214,1.34632 1.17818,2.44785 0.65786,2.44785 -0.52032,0 -1.54811,-1.125 -2.28399,-2.5 -0.73588,-1.375 -1.93692,-2.5 -2.66898,-2.5 -0.75309,0 -1.33102,1.08551 -1.33102,2.5 0,1.375 -0.45,2.5 -1,2.5 -0.55556,0 -1,-2.66667 -1,-6 z"
         style="fill:#203b80;fill-opacity:1"
         inkscape:connector-curvature="0" />
      <path
         id="path3459"
         d="m 703.70393,309.32666 c 2.52911,-0.97051 1.87353,-3.39301 -0.91821,-3.39301 -1.83333,0 -2.5,0.53333 -2.5,2 0,2.09129 0.77523,2.40722 3.41821,1.39301 z"
         style="fill:#ffffff;fill-opacity:1"
         inkscape:connector-curvature="0" />
    </g>
  </g>
</svg>
