<?xml version="1.0" encoding="UTF-8" standalone="no"?>
<!-- Created with Inkscape (http://www.inkscape.org/) -->

<svg
   xmlns:dc="http://purl.org/dc/elements/1.1/"
   xmlns:cc="http://creativecommons.org/ns#"
   xmlns:rdf="http://www.w3.org/1999/02/22-rdf-syntax-ns#"
   xmlns:svg="http://www.w3.org/2000/svg"
   xmlns="http://www.w3.org/2000/svg"
   xmlns:sodipodi="http://sodipodi.sourceforge.net/DTD/sodipodi-0.dtd"
   xmlns:inkscape="http://www.inkscape.org/namespaces/inkscape"
   width="735"
   height="105"
   viewBox="0 0 735 105"
   id="svg3845"
   version="1.1"
   inkscape:version="0.91pre3 r13670"
   sodipodi:docname="debica.svg">
  <defs
     id="defs3847" />
  <sodipodi:namedview
     id="base"
     pagecolor="#ffffff"
     bordercolor="#666666"
     borderopacity="1.0"
     inkscape:pageopacity="0.0"
     inkscape:pageshadow="2"
     inkscape:zoom="0.7"
     inkscape:cx="505.40733"
     inkscape:cy="291.24258"
     inkscape:document-units="px"
     inkscape:current-layer="layer1"
     showgrid="false"
     units="px"
     inkscape:window-width="1366"
     inkscape:window-height="715"
     inkscape:window-x="-8"
     inkscape:window-y="-8"
     inkscape:window-maximized="1" />
  <metadata
     id="metadata3850">
    <rdf:RDF>
      <cc:Work
         rdf:about="">
        <dc:format>image/svg+xml</dc:format>
        <dc:type
           rdf:resource="http://purl.org/dc/dcmitype/StillImage" />
        <dc:title></dc:title>
      </cc:Work>
    </rdf:RDF>
  </metadata>
  <g
     inkscape:label="Layer 1"
     inkscape:groupmode="layer"
     id="layer1"
     transform="translate(0,-947.36216)">
    <path
       style="fill:#000000"
       d="m 261.1028,1048.6483 c 0.13937,-0.6675 0.48208,-1.9674 0.76158,-2.8885 0.27951,-0.9211 0.74101,-2.5121 1.02555,-3.5355 l 0.51737,-1.8609 14.75462,-0.097 14.75461,-0.097 -0.0207,0.8417 c -0.0113,0.4629 -0.47191,2.6001 -1.02345,4.7493 l -1.0028,3.9078 -15.01011,0.097 -15.01011,0.097 0.2534,-1.2138 z m 241.73445,-16.1296 c -6.11864,-0.6666 -9.11858,-1.3144 -13.59705,-2.9358 -9.08843,-3.2905 -14.28113,-8.6578 -16.22907,-16.7748 -0.67801,-2.8253 -0.76558,-3.9876 -0.57362,-7.6142 0.30715,-5.80163 0.92714,-8.76007 3.25372,-15.52606 2.57396,-7.48528 6.9361,-13.69016 12.93349,-18.3971 1.56275,-1.22649 3.14739,-2.47867 3.52145,-2.78262 0.73655,-0.59851 10.043,-5.34873 10.47902,-5.34873 0.146,0 0.7932,-0.23631 1.43823,-0.52513 12.23095,-5.47686 40.01706,-6.82349 54.48419,-2.64053 1.6881,0.4881 3.21859,0.97971 3.40106,1.09248 0.18248,0.11277 -0.16747,2.09077 -0.77763,4.39555 -0.61017,2.30477 -1.41341,5.36282 -1.78501,6.79565 -0.37161,1.43283 -0.87016,3.13572 -1.10794,3.7842 l -0.43226,1.17904 -2.32194,-1.62313 c -3.4424,-2.40642 -9.33056,-5.17398 -12.61491,-5.9293 -4.20716,-0.96752 -10.53946,-0.66065 -14.59866,0.70748 -5.36359,1.80777 -10.08933,5.33312 -14.25347,10.63292 -3.8107,4.84998 -7.88315,17.20124 -7.8888,23.92578 -0.008,9.6584 6.95604,16.2778 17.10321,16.2568 5.91357,-0.012 12.39604,-1.9561 21.7965,-6.5356 1.43834,-0.7008 2.74958,-1.2741 2.91382,-1.2741 0.30796,0 0.0674,1.5764 -0.53964,3.5356 -0.96457,3.1134 -2.8957,10.1611 -3.00448,10.9651 -0.0902,0.666 -0.42929,0.989 -1.24057,1.1815 -0.61407,0.1457 -2.79123,0.6858 -4.83814,1.2002 -10.38654,2.6101 -24.20819,3.4875 -35.5215,2.2548 z M 98.089934,1030.315 c -0.339596,-0.8188 -0.761053,-1.8236 -0.936573,-2.233 -0.476843,-1.1122 -2.9762,-7.3991 -3.073852,-7.732 -0.04658,-0.1589 8.410141,-0.2802 18.792731,-0.2696 10.38259,0.01 19.27576,-0.081 19.7626,-0.2029 0.77208,-0.1938 1.01106,-0.7173 1.87071,-4.098 0.54206,-2.1317 0.98556,-3.962 0.98556,-4.0673 0,-0.1053 -11.84977,-0.1915 -26.33281,-0.1915 l -26.3328,0 -0.436816,-1.0234 c -1.670682,-3.9144 -3.838687,-9.8338 -3.838687,-10.481 l 0,-0.777 30.256413,0 30.25642,0 0.78173,-3.25643 c 0.42995,-1.79104 0.9019,-3.63325 1.04877,-4.0938 l 0.26704,-0.83737 -37.17562,0 -37.175626,0 -1.037887,-2.88427 c -0.570837,-1.58635 -1.523264,-4.13294 -2.116505,-5.65908 -0.593241,-1.52614 -0.987459,-2.86593 -0.876041,-2.97731 0.267813,-0.26773 113.899999,-0.26325 114.167669,0.004 0.2188,0.21886 -0.0822,1.55355 -1.27512,5.65457 -1.6442,5.65236 -2.25182,7.78245 -3.68913,12.93271 -0.8283,2.96798 -1.75141,6.23378 -2.05136,7.25718 -2.18736,7.4635 -3.92219,13.7909 -3.92219,14.3053 0,0.4961 4.78371,0.5274 7.31196,0.048 2.81396,-0.5336 5.85725,-1.7877 8.22051,-3.3873 2.11701,-1.433 4.7701,-3.7886 5.49481,-4.8787 0.20469,-0.3079 1.07063,-1.5996 1.92433,-2.8703 5.3358,-7.9427 8.39209,-20.45773 6.67143,-27.31866 -0.92582,-3.6916 -1.47835,-4.78282 -3.38947,-6.69393 -2.08263,-2.08264 -4.18851,-3.15989 -7.11756,-3.64094 -1.3417,-0.22036 -27.56072,-0.35707 -68.05559,-0.35485 -62.57435,0.003 -65.88587,-0.0293 -66.12917,-0.65242 -3.28094,-8.40366 -4.08922,-10.5737 -3.97493,-10.67173 0.39905,-0.3423 144.79469,-0.53894 149.41238,-0.20347 16.72359,1.21492 26.8025,6.08058 31.14672,15.03629 1.83752,3.78808 2.29506,6.05922 2.29099,11.37203 -0.004,4.86133 -0.66233,8.99676 -2.08962,13.12106 -5.30364,15.32532 -20.00928,27.61752 -38.08436,31.83412 l -4.09381,0.955 -32.37828,0.1201 c -17.80805,0.066 -37.34701,0.1615 -43.4199,0.2121 l -11.041623,0.092 -0.617443,-1.4886 z m 136.024666,1.0975 c 0,-0.1192 0.41429,-0.7599 0.92065,-1.4238 0.54461,-0.714 1.15412,-2.3169 1.49223,-3.9242 0.31437,-1.4944 0.67086,-2.8778 0.79221,-3.0742 0.12134,-0.1963 0.53082,-1.5594 0.90995,-3.029 0.97368,-3.7743 3.10936,-11.8078 4.07427,-15.3256 0.44915,-1.6375 0.95128,-3.5635 1.11585,-4.2799 0.16457,-0.71642 0.57978,-2.30742 0.92268,-3.53556 0.3429,-1.22814 0.95626,-3.48904 1.36303,-5.02421 0.40676,-1.53518 1.04186,-3.87981 1.41136,-5.2103 0.36948,-1.33049 1.3044,-4.7637 2.07759,-7.62936 0.77319,-2.86567 1.72827,-6.38262 2.1224,-7.81545 0.39413,-1.43283 0.86057,-3.19131 1.03655,-3.90772 0.17596,-0.71642 0.50799,-1.97247 0.73784,-2.79123 0.90713,-3.23148 1.02168,-3.88341 0.84487,-4.80835 l -0.18356,-0.9602 30.37476,0 c 24.05568,0 30.37321,0.0968 30.3673,0.46521 -0.004,0.25586 -0.43584,2.0562 -0.95942,4.00076 -0.52358,1.94456 -1.12493,4.20546 -1.33633,5.02422 l -0.38436,1.48865 -13.88135,-0.10589 -13.88135,-0.10589 -0.40856,1.96671 c -0.22472,1.08169 -1.0016,4.14387 -1.7264,6.80485 -0.72481,2.66097 -1.49352,5.50803 -1.70822,6.32679 -0.21472,0.81876 -0.59644,2.07757 -0.84827,2.79737 -0.25183,0.71979 -0.38658,1.52264 -0.29942,1.7841 0.12513,0.3754 3.00802,0.46465 13.70587,0.42431 7.45107,-0.0281 13.56239,0.0529 13.58072,0.17983 0.0183,0.12701 -0.30103,1.35683 -0.70967,2.73295 -0.40864,1.37612 -0.91556,3.3394 -1.12649,4.36285 -0.21094,1.02345 -0.52618,2.24556 -0.70056,2.71581 l -0.31703,0.85495 -13.80339,-0.026 -13.8034,-0.026 -0.21041,0.8458 c -0.11571,0.4651 -0.54535,2.1018 -0.95473,3.637 -0.40938,1.5351 -1.09899,4.131 -1.53248,5.7685 -1.42889,5.3978 -1.782,6.6857 -2.16701,7.9035 -0.21137,0.6686 -0.23681,1.2935 -0.0572,1.4045 0.17799,0.11 6.362,0.1541 13.74225,0.098 l 13.41862,-0.102 -0.21381,1.1165 c -0.1176,0.6141 -0.75951,3.21 -1.42647,5.7686 l -1.21265,4.652 -30.57924,0.099 c -16.8186,0.054 -30.57925,0 -30.57925,-0.1178 z m 78.89879,-0.1671 c 0,-0.2047 0.14059,-0.3722 0.31242,-0.3722 0.68662,0 1.22863,-1.5828 3.6958,-10.7927 0.63407,-2.3669 1.99068,-7.3648 3.43465,-12.6536 1.07457,-3.9358 2.27844,-8.42957 3.1406,-11.72316 0.53581,-2.04689 1.21088,-4.559 1.50016,-5.58245 0.69837,-2.47087 1.6542,-6.01708 2.05636,-7.62936 0.1787,-0.71642 0.49255,-1.88874 0.69743,-2.60515 0.20489,-0.71642 0.70453,-2.55863 1.11032,-4.09381 1.34804,-5.09983 2.27957,-8.52906 3.10867,-11.44405 0.45121,-1.58634 0.80242,-3.51995 0.78047,-4.2969 l -0.0399,-1.41264 27.41096,0.14846 c 30.4965,0.16518 30.56996,0.1707 35.66731,2.67982 4.91253,2.41816 6.8163,5.58381 6.8163,11.33432 0,6.53271 -3.07311,12.43534 -8.60202,16.52219 -1.51672,1.12113 -5.0065,2.62421 -8.33145,3.58846 l -2.23299,0.64757 2.23299,0.65589 c 1.22814,0.36075 2.31672,0.7593 2.41907,0.88569 0.10234,0.12639 0.85151,0.56475 1.6648,0.97413 2.38635,1.20118 3.7388,2.61918 4.84137,5.07599 0.93383,2.0809 1.01589,2.5971 0.84455,5.3134 -0.24358,3.8622 -2.18203,9.6166 -3.99849,11.8697 -3.54003,4.391 -4.74979,5.5757 -7.48519,7.3304 -5.20139,3.3366 -9.97418,4.9071 -16.91164,5.565 -5.40568,0.5126 -54.13255,0.5261 -54.13255,0.015 z m 43.36068,-11.0043 c 3.60161,-1.5048 6.29001,-6.9603 6.76804,-13.7341 0.21197,-3.0036 0.19845,-3.067 -0.92097,-4.3206 -1.13041,-1.266 -1.15253,-1.2724 -4.41265,-1.2724 l -3.27656,0 -0.45506,1.8609 c -0.25028,1.0234 -0.62113,2.4469 -0.8241,3.1634 -0.20297,0.7164 -0.7014,2.5586 -1.10763,4.0938 -0.40622,1.5351 -1.17083,4.4074 -1.69913,6.3827 -0.5283,1.9753 -0.96054,3.7757 -0.96054,4.0008 0,0.6435 5.24897,0.5106 6.8886,-0.1745 z m 7.81188,-31.19069 c 3.34379,-1.57685 5.03584,-4.35623 6.67316,-10.96148 0.73773,-2.97606 0.73529,-4.18653 -0.0116,-5.75271 -0.83503,-1.75107 -1.71367,-2.17582 -4.96135,-2.39842 l -2.83655,-0.19442 -0.86179,3.11784 c -0.47397,1.71481 -1.08461,3.9552 -1.35696,4.97865 -0.27236,1.02346 -0.77286,2.86567 -1.11224,4.09381 -1.42704,5.1642 -2.03319,7.45971 -2.0392,7.7224 -0.003,0.15352 1.04034,0.27749 2.31965,0.27549 1.66368,-0.002 2.8559,-0.25352 4.18685,-0.88116 z m 45.78352,42.20689 c -0.11321,-0.1832 0.09,-0.556 0.45166,-0.8283 1.01407,-0.7638 1.62367,-2.06 2.40801,-5.1203 0.76275,-2.9761 0.88326,-3.4277 2.09488,-7.8498 0.42311,-1.5443 1.18895,-4.3913 1.70186,-6.3268 0.51288,-1.9355 1.87366,-6.9523 3.02395,-11.14847 1.15028,-4.19615 2.23373,-8.29925 2.40768,-9.11801 0.17395,-0.81876 0.59219,-2.30032 0.9294,-3.29236 0.33722,-0.99203 0.85122,-2.83425 1.14221,-4.0938 0.291,-1.25956 0.94065,-3.79737 1.44366,-5.63959 4.19526,-15.36416 4.35086,-16.02412 4.14699,-17.59134 l -0.20659,-1.58828 17.11334,0.0206 c 9.7482,0.0117 17.11333,0.1633 17.11333,0.35217 0,0.18236 -0.24667,0.57822 -0.54812,0.87968 -0.30146,0.30147 -0.71065,1.19267 -0.90927,1.98045 -0.19863,0.78778 -0.5287,2.01847 -0.73347,2.73489 -0.20476,0.71642 -0.52996,1.88873 -0.72263,2.60515 -1.72092,6.39933 -2.36301,8.7821 -3.05881,11.351 -0.44351,1.63753 -1.11411,4.14963 -1.49019,5.58246 -1.48798,5.66904 -2.19387,8.27463 -2.77265,10.23452 -0.33246,1.12579 -0.86339,3.13548 -1.17984,4.46597 -0.31649,1.33046 -0.72386,2.75396 -0.90525,3.16336 -0.18143,0.4094 -0.57232,1.8329 -0.8686,3.1634 -0.29631,1.3305 -0.81396,3.4239 -1.15032,4.6521 -0.33632,1.2281 -1.16353,4.2426 -1.83823,6.6989 -0.67466,2.4563 -1.43462,5.3034 -1.68877,6.3268 -0.25415,1.0235 -0.69256,2.5785 -0.97425,3.4555 -0.28169,0.8771 -0.51213,2.429 -0.51213,3.4487 l 0,1.854 -17.10601,-0.02 c -9.64124,-0.011 -17.1958,-0.1651 -17.31184,-0.3529 z m 142.20595,0.097 c -0.12702,-0.1271 0.34585,-0.5803 1.05084,-1.0072 0.70499,-0.4269 2.00254,-1.7237 2.88342,-2.8818 2.65487,-3.4903 14.02649,-18.9152 19.16243,-25.9928 1.55967,-2.14922 2.93578,-3.99143 3.05804,-4.09378 0.12229,-0.10234 0.89148,-1.17916 1.70935,-2.39293 0.81786,-1.21376 2.24139,-3.175 3.16339,-4.35832 0.922,-1.18331 2.19071,-2.86981 2.81937,-3.74778 0.62862,-0.87796 2.32483,-3.1873 3.76935,-5.13185 6.52396,-8.78233 14.25411,-19.4076 14.25411,-19.59261 0,-0.1118 0.35058,-0.69562 0.77909,-1.29738 0.42847,-0.60176 0.68493,-1.33938 0.56993,-1.63915 -0.18132,-0.47247 1.59796,-0.54504 13.36315,-0.54504 l 13.5723,0 0.0164,2.13995 c 0.009,1.17696 0.15943,2.80983 0.33453,3.6286 0.17511,0.81876 0.91955,4.41944 1.65435,8.00152 0.7348,3.58208 1.75818,8.52256 2.27418,10.97885 0.51601,2.45628 1.17995,5.72202 1.47545,7.2572 0.29549,1.53517 1.38765,6.89433 2.42703,11.90922 1.03934,5.0149 2.03823,9.9554 2.2197,10.9789 0.5626,3.1727 2.64132,13.3192 3.04984,14.8865 0.2134,0.8188 0.63086,1.7611 0.9277,2.094 0.4719,0.5293 0.47041,0.6319 -0.0119,0.817 -0.30343,0.1165 -8.50436,0.2251 -18.22428,0.2415 -16.38713,0.028 -19.0391,-0.1093 -17.73426,-0.9157 0.48746,-0.3013 0.48091,-2.0273 -0.0175,-4.6334 -0.21771,-1.1382 -0.7674,-4.4977 -1.22151,-7.4657 l -0.82565,-5.3964 -12.89043,-0.063 c -11.74843,-0.057 -12.94156,-0.01 -13.46761,0.575 -1.84102,2.0343 -11.45011,15.674 -11.69983,16.6074 l -0.2987,1.1165 -8.95546,0.077 c -4.92548,0.042 -9.05937,-0.027 -9.18643,-0.1543 z m 54.30544,-32.56475 c -0.13762,-1.69706 -0.39304,-4.00667 -0.56762,-5.13246 -0.17458,-1.1258 -0.52807,-4.1822 -0.78553,-6.792 -0.25746,-2.6098 -0.56439,-4.74251 -0.68203,-4.73936 -0.11764,0.003 -0.96751,1.09631 -1.88862,2.42923 -0.9211,1.33292 -2.67958,3.83317 -3.90772,5.55611 -5.19973,7.29463 -8.00153,11.31483 -8.00153,11.48123 0,0.098 3.61874,0.2013 8.04161,0.2302 l 8.04161,0.053 -0.25017,-3.08553 z m 60.0188,-15.33006 c -3.01256,-0.87405 -5.06892,-2.07892 -7.56368,-4.43178 -1.32833,-1.25275 -2.41512,-2.42528 -2.41512,-2.60563 0,-0.18034 -0.29956,-0.77242 -0.66565,-1.31575 -1.7012,-2.52465 -2.66191,-8.185 -1.93768,-11.4166 0.22833,-1.01875 0.93108,-2.90035 1.56172,-4.18135 3.32219,-6.74831 10.41348,-10.55855 17.60291,-9.45824 2.45677,0.37601 5.6786,1.47737 6.44637,2.20369 0.2705,0.25586 0.64217,0.46521 0.82602,0.46521 0.18379,0 1.34203,1.01097 2.57383,2.24661 4.9945,5.01005 6.42473,11.59758 3.88446,17.8916 -1.8584,4.60462 -5.25893,8.04434 -9.80051,9.91354 -2.62823,1.08171 -7.95531,1.43069 -10.51267,0.6887 z m 6.4646,-2.46569 c 5.5103,-1.01864 9.65082,-4.77397 11.43739,-10.37338 0.58144,-1.82224 0.48679,-6.28063 -0.17361,-8.17683 -0.87744,-2.5197 -1.44605,-3.44698 -3.25359,-5.30636 -4.37417,-4.49957 -12.3446,-5.65672 -17.06777,-2.4779 -0.54332,0.36567 -1.1533,0.66486 -1.35554,0.66486 -0.80428,0 -4.39417,4.38235 -4.89913,5.98064 -0.28649,0.9068 -0.67819,1.85745 -0.87049,2.11258 -0.19226,0.25512 -0.27626,2.01359 -0.18668,3.90772 0.14105,2.98321 0.32766,3.76628 1.39495,5.85427 2.0085,3.92925 5.9595,6.98103 10.08501,7.78973 2.31315,0.45344 2.56325,0.45469 4.88946,0.0247 z m -8.54217,-14.01632 0.1003,-8.0714 2.0469,-0.0856 c 1.1258,-0.0471 3.53225,0.01 5.34766,0.12661 3.15436,0.20278 3.35843,0.26986 4.60115,1.51254 1.20637,1.20639 1.28769,1.43212 1.12511,3.12405 -0.1292,1.3445 -0.45193,2.1125 -1.22826,2.9228 -0.74129,0.77373 -0.88482,1.09909 -0.48487,1.09909 0.83662,0 1.43196,1.62286 1.43196,3.90327 0,1.10409 0.16748,2.11093 0.37217,2.23744 0.20469,0.1265 0.37216,0.47133 0.37216,0.76629 0,0.38537 -0.45906,0.53628 -1.63132,0.53628 -1.79858,0 -2.07011,-0.38676 -2.09031,-2.97731 -0.0179,-2.30181 -0.36286,-2.94484 -1.81066,-3.37576 -0.74399,-0.22146 -2.10637,-0.34801 -3.02748,-0.28122 l -1.67474,0.12142 -0.10751,3.25644 -0.10756,3.25643 -1.66748,0 -1.66752,0 0.1003,-8.0714 z m 8.86465,-1.42834 c 1.11765,-0.57796 1.32848,-1.32541 0.86342,-3.0608 -0.21009,-0.78395 -0.42345,-0.83736 -3.34438,-0.83736 l -3.12,0 0,1.98487 c 0,1.09168 0.11165,2.09652 0.24812,2.23298 0.47206,0.47206 4.25912,0.24588 5.35284,-0.31969 z"
       id="path3879"
       inkscape:connector-curvature="0" />
  </g>
</svg>
