<?xml version="1.0" encoding="UTF-8" standalone="no"?>
<!-- Created with Inkscape (http://www.inkscape.org/) -->

<svg
   xmlns:dc="http://purl.org/dc/elements/1.1/"
   xmlns:cc="http://creativecommons.org/ns#"
   xmlns:rdf="http://www.w3.org/1999/02/22-rdf-syntax-ns#"
   xmlns:svg="http://www.w3.org/2000/svg"
   xmlns="http://www.w3.org/2000/svg"
   xmlns:sodipodi="http://sodipodi.sourceforge.net/DTD/sodipodi-0.dtd"
   xmlns:inkscape="http://www.inkscape.org/namespaces/inkscape"
   width="735"
   height="105"
   viewBox="0 0 735 105"
   id="svg3656"
   version="1.1"
   inkscape:version="0.91pre3 r13670"
   sodipodi:docname="dunlop.svg">
  <defs
     id="defs3658" />
  <sodipodi:namedview
     id="base"
     pagecolor="#ffffff"
     bordercolor="#666666"
     borderopacity="1.0"
     inkscape:pageopacity="0.0"
     inkscape:pageshadow="2"
     inkscape:zoom="1.4"
     inkscape:cx="324.21696"
     inkscape:cy="97.881786"
     inkscape:document-units="px"
     inkscape:current-layer="layer1"
     showgrid="false"
     units="px"
     inkscape:window-width="1366"
     inkscape:window-height="715"
     inkscape:window-x="-8"
     inkscape:window-y="-8"
     inkscape:window-maximized="1" />
  <metadata
     id="metadata3661">
    <rdf:RDF>
      <cc:Work
         rdf:about="">
        <dc:format>image/svg+xml</dc:format>
        <dc:type
           rdf:resource="http://purl.org/dc/dcmitype/StillImage" />
        <dc:title></dc:title>
      </cc:Work>
    </rdf:RDF>
  </metadata>
  <g
     inkscape:label="Layer 1"
     inkscape:groupmode="layer"
     id="layer1"
     transform="translate(0,-947.36216)">
    <g
       id="g3805"
       transform="matrix(0.35711479,0,0,0.35711479,109.94056,891.19861)">
      <path
         id="path3803"
         d="m 131.83814,444.09301 c 0,-0.69298 1.69079,-2.61119 29.79163,-33.79873 13.52085,-15.00602 24.76395,-27.78215 24.98466,-28.3914 0.22072,-0.60924 -1.18553,-1.44805 -3.125,-1.86402 -25.87485,-5.5496 -49.80834,-21.78179 -59.60538,-40.42559 -6.5592,-12.48219 -8.6617,-22.91108 -7.97042,-39.5353 0.82051,-19.73221 5.84955,-31.47109 19.2034,-44.82494 10.93771,-10.93771 30.53286,-21.53845 45.80307,-24.77892 3.96383,-0.84115 7.05758,-1.90622 6.875,-2.36681 -0.18258,-0.46059 -11.35068,-12.86186 -24.818,-27.55838 -13.46732,-14.69653 -26.35845,-28.8713 -28.64694,-31.49951 l -4.1609,-4.77855 6.77194,4.0003 c 3.72457,2.20017 28.42819,16.68407 54.89694,32.18646 26.46875,15.50238 67.25,39.39072 90.625,53.08519 23.375,13.69447 52.20312,30.55118 64.0625,37.45935 11.85937,6.90816 21.5625,12.98167 21.5625,13.49668 0,0.51502 -11.95313,7.96802 -26.5625,16.56223 -25.41429,14.95039 -47.97735,28.2449 -158.4375,93.35391 -27.15625,16.00683 -49.79688,29.34681 -50.3125,29.64443 -0.51563,0.29761 -0.9375,0.31272 -0.9375,0.0336 z"
         style="fill:#fe000b;fill-opacity:1"
         inkscape:connector-curvature="0" />
      <path
         id="path3801"
         d="m 222.46314,374.23526 c 34.20405,-7.57863 59.754,-44.41125 54.46287,-78.51333 -2.64871,-17.07144 -8.29829,-28.97639 -19.17655,-40.40945 -34.41712,-36.17242 -93.80683,-27.21321 -116.38342,17.55699 -7.06699,14.01409 -9.08896,33.85874 -5.04642,49.52807 8.31715,32.23814 41.10841,56.39168 73.01852,53.78429 3.78125,-0.30896 9.6875,-1.18492 13.125,-1.94657 z"
         style="fill:#ffffff"
         inkscape:connector-curvature="0" />
      <path
         id="path3799"
         d="m 145.58814,332.66036 c 0,-0.29843 1.47978,-3.95468 3.28839,-8.125 l 3.28839,-7.58239 6.48638,0 6.48637,0 5.53774,-12.08651 c 3.04575,-6.64758 5.72523,-12.55383 5.95439,-13.125 0.22917,-0.57117 -2.4508,-1.03849 -5.95549,-1.03849 l -6.37216,0 3.78599,-7.5 3.78599,-7.5 37.79451,0.007 c 23.82701,0.005 39.6408,0.51953 42.79037,1.3939 6.75196,1.87445 14.96379,10.2361 16.81901,17.12587 1.99635,7.41388 0.49463,15.54085 -4.15808,22.5026 -4.7725,7.14097 -16.0628,13.18833 -28.2818,15.14842 -7.65848,1.22851 -91.25,1.94271 -91.25,0.77962 z"
         style="fill:#000000"
         inkscape:connector-curvature="0" />
      <path
         id="path3797"
         d="m 226.83814,315.37204 c 3.6968,-1.82659 10,-13.59729 10,-18.67416 0,-4.29252 -3.5088,-5.99491 -12.35614,-5.99491 l -5.9434,0 -5.53773,12.08651 c -3.04576,6.64758 -5.72523,12.55383 -5.9544,13.125 -0.65737,1.63841 16.3196,1.17311 19.79167,-0.54244 z"
         style="fill:#ffffff"
         inkscape:connector-curvature="0" />
      <path
         id="path3795"
         d="m 365.58814,350.86446 c 0,-0.59869 1.76102,-5.07553 3.91338,-9.94854 l 3.91339,-8.86002 8.74219,-0.36397 8.74217,-0.36396 11.71944,-26.15659 c 6.44569,-14.38611 11.71943,-26.59479 11.71943,-27.13039 0,-0.53558 -3.55663,-1.14012 -7.9036,-1.34341 l -7.9036,-0.36961 4.14676,-9.13119 4.14677,-9.13119 57.85565,0.38119 57.85567,0.38119 6.17545,3.17952 c 14.89702,7.66994 15.09122,23.70801 0.63525,52.46184 -11.23643,22.34998 -23.07112,32.88129 -40.59008,36.11985 -8.91794,1.64857 -123.16827,1.90391 -123.16827,0.27528 z"
         style="fill:#000000"
         inkscape:connector-curvature="0" />
      <path
         id="path3793"
         d="m 469.03141,329.90335 c 4.51846,-3.33004 10.70665,-13.71725 15.35874,-25.78053 5.20801,-13.50484 5.89297,-19.47558 2.6884,-23.43446 -2.26449,-2.79752 -3.43145,-3.11039 -11.60125,-3.11039 l -9.0835,0 -11.62001,26.25 c -6.39102,14.4375 -11.63479,27.02192 -11.65284,27.9654 -0.0556,2.90721 21.5385,1.33205 25.91046,-1.89002 z"
         style="fill:#ffffff"
         inkscape:connector-curvature="0" />
      <path
         id="path3791"
         d="m 569.96314,351.08102 c -9.39079,-1.24551 -16.74457,-4.23714 -20.03875,-8.15206 -5.3123,-6.3133 -3.9963,-12.69657 8.51152,-41.2851 l 10.5291,-24.06589 -8.46194,-0.36521 -8.46195,-0.36522 3.89115,-9.32228 3.89117,-9.32229 42.17945,0 42.17943,0 -4.19303,9.0625 -4.19305,9.0625 -8.57947,0.36172 -8.57946,0.36172 -9.75291,22.32577 c -5.37121,12.29546 -9.56609,23.58916 -9.33709,25.13788 0.98504,6.66154 13.3325,10.47105 24.13546,7.44641 10.27085,-2.87566 13.43374,-7.05433 24.328,-32.1411 l 9.88279,-22.75761 -7.80631,-0.36739 -7.80631,-0.3674 4.11561,-9.0625 4.11561,-9.0625 27.55476,0 27.55477,0 -1.77403,4.0625 c -0.97572,2.23437 -2.8114,6.42791 -4.07927,9.31898 l -2.30525,5.25647 -8.04413,0.36853 -8.04412,0.36852 -10.26945,23.35147 c -5.64822,12.84332 -12.315,26.43322 -14.81512,30.19978 -8.42065,12.68625 -17.65618,17.40541 -38.18593,19.51216 -12.16119,1.24798 -40.1215,1.50332 -48.14125,0.43964 z"
         style="fill:#000000"
         inkscape:connector-curvature="0" />
      <path
         id="path3789"
         d="m 680.50861,349.14047 c 0.60974,-1.54688 2.55748,-6.04688 4.3283,-10 l 3.2197,-7.1875 8.52439,0 8.5244,0 11.49136,-26.58383 c 6.32026,-14.62111 11.49138,-26.97041 11.49138,-27.44288 0,-0.47249 -3.55902,-1.02539 -7.90892,-1.22868 l -7.90892,-0.36961 4.2919,-9.0625 4.2919,-9.0625 27.88707,0 27.88707,0 9.65265,18.4375 c 5.30896,10.14062 11.8952,22.55101 14.6361,27.57865 l 4.98345,9.14115 7.96885,-17.81378 c 4.38286,-9.79757 7.96885,-17.98921 7.96885,-18.20365 0,-0.21442 -3.70313,-0.38987 -8.22917,-0.38987 -4.52605,0 -8.04167,-0.45246 -7.8125,-1.00548 0.22917,-0.55301 2.04793,-4.77176 4.04169,-9.375 l 3.62503,-8.36952 27.31247,0 c 15.02186,0 27.31678,0.42187 27.32204,0.9375 0.005,0.51562 -1.53829,4.7118 -3.4301,9.32484 l -3.43966,8.38735 -8.04893,0.36265 -8.04892,0.36266 -16.2581,37.21732 -16.25812,37.21733 -19.94736,-0.34233 -19.94736,-0.34232 -13.99346,-26.57379 c -7.6964,-14.61557 -14.25713,-26.83745 -14.57939,-27.15971 -0.32226,-0.32226 -4.04166,7.13594 -8.26535,16.57379 l -7.67941,17.15971 8.07145,0.625 8.07143,0.625 -4.58646,9.6875 -4.58647,9.6875 -27.88574,0 -27.88574,0 1.1086,-2.8125 z"
         style="fill:#000000"
         inkscape:connector-curvature="0" />
      <path
         id="path3787"
         d="m 846.04242,349.06307 c 0.39893,-1.58942 2.14032,-6.08942 3.86975,-10 l 3.14444,-7.11012 8.45326,-0.009 8.45327,-0.009 10.87938,-25.36313 c 5.98368,-13.94971 11.23668,-26.29416 11.67335,-27.43212 0.68064,-1.77371 -0.36557,-2.12214 -7.33005,-2.44116 l -8.124,-0.37214 3.81267,-9.0625 3.81267,-9.0625 40.45049,0 c 22.24776,0 40.45479,0.42187 40.46005,0.9375 0.005,0.51562 -1.53829,4.7118 -3.4301,9.32484 l -3.43966,8.38735 -7.90427,0.36265 -7.90425,0.36266 -8.10488,18.75 c -4.45769,10.3125 -9.73842,22.54687 -11.73495,27.1875 l -3.63005,8.4375 12.7568,-0.061 12.7568,-0.061 11.75463,-13.06403 11.75464,-13.06402 8.55786,0 c 4.70683,0 8.55787,0.31284 8.55787,0.6952 0,0.38236 -4.30942,10.78861 -9.57649,23.125 l -9.57648,22.4309 -60.55902,0 -60.55904,0 0.72531,-2.88988 z"
         style="fill:#000000"
         inkscape:connector-curvature="0" />
      <path
         id="path3785"
         d="m 1015.5881,350.62066 c -30.14761,-4.5054 -32.74965,-17.59045 -11.6898,-58.78567 9.3569,-18.3032 17.1671,-25.24905 34.0363,-30.26984 7.1036,-2.11422 13.2008,-2.54608 42.9588,-3.04265 36.7512,-0.61325 47.3247,0.28281 56.0875,4.75325 6.0522,3.08762 7.3573,5.5968 7.3573,14.14552 0,14.01 -14.2186,44.88341 -25.6499,55.69464 -8.8897,8.40748 -21.8033,14.46565 -36.0764,16.92456 -12.0826,2.08155 -54.5194,2.4489 -67.0238,0.58019 z"
         style="fill:#000000"
         inkscape:connector-curvature="0" />
      <path
         id="path3783"
         d="m 1069.6908,331.48905 c 2.2123,-0.94265 5.2278,-3.05203 6.7012,-4.6875 3.2425,-3.59934 17.9462,-37.70271 17.9462,-41.62405 0,-1.53383 -1.4492,-4.15023 -3.2205,-5.81423 -4.5756,-4.29851 -20.2931,-5.10765 -27.5246,-1.41695 -7.1454,3.6468 -8.6147,5.76089 -16.7965,24.16653 -9.0168,20.2841 -9.6171,27.66419 -2.4585,30.22262 3.9311,1.40493 21.441,0.82035 25.3527,-0.84642 z"
         style="fill:#ffffff"
         inkscape:connector-curvature="0" />
      <path
         id="path3781"
         d="m 1130.5882,350.89294 c 0,-0.583 1.5882,-4.94238 3.5293,-9.6875 l 3.5294,-8.62749 8.4857,-0.625 8.4858,-0.625 11.581,-26.5625 11.5811,-26.5625 -7.9712,0 c -4.3841,0 -7.9711,-0.30091 -7.9711,-0.6687 0,-0.36777 1.8158,-4.8916 4.0353,-10.05292 l 4.0353,-9.38424 63.1522,0.36542 c 57.6149,0.3334 63.5068,0.55924 67.1965,2.57568 7.3763,4.03107 6.8428,10.05655 -2.6819,30.28976 -9.9614,21.1608 -14.7911,23.1942 -57.1371,24.05586 l -29.5246,0.60078 -3.1531,7.67167 -3.1531,7.67169 6.7402,0.37487 c 3.7072,0.20619 6.7416,0.76869 6.7433,1.25 0,0.48133 -1.7874,4.95325 -3.9759,9.93763 l -3.9789,9.0625 -39.7741,0 c -21.8758,0 -39.7741,-0.477 -39.7741,-1.06001 z"
         style="fill:#000000"
         inkscape:connector-curvature="0" />
      <path
         id="path3779"
         d="m 1246.7665,293.27459 c 1.3356,-1.3356 3.1254,-4.75481 3.9773,-7.59825 2.0276,-6.76761 0.9268,-7.42965 -12.3954,-7.45425 l -10.3648,-0.0191 -3.6977,8.24152 c -2.0338,4.53284 -3.6977,8.47034 -3.6977,8.75 0,0.27967 5.3437,0.50848 11.875,0.50848 10.0915,0 12.2397,-0.3647 14.3033,-2.42836 z"
         style="fill:#ffffff"
         inkscape:connector-curvature="0" />
      <path
         id="path3777"
         d="m 1311.8382,310.70295 c -2.9969,-2.99688 -3.2083,-7.18254 -0.5542,-10.97186 2.7361,-3.90625 10.8723,-3.90625 13.6083,0 4.218,6.02196 0.4552,13.47186 -6.8041,13.47186 -2.0834,0 -4.8612,-1.11111 -6.25,-2.5 z"
         style="fill:#000000"
         inkscape:connector-curvature="0" />
      <path
         id="path3775"
         d="m 1321.2067,311.15748 c 6.3421,-2.43369 3.9103,-12.95453 -2.9943,-12.95453 -4.2772,0 -6.6867,2.5563 -6.6867,7.09386 0,5.00329 4.6226,7.80174 9.681,5.86067 z"
         style="fill:#ffffff"
         inkscape:connector-curvature="0" />
      <path
         id="path3773"
         d="m 1314.3382,305.07795 c 0,-4.02777 0.2976,-4.375 3.75,-4.375 3.5071,0 3.7473,0.30366 3.7102,4.6875 -0.035,4.1654 -0.2247,4.44385 -1.7003,2.5 -2.0366,-2.6829 -3.2599,-2.80016 -3.2599,-0.3125 0,1.03125 -0.5625,1.875 -1.25,1.875 -0.6875,0 -1.25,-1.96875 -1.25,-4.375 z"
         style="fill:#000000"
         inkscape:connector-curvature="0" />
      <path
         id="path3769"
         d="m 1319.3382,303.20295 c 0,-0.6875 -0.5625,-1.25 -1.25,-1.25 -0.6875,0 -1.25,0.5625 -1.25,1.25 0,0.6875 0.5625,1.25 1.25,1.25 0.6875,0 1.25,-0.5625 1.25,-1.25 z"
         style="fill:#ffffff"
         inkscape:connector-curvature="0" />
    </g>
  </g>
</svg>
