<?xml version="1.0" encoding="UTF-8" standalone="no"?>
<!-- Created with Inkscape (http://www.inkscape.org/) -->

<svg
   xmlns:dc="http://purl.org/dc/elements/1.1/"
   xmlns:cc="http://creativecommons.org/ns#"
   xmlns:rdf="http://www.w3.org/1999/02/22-rdf-syntax-ns#"
   xmlns:svg="http://www.w3.org/2000/svg"
   xmlns="http://www.w3.org/2000/svg"
   xmlns:sodipodi="http://sodipodi.sourceforge.net/DTD/sodipodi-0.dtd"
   xmlns:inkscape="http://www.inkscape.org/namespaces/inkscape"
   width="735"
   height="105"
   viewBox="0 0 735 105"
   id="svg3476"
   version="1.1"
   inkscape:version="0.91pre3 r13670"
   sodipodi:docname="fulda.svg">
  <defs
     id="defs3478" />
  <sodipodi:namedview
     id="base"
     pagecolor="#ffffff"
     bordercolor="#666666"
     borderopacity="1.0"
     inkscape:pageopacity="0.0"
     inkscape:pageshadow="2"
     inkscape:zoom="0.35"
     inkscape:cx="148.19247"
     inkscape:cy="589.21142"
     inkscape:document-units="px"
     inkscape:current-layer="layer1"
     showgrid="false"
     units="px"
     inkscape:window-width="1366"
     inkscape:window-height="715"
     inkscape:window-x="-8"
     inkscape:window-y="-8"
     inkscape:window-maximized="1" />
  <metadata
     id="metadata3481">
    <rdf:RDF>
      <cc:Work
         rdf:about="">
        <dc:format>image/svg+xml</dc:format>
        <dc:type
           rdf:resource="http://purl.org/dc/dcmitype/StillImage" />
        <dc:title></dc:title>
      </cc:Work>
    </rdf:RDF>
  </metadata>
  <g
     inkscape:label="Layer 1"
     inkscape:groupmode="layer"
     id="layer1"
     transform="translate(0,-947.36216)">
    <g
       id="g3534"
       transform="matrix(0.78881584,0,0,0.78881584,259.26609,712.33361)">
      <path
         id="path3515"
         d="m 78.260704,421.30908 c -11.042572,-0.72557 -20.546158,-2.46076 -26.819887,-4.89685 -11.668541,-4.53091 -19.012627,-12.6931 -21.899836,-24.33937 -1.8045,-7.27889 -1.905277,-9.80198 -1.905277,-47.7 l 0,-36.675 22.05,0 22.05,0 0.250799,35.55 c 0.228438,32.37989 0.322506,35.79077 1.054894,38.25 1.147527,3.85319 2.880932,7.19595 4.705943,9.0751 5.97969,6.15708 21.624498,6.05067 27.0989,-0.18432 1.87012,-2.12996 3.8346,-6.35474 4.78017,-10.28018 0.65756,-2.72981 0.76955,-7.36614 0.9148,-37.8731 l 0.16551,-34.7625 21.59572,0 21.59571,0 -0.14252,38.8125 c -0.14116,38.43677 -0.15246,38.85763 -1.16559,43.47486 -1.78551,8.13714 -4.36081,13.24398 -9.15507,18.15456 -6.75988,6.92389 -17.25683,10.99422 -32.80228,12.71953 -7.61913,0.8456 -24.436834,1.19615 -32.371986,0.67477 z"
         style="fill:#de0029;fill-opacity:1"
         inkscape:connector-curvature="0" />
      <path
         id="path3513"
         d="m -268.40645,418.75571 c -0.17443,-0.17443 2.27245,-0.79015 5.4375,-1.36826 14.09658,-2.57482 27.855,-9.03654 39.46338,-18.5342 12.09464,-9.89549 23.63001,-25.81355 30.23992,-41.72911 4.86434,-11.71251 8.58047,-26.39353 9.43558,-37.27628 0.17502,-2.2275 0.3753,-4.35375 0.44507,-4.725 0.0698,-0.37125 0.14234,-2.24438 0.16127,-4.1625 l 0.0344,-3.4875 12.66951,0 12.66951,0 -0.27858,5.7375 c -1.48894,30.66537 -13.58564,59.59521 -33.16044,79.30481 -15.84273,15.95183 -34.95867,24.79339 -56.46883,26.11812 -8.05572,0.49612 -20.2026,0.56813 -20.64832,0.12242 z"
         style="fill:#000000"
         inkscape:connector-curvature="0" />
      <path
         id="path3511"
         d="m -219.1893,418.76851 c 0,-0.24195 1.62825,-0.68917 3.61832,-0.99381 9.08682,-1.39104 21.70135,-5.91606 29.56015,-10.60367 24.69914,-14.73253 42.65239,-41.59501 49.3389,-73.82315 1.5787,-7.60911 2.15482,-12.10937 2.47716,-19.35 l 0.28047,-6.3 12.66438,-0.11943 12.66438,-0.11942 -0.19793,4.84442 c -1.58327,38.75106 -20.33189,74.4643 -48.79998,92.95645 -9.97568,6.47996 -23.38406,11.44039 -34.83085,12.88568 -5.53713,0.69913 -26.775,1.19324 -26.775,0.62293 z"
         style="fill:#000000"
         inkscape:connector-curvature="0" />
      <path
         id="path3509"
         d="m -282.6393,362.82288 0,-55.35 41.91858,0 41.91859,0 -0.30355,5.67792 c -0.7898,14.77387 -3.98664,29.60021 -9.07421,42.08453 -13.51259,33.15833 -38.07654,55.44276 -68.10212,61.78229 -3.00939,0.63539 -5.67089,1.15526 -5.91445,1.15526 -0.28805,0 -0.44284,-19.34688 -0.44284,-55.35 z"
         style="fill:#000000"
         inkscape:connector-curvature="0" />
      <path
         id="path3507"
         transform="translate(0,947.36216)"
         d="m 448.09375,-639.88867 -3.61719,7.53711 c -6.39225,13.31818 -9.89075,20.54033 -22.28906,46.01172 -19.97847,41.04423 -27.57617,56.73581 -27.57617,56.95312 0,0.1131 10.04137,0.15405 22.31445,0.0898 l 22.31445,-0.11718 3.75196,-8.09961 3.75195,-8.09961 26.65625,0 26.6582,0 3.42774,8.09961 3.42773,8.09961 25.07227,0.11523 c 13.79043,0.0639 25.07422,0.0364 25.07422,-0.0625 0,-0.0989 -4.02083,-8.4538 -8.93555,-18.5664 -4.91472,-10.1126 -10.15691,-20.91797 -11.64844,-24.01172 -1.49157,-3.09375 -7.01117,-14.43297 -12.26758,-25.19922 -10.04494,-20.57412 -13.71702,-28.16127 -18.02343,-37.23828 l -2.61524,-5.51172 -27.73828,0 -27.73828,0 z m 25.85352,32.70703 c 0.36832,0.59599 6.01564,13.97675 9.46093,22.41797 1.61626,3.96 3.56009,8.69503 4.32032,10.52344 0.76019,1.82842 1.38281,3.39858 1.38281,3.48828 0,0.0897 -7.0875,0.16211 -15.75,0.16211 -9.12218,0 -15.75,-0.17184 -15.75,-0.40821 0,-0.22446 1.80706,-4.42476 4.01562,-9.33593 2.20851,-4.91116 5.82539,-13.05444 8.03907,-18.09571 2.21373,-5.04127 4.14026,-8.98007 4.28125,-8.75195 z"
         style="fill:#de0029;fill-opacity:1"
         inkscape:connector-curvature="0" />
      <path
         id="path3503"
         d="m -141.5643,416.42656 c 25.38779,-7.80615 47.008276,-28.61459 59.202264,-56.97868 6.184183,-14.38486 9.190953,-27.22968 10.402119,-44.4375 l 0.530523,-7.5375 36.257549,0.001 c 19.941651,6.3e-4 40.3611391,0.13414 45.376637,0.29664 l 9.119083,0.29547 -0.119083,13.31586 -0.119088,13.31586 -24.1875006,0.11641 -24.1875004,0.11641 0,9.67109 0,9.67109 7.0875,0.0519 c 3.898125,0.0285 7.29,0.099 7.5375,0.15646 0.2475,0.0575 6.5756254,0.13539 14.06250049,0.17309 l 13.61250051,0.0685 0,13.275 0,13.275 -21.1500006,0 -21.1500004,0 0,18.225 0,18.225 -58.1625,-0.0255 -58.162503,-0.0255 4.05,-1.24528 z"
         style="fill:#de0029;fill-opacity:1"
         inkscape:connector-curvature="0" />
      <path
         id="path3501"
         d="m 167.57212,417.16038 c -0.1157,-0.30938 -0.15998,-25.065 -0.0984,-55.0125 l 0.11196,-54.45 22.6125,-0.11666 22.6125,-0.11666 0,40.72916 0,40.72916 23.4,0 23.4,0 0,14.4 0,14.4 -45.91413,0 c -36.3191,0 -45.9581,-0.11755 -46.12446,-0.5625 z"
         style="fill:#de0029;fill-opacity:1"
         inkscape:connector-curvature="0" />
      <path
         id="path3499"
         transform="translate(0,947.36216)"
         d="m 268.83594,-639.66406 -0.11524,55.01172 -0.11328,55.01367 37.46485,-0.002 c 44.22253,-10e-4 52.34117,-0.44132 62.80273,-3.4004 8.45001,-2.39012 19.291,-9.01773 23.70312,-14.49218 2.6613,-3.30213 6.62903,-11.36208 8.06836,-16.39063 3.60333,-12.58915 3.34416,-28.85367 -0.65234,-40.8789 -6.07234,-18.27144 -20.20571,-29.21351 -42.67578,-33.03907 -9.21672,-1.56916 -15.20214,-1.77552 -52.0332,-1.79882 l -36.44922,-0.0234 z m 45.22461,26.22656 10.01172,0.21289 c 11.14065,0.23696 13.14992,0.59427 18.74023,3.32422 8.81878,4.30655 13.54883,13.15862 13.54883,25.36133 0,14.4876 -6.40906,23.80269 -18.9043,27.47851 -2.89341,0.85118 -4.79282,1.02162 -13.38476,1.20508 l -10.01172,0.21289 0,-28.89648 0,-28.89844 z"
         style="fill:#de0029;fill-opacity:1"
         inkscape:connector-curvature="0" />
    </g>
  </g>
</svg>
