<?xml version="1.0" encoding="UTF-8" standalone="no"?>
<!-- Created with Inkscape (http://www.inkscape.org/) -->

<svg
   xmlns:dc="http://purl.org/dc/elements/1.1/"
   xmlns:cc="http://creativecommons.org/ns#"
   xmlns:rdf="http://www.w3.org/1999/02/22-rdf-syntax-ns#"
   xmlns:svg="http://www.w3.org/2000/svg"
   xmlns="http://www.w3.org/2000/svg"
   xmlns:sodipodi="http://sodipodi.sourceforge.net/DTD/sodipodi-0.dtd"
   xmlns:inkscape="http://www.inkscape.org/namespaces/inkscape"
   width="735"
   height="105"
   viewBox="0 0 735 105"
   id="svg2"
   version="1.1"
   inkscape:version="0.91pre3 r13670"
   sodipodi:docname="kleber.svg">
  <defs
     id="defs4" />
  <sodipodi:namedview
     id="base"
     pagecolor="#ffffff"
     bordercolor="#666666"
     borderopacity="1.0"
     inkscape:pageopacity="0.0"
     inkscape:pageshadow="2"
     inkscape:zoom="0.35"
     inkscape:cx="57.5749"
     inkscape:cy="465.54787"
     inkscape:document-units="px"
     inkscape:current-layer="layer1"
     showgrid="false"
     units="px"
     inkscape:window-width="1366"
     inkscape:window-height="715"
     inkscape:window-x="-8"
     inkscape:window-y="-8"
     inkscape:window-maximized="1" />
  <metadata
     id="metadata7">
    <rdf:RDF>
      <cc:Work
         rdf:about="">
        <dc:format>image/svg+xml</dc:format>
        <dc:type
           rdf:resource="http://purl.org/dc/dcmitype/StillImage" />
        <dc:title></dc:title>
      </cc:Work>
    </rdf:RDF>
  </metadata>
  <g
     inkscape:label="Layer 1"
     inkscape:groupmode="layer"
     id="layer1"
     transform="translate(0,-947.36216)">
    <g
       id="g3376"
       transform="matrix(1.6030014,0,0,1.6030014,-585.83213,-244.38498)">
      <path
         inkscape:connector-curvature="0"
         id="path3371"
         d="m 570.45508,772.20312 c -4.40443,-0.0221 -8.99903,0.88633 -13.07227,2.98243 -6.81451,3.50677 -9.37299,7.83679 -8.87109,15.00976 0.34299,4.90176 0.90448,6.27677 3.75976,9.22266 1.84572,1.90431 5.19181,4.114 7.43555,4.91015 4.97803,1.76639 13.8025,1.97361 22.15235,0.51954 l 6.23828,-1.08594 0.34765,-4.35742 0.34571,-4.35742 -9.54297,0.58203 c -8.48345,0.51683 -9.75429,0.372 -11.43946,-1.30664 -1.85901,-1.85179 -1.74154,-1.89965 6.04102,-2.44336 8.17131,-0.57088 13.71511,-2.6254 14.81445,-5.49024 3.06486,-7.9869 -6.95323,-14.12914 -18.20898,-14.18555 z m 0.20312,7.7461 c 4.0024,0.0196 6.0857,1.34754 5.30469,3.38281 -0.70907,1.84782 -9.12349,2.30865 -10.20508,0.55859 -1.09736,-1.77556 1.61555,-3.9575 4.90039,-3.9414 z"
         style="fill:#000000" />
      <path
         inkscape:connector-curvature="0"
         id="path3367"
         d="m 660.00195,772.10156 c -0.81809,0.013 -1.64634,0.0604 -2.48047,0.14649 -11.93268,1.23156 -19.23632,7.72867 -19.23632,17.11133 0,7.36856 3.04035,11.30463 11.40625,14.76953 4.78984,1.9838 13.34997,2.25309 22.26171,0.70117 l 6.33204,-1.10156 0,-4.33204 0,-4.33203 -8.81055,0.57032 c -5.85837,0.37955 -9.54532,0.17891 -11,-0.59961 -3.83857,-2.05434 -2.37297,-3.10157 4.34375,-3.10157 7.6081,0 12.63703,-1.80257 14.97266,-5.36718 4.53701,-6.92437 -5.51771,-14.65993 -17.78907,-14.46485 z m 0.91211,7.84766 c 3.28484,-0.0161 5.9958,2.16584 4.89844,3.9414 -1.08159,1.75006 -9.49406,1.28923 -10.20312,-0.55859 -0.78102,-2.03527 1.30228,-3.36321 5.30468,-3.38281 z"
         style="fill:#000000" />
      <path
         inkscape:connector-curvature="0"
         id="path3363"
         d="m 471.28572,785.4686 0,-19.53498 10.45228,0 10.45229,0 0.29771,6.12486 0.29772,6.12487 4.74896,-6.12487 4.74895,-6.12486 10.62349,0 c 12.17013,0 11.94164,-1.07528 2.16219,10.17555 l -5.80253,6.67554 8.9613,10.24789 c 4.92872,5.63633 8.73142,10.61984 8.45045,11.07445 -0.28096,0.45461 -5.78264,0.82657 -12.22594,0.82657 l -11.71509,0 -5.17738,-6.53077 -5.17737,-6.53076 -0.29851,6.28076 -0.29852,6.28077 -10.25,0.28498 -10.25,0.28499 0,-19.53499 z"
         style="fill:#000000" />
      <path
         inkscape:connector-curvature="0"
         id="path3361"
         d="m 531.60043,803.46996 c -5.4248,-2.35941 -6.31471,-5.52836 -6.31471,-22.48668 l 0,-15.04966 9.5,0 9.5,0 0.006,12.25 c 0.007,14.21557 1.09056,19.10325 5.05943,22.81072 1.57564,1.47188 2.5806,2.96034 2.23323,3.30771 -1.20743,1.20743 -16.78562,0.55877 -19.98352,-0.83209 z"
         style="fill:#000000" />
      <path
         inkscape:connector-curvature="0"
         id="path3359"
         d="m 591.28516,765.93359 0,18.91602 c 0,14.17234 0.3135,19.05531 1.25,19.46875 0.6875,0.30353 7.325,0.45417 14.75,0.33398 11.89079,-0.19246 14.06959,-0.49834 18.27734,-2.57031 6.79649,-3.34671 10.02056,-7.96518 10.4707,-14.99609 0.6735,-10.51942 -4.74183,-15.15235 -17.71484,-15.15235 l -7.0332,0 0,-3 0,-3 -10,0 -10,0 z m 24.41796,15 c 3.65879,0 5.83481,6.79136 3.54688,11.06641 -0.5874,1.09756 -2.08619,1.93359 -3.46484,1.93359 -2.81989,0 -4.5,-2.56274 -4.5,-6.86328 0,-3.09584 2.19013,-6.13672 4.41796,-6.13672 z"
         style="fill:#000000" />
      <path
         inkscape:connector-curvature="0"
         id="path3355"
         d="m 682.28572,788.93362 0,-16 9,0 c 7.33333,0 9,0.27778 9,1.5 0,1.85101 0.40085,1.86119 3.81283,0.0968 3.59396,-1.85851 11.33471,-2.88756 13.06514,-1.73688 1.07939,0.71776 1.22342,2.56567 0.66468,8.5282 -0.75417,8.04811 -1.23264,8.57572 -5.54265,6.11189 -3.08106,-1.7613 -7.19834,-1.90166 -8.8,-0.3 -0.74056,0.74056 -1.2,4.37778 -1.2,9.5 l 0,8.3 -10,0 -10,0 0,-16 z"
         style="fill:#000000" />
      <path
         inkscape:connector-curvature="0"
         id="path3353"
         d="m 635.78572,769.80912 c -2.75,-1.10849 -5.30252,-2.32145 -5.67227,-2.69547 -0.36975,-0.37402 8.53525,-5.15013 19.78889,-10.61359 l 20.46117,-9.93356 5.21111,1.8276 c 2.8661,1.00518 5.84347,2.15727 6.61637,2.56021 0.91181,0.47535 -5.8998,4.28739 -19.39815,10.85595 -11.44188,5.56785 -21.07425,10.09882 -21.40527,10.06883 -0.33102,-0.03 -2.85185,-0.96148 -5.60185,-2.06997 z"
         style="fill:#e40a1c;fill-opacity:1" />
      <path
         inkscape:connector-curvature="0"
         id="path3351"
         d="m 667.39859,768.68274 -5.38713,-2.12117 13.07571,-6.51596 13.0757,-6.51596 5.52735,1.74234 c 3.04005,0.95829 5.78633,2.16137 6.10285,2.67352 0.67238,1.08793 -22.63192,13.01914 -25.24197,12.92325 -0.97096,-0.0357 -4.18959,-1.01938 -7.15251,-2.18602 z"
         style="fill:#e40a1c;fill-opacity:1" />
      <path
         inkscape:connector-curvature="0"
         id="path3347"
         d="m 616.53572,763.27134 c -2.3375,-0.82741 -4.25,-2.04436 -4.25,-2.70432 0,-0.65997 5.40545,-3.87269 12.01211,-7.13939 l 12.01211,-5.93945 7.09006,2.4138 7.09005,2.41379 -12.35216,6.25697 c -6.79369,3.44133 -13.47717,6.24482 -14.85217,6.22997 -1.375,-0.0148 -4.4125,-0.70396 -6.75,-1.53137 z"
         style="fill:#e40a1c;fill-opacity:1" />
    </g>
  </g>
</svg>
