<?xml version="1.0" encoding="UTF-8" standalone="no"?>
<!-- Created with Inkscape (http://www.inkscape.org/) -->

<svg
   xmlns:dc="http://purl.org/dc/elements/1.1/"
   xmlns:cc="http://creativecommons.org/ns#"
   xmlns:rdf="http://www.w3.org/1999/02/22-rdf-syntax-ns#"
   xmlns:svg="http://www.w3.org/2000/svg"
   xmlns="http://www.w3.org/2000/svg"
   xmlns:sodipodi="http://sodipodi.sourceforge.net/DTD/sodipodi-0.dtd"
   xmlns:inkscape="http://www.inkscape.org/namespaces/inkscape"
   width="735"
   height="105"
   viewBox="0 0 735 105"
   id="svg2"
   version="1.1"
   inkscape:version="0.91pre3 r13670"
   sodipodi:docname="kumho.svg">
  <defs
     id="defs4" />
  <sodipodi:namedview
     id="base"
     pagecolor="#ffffff"
     bordercolor="#666666"
     borderopacity="1.0"
     inkscape:pageopacity="0.0"
     inkscape:pageshadow="2"
     inkscape:zoom="0.49497475"
     inkscape:cx="111.04875"
     inkscape:cy="318.89047"
     inkscape:document-units="px"
     inkscape:current-layer="layer1"
     showgrid="false"
     units="px"
     inkscape:window-width="1366"
     inkscape:window-height="715"
     inkscape:window-x="-8"
     inkscape:window-y="-8"
     inkscape:window-maximized="1" />
  <metadata
     id="metadata7">
    <rdf:RDF>
      <cc:Work
         rdf:about="">
        <dc:format>image/svg+xml</dc:format>
        <dc:type
           rdf:resource="http://purl.org/dc/dcmitype/StillImage" />
        <dc:title></dc:title>
      </cc:Work>
    </rdf:RDF>
  </metadata>
  <g
     inkscape:label="Layer 1"
     inkscape:groupmode="layer"
     id="layer1"
     transform="translate(0,-947.36216)">
    <path
       style="fill:#e2001a;fill-opacity:1"
       d="m 230.25054,999.86215 0,-47.49999 137.24945,0 137.24947,0 0,47.49999 0,47.50005 -137.24947,0 -137.24945,0 0,-47.50005 z m 88.27736,39.96455 c -0.70171,-0.6869 -10.08273,-9.8385 -20.84673,-20.3368 l -19.5709,-19.088 -10.29522,-0.049 -10.29522,-0.049 19.15377,-19.52993 c 10.53457,-10.74148 19.49073,-19.87222 19.90256,-20.29055 l 0.74879,-0.76058 -10.41737,0 -10.41738,0 -19.90573,20.28232 c -10.94815,11.15529 -19.92045,20.31914 -19.93845,20.36414 -0.018,0.045 4.6239,0.082 10.31532,0.082 l 10.34802,0 20.82568,20.3151 20.82568,20.3151 10.4215,0 10.4215,0 -1.27582,-1.2489 z m 166.78974,-6.7509 c 4.05019,-0.701 7.10341,-3.1782 8.15619,-6.6175 0.16282,-0.532 0.22599,-0.9828 0.22782,-1.6259 0.003,-0.8066 -0.0272,-0.95 -0.31333,-1.5315 -0.69353,-1.4088 -2.05316,-2.1784 -5.27368,-2.9854 -2.32151,-0.5817 -3.60427,-1.0832 -3.91855,-1.5319 -0.17786,-0.2539 -0.20119,-0.8245 -0.0501,-1.2252 0.39842,-1.0568 2.134,-1.7974 4.21193,-1.7974 2.21297,0 3.02116,0.6329 2.92989,2.2947 l -0.0327,0.5942 1.27583,-0.023 c 0.7017,-0.013 1.70624,-0.05 2.2323,-0.083 l 0.95648,-0.06 0.12307,-0.4045 c 0.0681,-0.2239 0.12307,-0.9092 0.12307,-1.5352 0,-1.0773 -0.0151,-1.1612 -0.31896,-1.7785 -0.72585,-1.4744 -2.14038,-2.206 -4.73456,-2.4486 -2.43863,-0.2281 -5.01115,0.2025 -6.90876,1.1563 -1.3303,0.6687 -2.18147,1.3392 -3.02885,2.3859 -1.88452,2.3278 -2.03873,5.0054 -0.37453,6.5017 0.84613,0.7608 1.83437,1.1703 4.66834,1.9348 2.31403,0.6242 2.86401,0.8372 3.31225,1.2829 0.3146,0.3129 0.36802,0.429 0.36802,0.7999 0,0.6028 -0.39642,1.3482 -1.01948,1.9167 -1.07376,0.9797 -2.31363,1.4018 -4.11762,1.4018 -1.37612,0 -2.06922,-0.183 -2.65892,-0.7021 -0.60624,-0.5336 -0.79464,-1.0701 -0.77848,-2.2168 l 0.0128,-0.9071 -0.35628,0.048 c -0.19596,0.026 -1.17331,0.1171 -2.17189,0.2018 -0.99857,0.085 -1.84458,0.1842 -1.88001,0.2213 -0.0354,0.037 -0.11273,0.385 -0.17174,0.7732 -0.46813,3.0787 0.70635,5.0673 3.43488,5.8158 0.40607,0.1115 1.06695,0.2439 1.46864,0.2944 1.00342,0.126 3.47895,0.046 4.60691,-0.1494 z m -66.6414,-8.5313 2.97876,-8.391 3.16381,0 c 2.92167,0 3.16902,-0.013 3.23216,-0.1717 0.19304,-0.485 1.13031,-3.2007 1.13031,-3.275 0,-0.049 -3.68533,-0.086 -8.52467,-0.086 l -8.52469,0 -0.60332,1.6929 c -0.33183,0.9311 -0.6029,1.726 -0.60238,1.7665 9.8e-4,0.041 1.41888,0.074 3.15193,0.074 2.96126,0 3.14693,0.01 3.08346,0.1718 -0.25761,0.6551 -5.84189,16.4445 -5.84189,16.5178 0,0.055 0.8855,0.092 2.18888,0.092 l 2.18888,0 2.97876,-8.391 z m 13.59722,-0.7851 c 1.78266,-5.0199 3.40368,-9.5797 3.60228,-10.133 l 0.36112,-1.0059 -2.22742,6e-4 -2.22743,7e-4 -3.28218,9.2491 c -1.8052,5.087 -3.42785,9.6584 -3.60591,10.1587 l -0.3237,0.9096 2.23103,-0.026 2.23106,-0.027 3.24115,-9.127 z m 5.27423,9.0535 c 0.0249,-0.067 0.70138,-1.9724 1.50309,-4.2332 l 1.45762,-4.1105 1.27988,0.051 c 0.88784,0.035 1.40835,0.103 1.6992,0.221 0.88729,0.36 1.33007,1.2136 2.77424,5.3485 0.44304,1.2684 0.84852,2.4277 0.90106,2.5762 l 0.0956,0.2698 2.5911,0 c 1.42513,0 2.59114,-0.026 2.59114,-0.059 0,-0.032 -0.40009,-1.3463 -0.88909,-2.9197 -1.10352,-3.5506 -1.48336,-4.3778 -2.42921,-5.2901 -0.67059,-0.6468 -0.68093,-0.6642 -0.42648,-0.7154 2.42076,-0.4871 4.03262,-1.3037 5.38621,-2.7287 0.8372,-0.8814 1.42314,-1.8408 1.82325,-2.9857 0.38288,-1.0955 0.43019,-2.4061 0.11745,-3.2528 -0.25232,-0.6832 -0.90152,-1.4029 -1.55278,-1.7216 -1.11086,-0.5435 -1.4518,-0.5694 -8.07651,-0.6141 -5.82166,-0.039 -6.09936,-0.033 -6.16636,0.1371 -0.14149,0.3598 -7.05087,19.812 -7.09621,19.9782 -0.0436,0.1599 0.10596,0.1717 2.16226,0.1717 1.67762,0 2.22007,-0.029 2.25458,-0.1226 z m 4.19486,-11.7278 c 0,-0.04 0.38602,-1.1679 0.85873,-2.5054 l 0.85944,-2.4318 3.38585,0.027 c 3.16107,0.025 3.41149,0.04 3.7721,0.2236 0.58658,0.2981 0.79081,0.6408 0.78172,1.3118 -0.0101,0.7429 -0.37012,1.5241 -1.01814,2.2093 -0.64659,0.6837 -1.35425,1.0041 -2.51018,1.1365 -1.00816,0.1155 -6.12844,0.1394 -6.12952,0.029 z m 29.48984,11.6787 c 0.24711,-0.6245 1.13071,-3.168 1.13071,-3.2549 0,-0.075 -1.73967,-0.1064 -5.94813,-0.1064 l -5.94814,0 0.0561,-0.2208 c 0.0308,-0.1215 0.44945,-1.3249 0.93014,-2.6744 l 0.87401,-2.4535 5.41058,-0.025 c 2.97578,-0.014 5.41055,-0.04 5.41055,-0.058 0,-0.018 0.26498,-0.7754 0.58884,-1.6831 0.32387,-0.9077 0.58885,-1.6875 0.58885,-1.7329 0,-0.045 -2.41161,-0.083 -5.35916,-0.083 -4.24477,0 -5.35023,-0.026 -5.31624,-0.1227 0.0236,-0.067 0.36603,-1.039 0.76098,-2.1591 l 0.71806,-2.0364 5.77243,0 c 5.3975,0 5.77828,-0.011 5.86324,-0.1717 0.0922,-0.1744 1.19188,-3.2352 1.19188,-3.3176 0,-0.025 -3.60699,-0.034 -8.01549,-0.02 l -8.01553,0.025 -3.56053,10.0103 c -1.9583,5.5057 -3.5626,10.0655 -3.56509,10.133 -0.004,0.097 1.69535,0.1227 8.17972,0.1227 7.70318,0 8.18822,-0.01 8.25221,-0.1718 z m -97.32486,-31.4361 c 2.67953,-0.2944 4.80463,-1.0398 6.4114,-2.24888 0.85137,-0.64064 2.19876,-2.06357 2.77543,-2.93101 1.17281,-1.76415 1.90401,-3.77218 2.26149,-6.21044 0.13129,-0.89555 0.15292,-2.58539 0.15292,-11.9486 l 0,-10.90554 -4.75583,0 -4.75583,0 -0.0336,10.9672 c -0.0372,12.14657 -0.002,11.47694 -0.68109,12.857 -0.97482,1.98015 -3.3676,2.96701 -5.89521,2.4314 -1.77449,-0.37602 -3.14846,-1.76203 -3.67461,-3.70681 -0.15056,-0.55651 -0.1693,-1.64751 -0.19899,-11.58159 l -0.0328,-10.9672 -4.80527,0 -4.80527,0 0,9.99608 c 0,5.9825 0.0406,10.50421 0.10121,11.26162 0.11303,1.41341 0.5601,3.75635 0.9372,4.91157 0.76377,2.33974 2.57485,4.71784 4.65004,6.10591 1.68292,1.12569 3.65541,1.67739 7.02074,1.96359 1.44349,0.1228 4.23551,0.1258 5.32799,0.01 z m 113.21573,-0.1783 c 4.07237,-0.7301 7.36041,-2.90104 9.45577,-6.24334 0.98743,-1.57502 1.88083,-4.00262 2.22121,-6.03564 0.43663,-2.60778 0.52771,-6.2413 0.21483,-8.57169 -1.22783,-9.14562 -7.11512,-14.06185 -16.49443,-13.77383 -2.12792,0.0653 -3.65449,0.31119 -5.25474,0.84623 -5.55452,1.85713 -8.90085,6.26706 -9.87234,13.01014 -0.20796,1.44363 -0.24035,5.40983 -0.0556,6.82076 0.43417,3.3168 1.31184,5.80623 2.86646,8.13042 1.10741,1.6556 2.81643,3.26062 4.4367,4.16672 1.42487,0.79683 3.66162,1.49613 5.52419,1.72713 0.4858,0.06 1.01576,0.1272 1.17769,0.1488 0.16193,0.022 1.26601,0.027 2.45351,0.012 1.67876,-0.022 2.41887,-0.074 3.3268,-0.2372 z m -5.68217,-7.84986 c -1.9244,-0.55395 -3.42,-2.13218 -4.05775,-4.28191 -0.69529,-2.34375 -0.79085,-6.51011 -0.21087,-9.19389 0.58809,-2.72117 2.04329,-4.47607 4.26862,-5.14772 0.94182,-0.28426 2.71623,-0.23974 3.72934,0.0936 1.80909,0.59518 3.09833,1.94676 3.77039,3.95281 0.50003,1.49244 0.63409,2.5608 0.63307,5.04471 0,3.10997 -0.32049,5.07789 -1.08059,6.6616 -0.69506,1.44816 -2.18088,2.61671 -3.74481,2.94511 -0.79366,0.16666 -2.61227,0.12582 -3.3074,-0.0743 z m -151.77425,3.44358 0,-4.10044 2.26685,-2.59765 c 1.24677,-1.42871 2.34353,-2.67743 2.43725,-2.77494 0.16266,-0.16924 0.31686,0.13531 3.39129,6.69809 l 3.22089,6.87542 5.93044,0 5.93044,0 -0.19124,-0.319 c -0.10519,-0.1754 -2.73995,-4.90059 -5.85502,-10.50036 -5.65857,-10.17208 -5.6636,-10.18162 -5.48436,-10.40818 0.0987,-0.12472 2.58628,-2.95563 5.52805,-6.29089 2.94176,-3.33527 5.36337,-6.10414 5.38136,-6.15303 0.0193,-0.0526 -2.56858,-0.0874 -6.33006,-0.0853 l -6.36277,0.004 -4.90703,6.27615 -4.90702,6.27615 -0.0253,-6.27974 -0.0253,-6.27974 -4.80816,0 -4.80816,0 0,16.88016 0,16.88018 4.80888,0 4.80888,0 0,-4.10045 z m 69.99832,-8.43423 0.0249,-12.53468 2.82914,12.16665 c 1.55602,6.69166 2.87158,12.33224 2.92346,12.53464 l 0.0943,0.3681 3.56946,0 3.56946,0 0.23995,-1.00598 c 0.13197,-0.55327 1.44983,-6.18375 2.92856,-12.51218 l 2.68862,-11.50625 0.0249,12.51219 0.0249,12.51222 3.9743,0 3.97433,0 0,-16.8802 0,-16.88017 -6.33006,0 c -3.48153,0 -6.33006,0.0197 -6.33006,0.0439 0,0.1169 -4.62507,19.85284 -4.68801,20.00451 -0.0455,0.10973 -0.94996,-3.59335 -2.42691,-9.93673 l -2.35432,-10.11164 -6.35525,0 -6.35526,0 0,16.88017 0,16.88016 3.97432,0 3.97432,0 0.0249,-12.53467 z m 42.47067,5.7139 0,-6.82076 5.15237,0 5.15238,0 0,6.82076 0,6.82081 4.85795,0 4.85796,0 0,-16.8802 0,-16.88017 -4.85796,0 -4.85795,0 0,5.88843 0,5.88843 -5.15238,0 -5.15237,0 0,-5.88843 0,-5.88843 -4.80889,0 -4.80888,0 0,16.88017 0,16.8802 4.80888,0 4.80889,0 0,-6.82081 z"
       id="path3456"
       inkscape:connector-curvature="0" />
  </g>
</svg>
