<?xml version="1.0" encoding="UTF-8" standalone="no"?>
<!-- Generator: Adobe Illustrator 19.0.0, SVG Export Plug-In . SVG Version: 6.00 Build 0)  -->

<svg
   xmlns:dc="http://purl.org/dc/elements/1.1/"
   xmlns:cc="http://creativecommons.org/ns#"
   xmlns:rdf="http://www.w3.org/1999/02/22-rdf-syntax-ns#"
   xmlns:svg="http://www.w3.org/2000/svg"
   xmlns="http://www.w3.org/2000/svg"
   xmlns:sodipodi="http://sodipodi.sourceforge.net/DTD/sodipodi-0.dtd"
   xmlns:inkscape="http://www.inkscape.org/namespaces/inkscape"
   version="1.1"
   id="svg2"
   sodipodi:docname="riken.svg"
   inkscape:version="0.91pre3 r13670"
   x="0px"
   y="0px"
   viewBox="-922 373.4 735 105"
   style="enable-background:new -922 373.4 735 105;"
   xml:space="preserve"><metadata
     id="metadata3374"><rdf:RDF><cc:Work
         rdf:about=""><dc:format>image/svg+xml</dc:format><dc:type
           rdf:resource="http://purl.org/dc/dcmitype/StillImage" /><dc:title></dc:title></cc:Work></rdf:RDF></metadata><defs
     id="defs3372" /><style
     type="text/css"
     id="style3337">
	.st0{fill:#009E05;}
	.st1{fill:#0035FF;}
</style><sodipodi:namedview
     units="px"
     showgrid="false"
     inkscape:cy="128.61625"
     inkscape:cx="26.57667"
     inkscape:zoom="0.35"
     borderopacity="1.0"
     bordercolor="#666666"
     pagecolor="#ffffff"
     id="base"
     inkscape:window-maximized="1"
     inkscape:window-y="-8"
     inkscape:current-layer="svg2"
     inkscape:document-units="px"
     inkscape:pageopacity="0.0"
     inkscape:window-height="715"
     inkscape:window-x="-8"
     inkscape:window-width="1366"
     inkscape:pageshadow="2" /><g
     id="g3432"
     transform="matrix(0.26143791,0,0,0.26143791,-163.07836,228.41914)"><path
       id="path3429"
       d="m -1684.1428,945.34376 c 0,-0.7202 10.9687,-67.86514 24.375,-149.21095 13.4062,-81.34583 24.375,-148.54658 24.375,-149.33501 0,-1.04507 9.8228,-1.43352 36.25,-1.43352 28.5983,0 36.25,0.33735 36.25,1.59819 0,0.879 -2.2736,16.41776 -5.0523,34.53058 -2.7788,18.11281 -4.8869,33.42872 -4.6847,34.03535 0.2022,0.60662 11.864,-14.93214 25.9152,-34.53059 l 25.5475,-35.63353 43.5121,0 c 23.9317,0 43.5122,0.33182 43.5122,0.73735 0,0.40555 -17.7118,25.43852 -39.3595,55.62883 l -39.3594,54.89146 21.2344,93.92104 c 11.679,51.65656 21.2345,94.40485 21.2345,94.99617 0,0.59134 -16.206,1.07515 -36.0133,1.07515 l -36.0132,0 -8.4821,-35.3125 c -4.6652,-19.42187 -11.2923,-46.98297 -14.7268,-61.24688 l -6.2448,-25.93439 -13.3224,15.69409 -13.3224,15.69408 -7.5774,45.2403 -7.5774,45.2403 -35.2351,0.33197 c -23.9347,0.2255 -35.2351,-0.088 -35.2351,-0.97749 z"
       style="fill:#000000"
       inkscape:connector-curvature="0" /><path
       id="path3427"
       transform="translate(-922,373.39999)"
       d="m -982.51172,272.14648 c -17.36938,-0.0283 -29.63088,0.1852 -29.63088,0.57032 0,1.22578 -49.8213,292.77544 -50.6562,296.43554 l -0.6407,2.8125 37.252,0 37.25195,0 3.42578,-20.9375 c 1.8849,-11.51562 6.32434,-37.95312 9.86524,-58.75 l 6.43945,-37.8125 3.48047,0 c 2.945,0 3.69342,0.72225 4.85742,4.6875 0.7568,2.57813 8.52949,28.875 17.27149,58.4375 l 15.89453,53.75 35.27929,0.33204 c 19.4038,0.18258 35.2793,-0.12554 35.2793,-0.6836 0,-0.55808 -8.10145,-27.42628 -18.00195,-59.70703 -9.9006,-32.28076 -18.1975,-59.70721 -18.4375,-60.94727 -0.3351,-1.73076 1.01978,-2.75139 5.83008,-4.39453 22.8876,-7.8181 40.67713,-29.33519 48.24023,-58.34961 3.2726,-12.5549 4.54757,-37.42609 2.48047,-48.41211 -5.9809,-31.78741 -28.13273,-53.05203 -65.73633,-63.10351 -12.3399,-3.29846 -13.1204,-3.34682 -60.9375,-3.81641 -6.66015,-0.0654 -13.01684,-0.10188 -18.80664,-0.11133 z m 41.33203,66.26758 c 3.04025,0.002 7.52488,0.63706 10.66797,1.55078 12.2296,3.55522 18.17183,13.72346 16.39063,28.04297 -2.5979,20.8856 -12.67423,34.90792 -28.45313,39.59375 -3.4497,1.02447 -8.41972,1.86328 -11.04492,1.86328 -6.0715,0 -6.09858,1.65927 0.60352,-38.75 l 5.2871,-31.875 5.3418,-0.38672 c 0.36729,-0.0266 0.77271,-0.0393 1.20703,-0.0391 z"
       style="fill:#000000"
       inkscape:connector-curvature="0" /><path
       id="path3423"
       d="m -1774.889,941.92678 c 1.0319,-5.04976 45.7462,-261.21786 45.7462,-262.08005 0,-0.40285 16.0419,-0.73245 35.6488,-0.73245 l 35.6488,0 -0.645,2.8125 c -0.3547,1.54688 -9.6671,56.53125 -20.6941,122.1875 -11.027,65.65625 -20.9309,124.29688 -22.0087,130.3125 l -1.9596,10.9375 -36.2194,0 -36.2195,0 0.7025,-3.4375 z"
       style="fill:#000000"
       inkscape:connector-curvature="0" /><path
       id="path3421"
       d="m -1467.4639,940.68563 c 0.4174,-2.58298 11.5835,-70.08697 24.8135,-150.00885 l 24.0545,-145.3125 84.1015,0 c 46.2559,0 84.1016,0.19539 84.1016,0.4342 0,0.9983 -8.7922,66.78155 -9.421,70.48833 l -0.6867,4.04751 -47.0883,0.32749 -47.0882,0.32747 -2.7789,14.375 c -1.5284,7.90625 -2.8145,15.35938 -2.8579,16.5625 -0.073,2.0225 2.0996,2.1875 28.8047,2.1875 22.5745,0 28.7606,0.34132 28.3198,1.5625 -0.3102,0.85938 -3.0312,17.73438 -6.0466,37.5 l -5.4825,35.9375 -28.1563,0 -28.1562,0 -3.6268,20.9375 c -1.9947,11.51563 -3.8801,21.64063 -4.1897,22.5 -0.4438,1.23207 9.2583,1.5625 45.8775,1.5625 l 46.4404,0 -0.8619,4.6875 c -0.474,2.57813 -3.4844,18.46875 -6.6897,35.3125 l -5.8278,30.625 -84.157,0.32135 -84.1569,0.32135 0.7589,-4.69635 z"
       style="fill:#000000"
       inkscape:connector-curvature="0" /><path
       id="path3419"
       d="m -1281.1379,941.92678 c 0.387,-1.89062 11.3929,-68.125 24.4576,-147.1875 13.0646,-79.0625 24.0534,-145.01562 24.4195,-146.5625 l 0.6656,-2.8125 35.2887,0.0179 35.2887,0.0179 27.5,73.06324 c 15.189,40.35485 27.6754,71.82379 27.8918,70.29458 0.2155,-1.52277 5.3056,-34.26867 11.3115,-72.76867 l 10.9196,-70 37.2295,-0.33126 37.2294,-0.33126 -0.7311,3.45626 c -0.4021,1.90105 -11.4129,68.14386 -24.4685,147.20636 -13.0556,79.0625 -24.0338,145.01563 -24.3961,146.5625 l -0.6587,2.8125 -35.9678,0 -35.9677,0 -24.9214,-84.45917 c -16.6292,-56.35685 -25.2308,-83.70333 -25.8515,-82.1875 -0.876,2.13959 -28.494,162.33139 -28.494,165.27304 0,0.96613 -10.5979,1.37363 -35.7244,1.37363 l -35.7243,0 0.7036,-3.4375 z"
       style="fill:#000000"
       inkscape:connector-curvature="0" /><path
       id="path3415"
       d="m -1727.8928,670.57262 c 0,-0.57292 0.3571,-1.39881 0.7936,-1.83534 0.4366,-0.43651 0.992,-3.20213 1.2344,-6.14582 0.2424,-2.9437 1.8431,-14.07093 3.5572,-24.72718 4.7642,-29.61966 9.3659,-58.81718 10.1458,-64.375 0.3859,-2.75 0.9797,-5.98437 1.3195,-7.1875 0.5836,-2.06588 8.0636,-2.1875 134.5337,-2.1875 87.6702,0 133.4917,0.42403 132.6879,1.2279 -0.6754,0.67535 -3.741,2.02604 -6.8125,3.00155 -6.4914,2.06164 -35.6579,12.72782 -39.3346,14.38465 -1.375,0.61961 -7.5625,2.94578 -13.75,5.16926 -6.1875,2.22349 -13.5195,5.05323 -16.2934,6.28831 -2.7738,1.23508 -6.6739,2.65483 -8.6667,3.155 -1.9928,0.50017 -5.067,1.66282 -6.8316,2.58367 -1.7646,0.92084 -3.8744,1.67773 -4.6884,1.68196 -0.8141,0.004 -4.7516,1.33873 -8.75,2.96553 -3.9985,1.6268 -10.3637,4.09899 -14.1449,5.49375 -14.1603,5.2232 -48.2403,18.04531 -51.25,19.28206 -1.7188,0.70628 -8.75,3.24826 -15.625,5.64886 -6.875,2.4006 -17.2813,6.2132 -23.125,8.47244 -5.8438,2.25925 -19.3438,7.32213 -30,11.25084 -10.6563,3.92871 -20.5,7.63762 -21.875,8.24202 -3.0369,1.33492 -22.3056,8.6522 -22.784,8.6522 -0.1876,0 -0.341,-0.46875 -0.341,-1.04166 z"
       style="fill:#fd0002;fill-opacity:1"
       inkscape:connector-curvature="0" /></g></svg>
