<?xml version="1.0" encoding="UTF-8" standalone="no"?>
<!-- Generator: Adobe Illustrator 19.0.0, SVG Export Plug-In . SVG Version: 6.00 Build 0)  -->

<svg
   xmlns:dc="http://purl.org/dc/elements/1.1/"
   xmlns:cc="http://creativecommons.org/ns#"
   xmlns:rdf="http://www.w3.org/1999/02/22-rdf-syntax-ns#"
   xmlns:svg="http://www.w3.org/2000/svg"
   xmlns="http://www.w3.org/2000/svg"
   xmlns:sodipodi="http://sodipodi.sourceforge.net/DTD/sodipodi-0.dtd"
   xmlns:inkscape="http://www.inkscape.org/namespaces/inkscape"
   version="1.1"
   id="svg2"
   sodipodi:docname="sava.svg"
   inkscape:version="0.91pre3 r13670"
   x="0px"
   y="0px"
   viewBox="-922 373.4 735 105"
   style="enable-background:new -922 373.4 735 105;"
   xml:space="preserve"><metadata
     id="metadata3374"><rdf:RDF><cc:Work
         rdf:about=""><dc:format>image/svg+xml</dc:format><dc:type
           rdf:resource="http://purl.org/dc/dcmitype/StillImage" /><dc:title></dc:title></cc:Work></rdf:RDF></metadata><defs
     id="defs3372" /><style
     type="text/css"
     id="style3337">
	.st0{fill:#009E05;}
	.st1{fill:#0035FF;}
</style><sodipodi:namedview
     units="px"
     showgrid="false"
     inkscape:cy="-37.017714"
     inkscape:cx="199.59644"
     inkscape:zoom="0.98994949"
     borderopacity="1.0"
     bordercolor="#666666"
     pagecolor="#ffffff"
     id="base"
     inkscape:window-maximized="1"
     inkscape:window-y="-8"
     inkscape:current-layer="svg2"
     inkscape:document-units="px"
     inkscape:pageopacity="0.0"
     inkscape:window-height="715"
     inkscape:window-x="-8"
     inkscape:window-width="1366"
     inkscape:pageshadow="2" /><g
     id="g3539"
     transform="matrix(0.4664985,0,0,0.4664985,-12.591232,71.794184)"><path
       id="path3517"
       d="m -1490.8056,864.84012 c -21.54,-4.08605 -40.9436,-14.71332 -57.0772,-31.26089 -9.0039,-9.23496 -20.4328,-25.27902 -19.5606,-27.45953 0.4533,-1.13319 52.6116,-31.7911 54.0862,-31.7911 0.3146,0 2.8611,3.56857 5.6589,7.93015 5.5421,8.63956 10.7263,13.8774 16.8046,16.9783 4.4936,2.29246 12.9862,4.61809 13.8199,3.78444 0.3101,-0.31011 -17.5947,-22.43843 -39.7883,-49.17405 -22.1937,-26.73561 -40.5028,-49.04156 -40.6869,-49.56877 -0.5946,-1.70258 8.9733,-14.2403 16.7598,-21.96197 13.0198,-12.91146 29.8881,-22.50321 48.7045,-27.69471 8.9455,-2.46809 11.4634,-2.72407 26.8704,-2.73166 14.589,-0.007 18.2056,0.31619 25.5,2.28017 9.9385,2.67586 26.0742,10.11648 35.1302,16.19954 10.5891,7.11285 29.2911,26.95674 27.2737,28.93891 -1.8409,1.8088 -49.7609,29.01965 -51.1054,29.01965 -0.7672,0 -4.4383,-3.08588 -8.1579,-6.85751 -5.1472,-5.21917 -8.1535,-7.37779 -12.5833,-9.03517 -3.2011,-1.19771 -6.0319,-1.96605 -6.2905,-1.70743 -0.4976,0.4976 70.2589,84.50619 74.4131,88.35011 2.967,2.74535 5.7036,2.86656 8.2066,0.36352 1.5814,-1.5814 1.7502,-2.59216 1.0436,-6.25 -1.6479,-8.53038 -1.0606,-28.76051 1.0961,-37.75702 6.1963,-25.84733 23.4241,-47.33823 47.6823,-59.48142 22.876,-11.45124 53.0056,-11.83624 76.3972,-0.97622 l 7.6057,3.53108 21.1579,-5.69176 c 11.6368,-3.13047 21.8267,-5.43508 22.6443,-5.12136 1.2908,0.49535 1.4864,7.95686 1.4864,56.70067 0,49.76714 0.1845,56.5189 1.6269,59.55858 4.3912,9.25387 15.4808,11.58095 24.6231,5.16703 l 2.75,-1.92929 0,-51.45666 0,-51.45665 2.25,-0.85247 c 3.8876,-1.47289 59.4211,-16.09803 61.1263,-16.09803 1.4778,0 1.6265,4.83119 1.6545,53.75 0.03,53.19436 0.054,53.8059 2.25,59.15717 2.8923,7.04712 6.3492,9.61542 12.8128,9.5194 12.6776,-0.18833 24.9087,-17.31369 24.9049,-34.87074 l 0,-7.05583 -6.0494,-6.39387 c -11.359,-12.00573 -17.1002,-22.81296 -21.983,-41.38101 -4.0624,-15.44827 -4.0748,-15.35508 2.2854,-17.15488 18.974,-5.36919 53.7606,-14.57024 55.086,-14.57024 1.0362,0 3.941,4.62254 8.3264,13.25 8.3541,16.43534 15.66,24.64246 24.14578,27.12427 9.67524,2.8297 15.76878,0.15953 29.19185,-12.79179 20.76349,-20.03377 41.01531,-28.82233 66.5,-28.85862 13.08737,-0.0186 24.76102,2.48806 36.20024,7.7733 l 7.59753,3.51028 21.99318,-5.97493 c 12.09625,-3.28622 22.37925,-5.73634 22.85112,-5.44471 0.47186,0.29163 0.86781,25.59118 0.87989,56.22122 0.0247,62.58708 -0.19752,60.60353 7.49959,66.94813 7.04499,5.80708 13.8212,6.26108 29.76229,1.99406 4.62171,-1.23711 8.10603,-1.71135 8.57694,-1.16737 0.96764,1.11778 11.55411,40.34836 11.01951,40.83531 -1.44498,1.3162 -16.5811,8.27322 -22.05698,10.13806 -21.88375,7.45261 -49.72549,5.21954 -69.44253,-5.5697 l -7.11921,-3.89566 -6.59246,3.50062 c -29.42078,15.62249 -66.13028,13.23929 -93.15892,-6.04794 -8.13373,-5.80412 -20.07668,-18.64248 -24.7792,-26.63702 -5.11043,-8.688 -9.3041,-19.87566 -11.34614,-30.26861 -0.93356,-4.7514 -2.18957,-8.63201 -2.79112,-8.62359 -2.42271,0.0339 -3.35054,1.88037 -5.39666,10.73968 -4.5739,19.80437 -10.6555,30.85445 -24.632,44.75626 -14.2627,14.18644 -27.6906,21.53853 -45.5126,24.91931 -20.3928,3.86846 -44.883,-0.0602 -61.2622,-9.82758 l -3.7442,-2.23278 -6.773,3.24263 c -16.1528,7.73323 -31.6362,10.87312 -49.7731,10.09347 -14.6353,-0.62912 -24.9586,-3.15904 -36.5,-8.94503 l -8.5,-4.26127 -7.3542,3.64365 c -15.3508,7.60559 -28.3273,10.34216 -45.4166,9.57774 -16.8963,-0.75577 -30.8711,-5.10662 -45.3599,-14.12217 l -4.1307,-2.57029 -3.8693,3.08846 c -6.1526,4.91099 -16.6968,9.75906 -26.1425,12.01996 -7.1474,1.71077 -10.7176,1.99309 -19.7268,1.55994 -12.2716,-0.59 -18.7696,-2.24089 -28.8261,-7.32362 l -6.8261,-3.45002 -6.6002,2.64051 c -13.198,5.28001 -24.696,7.59596 -39.7476,8.006 -9.4976,0.25875 -16.4413,-0.0817 -21.5913,-1.05864 z"
       style="fill:#000000"
       inkscape:connector-curvature="0" /><path
       id="path3515"
       d="m -1454.6487,862.75667 c 9.5877,-1.81874 22.7959,-5.82652 28.1274,-8.53469 l 3.6931,-1.87588 5.8069,3.41897 c 10.2182,6.01612 18.8954,8.07163 33.807,8.00844 11.3715,-0.0482 13.9516,-0.38533 20.5964,-2.69136 7.3989,-2.56774 16.5351,-7.50544 22.2089,-12.00294 2.7931,-2.21399 2.8193,-2.21535 6,-0.31323 20.5522,12.29034 35.2792,16.34589 55.4659,15.27433 12.7487,-0.67674 22.2305,-3.18391 34.7075,-9.17728 l 9.0133,-4.32962 10.004,4.85446 c 24.9233,12.09408 56.7255,11.71734 82.964,-0.98283 l 8.2165,-3.97698 8.634,4.33324 c 28.3185,14.21239 61.664,12.36906 87.5497,-4.83971 8.7293,-5.80326 21.8958,-19.62597 27.0466,-28.39474 4.5455,-7.73814 9.262,-20.72018 11.07251,-30.47652 1.32521,-7.14127 2.65913,-8.72173 7.36114,-8.72173 2.22506,0 2.54288,0.52427 3.18265,5.25 4.01913,29.68786 22.85691,55.5533 49.73279,68.28618 12.28031,5.81799 21.3445,7.74885 36.74414,7.82725 16.41485,0.0836 23.14502,-1.43438 37.93734,-8.55657 l 10.43733,-5.02536 6.75841,3.65037 c 14.74503,7.96412 29.62439,11.22944 46.67584,10.24313 13.30758,-0.76974 19.94822,-2.51514 32.81642,-8.62532 l 10.12533,-4.80779 -5.01767,-18.87094 c -2.75971,-10.37902 -5.06787,-18.94771 -5.12924,-19.04152 -0.0614,-0.0938 -4.60981,0.94408 -10.10766,2.30642 -14.8343,3.67588 -23.61735,2.16089 -30.69305,-5.29427 -5.88939,-6.20522 -5.80305,-5.2283 -5.80305,-65.65768 l 0,-55.38033 -21.99566,6.00795 -21.99566,6.00794 -7.75434,-3.60084 c -20.72747,-9.62511 -41.75328,-10.71885 -63.51682,-3.30408 -13.80432,4.70309 -24.11548,11.24701 -36.78623,23.34616 -11.96386,11.42416 -17.4065,14.53181 -25.41846,14.51353 -12.63186,-0.0288 -21.46806,-8.18369 -32.26216,-29.77423 -3.0246,-6.05 -5.6296,-11.1442 -5.7888,-11.32045 -0.1592,-0.17625 -13.3963,3.19875 -29.4157,7.5 l -29.1263,7.82045 0.6479,4 c 1.1993,7.4044 5.4665,20.94648 8.8999,28.24414 4.4274,9.41049 8.1926,14.7985 15.6527,22.3989 l 6.0788,6.19304 -0.3894,9.69414 c -0.3524,8.77318 -0.7443,10.4123 -4.1255,17.25357 -6.2518,12.6498 -16.3224,19.85125 -25.6447,18.33845 -4.97,-0.80652 -8.1751,-3.46519 -11.0596,-9.17421 l -2.5,-4.94803 -0.2829,-54.30693 c -0.2646,-50.77191 -0.3947,-54.27471 -2,-53.81206 -1.4548,0.41929 -43.9174,11.68221 -55.4671,14.71226 l -3.75,0.98382 0,51.30647 c 0,47.6121 -0.126,51.41695 -1.75,52.84086 -3.6556,3.20522 -8.8741,5.15246 -13.877,5.17799 -6.4235,0.0328 -12.4276,-3.62902 -15.3532,-9.36369 -1.9552,-3.83253 -2.0198,-5.74978 -2.0198,-59.99888 0,-30.82191 -0.3375,-56.03196 -0.75,-56.02233 -0.4125,0.01 -9.7481,2.48464 -20.7459,5.5 -10.9977,3.01537 -20.6794,5.48249 -21.5149,5.48249 -0.8354,0 -4.2429,-1.32891 -7.5721,-2.95314 -7.9481,-3.87761 -19.0895,-6.87533 -29.1779,-7.85058 -41.5548,-4.01715 -79.1776,21.39417 -92.2439,62.30372 -2.6252,8.21904 -3.8133,30.14102 -2.168,40 1.1481,6.87935 -0.082,10.02393 -4.3399,11.09253 -4.9437,1.24079 -7.1199,-0.46938 -20.1368,-15.82479 -7.1184,-8.39726 -24.5094,-28.91268 -38.6466,-45.58984 -14.1372,-16.67715 -25.704,-30.96465 -25.704,-31.75 0,-2.04997 3.9681,-1.78593 10.6324,0.70752 4.2719,1.59833 7.4475,3.8755 12.6259,9.05388 3.8052,3.80515 7.265,6.78171 7.6886,6.61458 2.9971,-1.18262 47.992,-27.45741 48.019,-28.04077 0.069,-1.48086 -14.9003,-17.46902 -20.1076,-21.4767 -18.5016,-14.23953 -38.5328,-21.92174 -59.9413,-22.98826 -14.0063,-0.69776 -25.0764,0.7334 -37.417,4.83732 -23.0459,7.66404 -42.0074,21.75381 -55.3252,41.11046 l -2.9674,4.31301 41.3963,49.8913 c 22.768,27.44021 41.3963,50.48944 41.3963,51.22052 0,0.73108 -0.5625,1.32259 -1.25,1.31446 -2.9925,-0.0354 -14.1336,-3.1403 -17.5837,-4.90039 -5.9428,-3.0318 -13.3112,-10.31157 -17.6663,-17.4538 -2.2,-3.60796 -4.3573,-6.57592 -4.794,-6.59548 -0.7277,-0.0326 -45.9485,25.7277 -49.9414,28.44939 -1.5769,1.0749 -1.1828,1.99697 4.3162,10.09898 24.3262,35.84091 65.6913,54.29801 104.9848,46.84415 z"
       style="fill:#000000"
       inkscape:connector-curvature="0" /><g
       id="g3527"><path
         style="fill:#000000"
         d="m -1489.7143,854.83693 c -19.7788,-3.96714 -37.5462,-13.62229 -51.3872,-27.92481 -5.9802,-6.17962 -12.6128,-15.18397 -12.6128,-17.12306 0,-1.12223 34.7022,-21.46046 36.617,-21.46046 0.6111,0 2.3788,1.8294 3.9283,4.06534 10.3369,14.9161 29.8635,23.7147 47.1142,21.22948 4.1418,-0.59669 7.9312,-1.48547 8.4208,-1.97507 0.5202,-0.52025 -15.1596,-20.19983 -37.7305,-47.35497 -52.664,-63.36051 -49.6687,-59.55779 -49.0024,-62.21268 0.8289,-3.30249 10.0362,-13.23819 18.5021,-19.9657 8.7678,-6.96746 24.5413,-14.90256 35.6505,-17.93458 11.7015,-3.19365 37.4496,-3.21084 49,-0.0327 9.0297,2.4845 21.975,8.39796 29.9004,13.65855 7.6825,5.09933 18.5996,15.3924 18.5996,17.53636 0,1.32365 -4.5311,4.442 -16.2182,11.16141 -8.92,5.12851 -16.589,9.4809 -17.0422,9.67196 -0.4531,0.19107 -3.0669,-1.75069 -5.8084,-4.31502 -7.6334,-7.14018 -16.4918,-10.85851 -26.9139,-11.29713 -5.1978,-0.21876 -10.2144,0.15344 -12.8719,0.95504 l -4.3547,1.31352 45.0499,53.13119 c 34.3942,40.56395 45.8078,53.39538 48.2539,54.2481 7.0742,2.46608 13.983,0.50409 18.34,-5.2083 3.1316,-4.10567 3.3906,-6.99426 1.6299,-18.17479 -2.3991,-15.23492 0.7193,-32.41234 8.7122,-47.98903 3.743,-7.2945 6.4475,-10.84387 14.1982,-18.63312 8.5413,-8.58385 10.7048,-10.16694 20.0498,-14.6707 13.2219,-6.37217 22.2074,-8.43904 36.4754,-8.39018 13.2803,0.0455 23.3634,2.38452 35.0664,8.13461 l 8.0663,3.96326 16.1911,-4.45742 c 8.9051,-2.45158 16.8435,-4.45742 17.6408,-4.45742 1.2432,0 1.4913,7.22457 1.7425,50.75 0.2832,49.06756 0.3623,50.89918 2.3848,55.25 4.2127,9.06249 11.932,15.10069 21.1993,16.5826 8.0594,1.28874 21.2313,-4.85772 24.673,-11.51322 1.3184,-2.54968 1.5358,-9.75361 1.5358,-50.89728 0,-37.1583 0.2809,-48.14494 1.25,-48.89621 1.3899,-1.07743 39.378,-11.27589 42.0014,-11.27589 1.5206,0 1.6872,4.15014 1.9776,49.25 0.3619,56.20043 0.2405,55.31473 8.7444,63.81857 15.9209,15.92097 42.0261,2.16338 49.5513,-26.11391 1.6261,-6.11034 1.9351,-17.86479 0.5927,-22.54554 -0.4997,-1.74232 -4.149,-6.34399 -8.4108,-10.60576 -6.0515,-6.05156 -8.4185,-9.36931 -12.068,-16.91572 -4.9399,-10.21475 -8.8712,-22.89324 -7.6908,-24.80306 0.7824,-1.26601 38.9543,-12.02647 42.7931,-12.06316 1.8409,-0.0176 3.1174,1.72515 7.1516,9.76425 8.7132,17.36318 17.1658,25.50177 29.84134,28.7327 12.67759,3.23147 22.28355,-0.7892 37.12115,-15.53741 10.84169,-10.77637 16.2931,-14.81326 25.8642,-19.153 11.11292,-5.03884 20.38216,-6.98399 33.28084,-6.98399 13.73436,0 23.63726,2.23894 35.29759,7.98043 l 7.79758,3.8395 15.70242,-4.29732 c 8.63632,-2.36353 16.92436,-4.3129 18.41786,-4.33195 l 2.71545,-0.0346 0.28455,51.25 0.28455,51.25 2.67232,5.06346 c 7.24061,13.71937 21.87538,19.85101 38.22465,16.01527 3.79334,-0.88997 7.10797,-1.40713 7.36584,-1.14925 0.69853,0.69852 6.22371,20.81314 6.23095,22.68396 0.004,1.00448 -2.16395,2.5761 -5.74376,4.16404 -10.35621,4.59385 -16.31175,5.90359 -29.25,6.43266 -10.39588,0.42511 -13.9471,0.16515 -21.09683,-1.54436 -9.95006,-2.37908 -17.33796,-5.46338 -25.32524,-10.57278 l -5.66822,-3.62592 -3.20485,2.40621 c -5.14039,3.85941 -14.9963,8.42995 -23.40568,10.85405 -10.22648,2.94791 -31.27199,3.17248 -41.29918,0.44069 -34.47986,-9.3936 -59,-41.19452 -59,-76.5189 l 0,-7.93518 -7.25,2.80411 c -3.9875,1.54225 -9.39192,3.12087 -12.00983,3.50804 -5.3136,0.78583 -5.2299,0.63257 -6.1678,11.29159 -1.126,12.79775 -6.7332,26.53001 -15.7251,38.51146 -9.2122,12.27515 -22.289,21.47009 -38.2983,26.92951 -7.7143,2.63069 -10.8927,3.14828 -21.549,3.50912 -17.9516,0.60789 -29.5731,-2.35489 -44.494,-11.34324 l -6.994,-4.21322 -2.7439,1.95382 c -4.7522,3.38386 -16.9436,8.5764 -25.7686,10.97529 -7.1414,1.94125 -10.9761,2.31435 -23.9995,2.335 -13.5172,0.0214 -16.4561,-0.27567 -22.9747,-2.32249 -8.2729,-2.59766 -15.4154,-5.97585 -21.6056,-10.21876 l -4.0803,-2.79677 -2.9197,1.98421 c -5.3747,3.65265 -15.8527,8.62604 -22.9197,10.87882 -9.6275,3.06903 -30.0789,3.88911 -39.8289,1.59709 -10.2904,-2.41908 -20.9345,-7.21986 -29.2747,-13.2037 l -7.4847,-5.37 -6.3119,5.35457 c -11.6804,9.9088 -24.6053,14.6216 -40.0998,14.6216 -13.258,0 -24.8512,-3.60922 -34.2501,-10.66287 l -3.2502,-2.43915 -6.5207,3.11205 c -19.1047,9.11783 -42.3619,12.3327 -61.479,8.4983 z"
         id="path3513"
         inkscape:connector-curvature="0" /><path
         style="fill:#ffffff"
         d="m -1461.688,853.30655 c 10.9145,-1.31644 20.3185,-4.08439 31.1552,-9.17019 4.7749,-2.24087 9.2749,-3.79176 10,-3.44642 0.7252,0.34533 3.4609,2.17479 6.0793,4.06546 5.8567,4.22889 13.5486,7.18091 22.4652,8.62179 16.0736,2.5974 34.6481,-3.45596 48.1801,-15.70172 l 6.066,-5.48944 4.764,3.97943 c 14.3213,11.96294 35.4389,19.11195 52.6025,17.80772 4.3111,-0.32759 10.8361,-1.33126 14.5,-2.23036 7.61,-1.8675 21.0201,-7.92611 26.1057,-11.79438 1.8944,-1.44091 3.7401,-2.61984 4.1017,-2.61984 0.3616,0 3.7085,2.00388 7.4374,4.45306 12.9915,8.53286 32.1618,13.44404 46.9934,12.03909 15.4444,-1.46301 31.5845,-6.5252 41.3605,-12.9723 2.9355,-1.93592 5.5544,-3.51985 5.8198,-3.51985 0.2654,0 2.3637,1.29017 4.6628,2.86705 6.935,4.75653 16.4546,9.15118 24.5366,11.32715 9.8911,2.66305 26.7286,2.8871 36.4626,0.48519 32.574,-8.03781 56.5133,-36.2487 59.3201,-69.90487 0.5742,-6.88466 0.9005,-7.85633 2.7561,-8.20641 10.29181,-1.94172 14.05866,-3.02275 19.50077,-5.59647 3.45595,-1.6344 6.75126,-2.97164 7.32291,-2.97164 0.67305,0 0.81328,2.02663 0.39787,5.75 -1.44491,12.9511 3.0314,31.8395 10.60517,44.75 5.27815,8.99729 18.28072,21.99986 27.27801,27.27801 23.31241,13.67592 54.24507,13.92947 76,0.62296 12.23649,-7.48452 10.14667,-7.22803 18.01373,-2.21089 20.65952,13.1754 42.23201,15.87458 65.47583,8.19242 11.90178,-3.93359 11.53123,-3.37844 8.99773,-13.47981 -2.81718,-11.23245 -2.71499,-11.10046 -7.53159,-9.72751 -2.17564,0.62016 -7.3307,1.13908 -11.4557,1.15316 -6.12235,0.0209 -8.65567,-0.49463 -13.79148,-2.80655 -8.74425,-3.93628 -15.47456,-11.40567 -18.18543,-20.18244 -1.91107,-6.18733 -2.02309,-9.19345 -2.02309,-54.28955 l 0,-47.73952 -15.75,4.31023 c -8.6625,2.37063 -16.76932,4.32581 -18.01515,4.34486 -1.24583,0.0191 -4.62083,-1.27598 -7.5,-2.87784 -2.87917,-1.60186 -9.05985,-4.15491 -13.73485,-5.67345 -7.54164,-2.4497 -10.02211,-2.76402 -22,-2.78783 -12.6655,-0.0252 -14.08724,0.17465 -23,3.23265 -13.22782,4.5385 -22.68438,10.71091 -34.42531,22.46978 -13.16671,13.18683 -19.08624,16.17132 -32.07469,16.17132 -7.72667,0 -9.82993,-0.38878 -14.86633,-2.74795 -8.8876,-4.16314 -16.9616,-13.06067 -23.523,-25.92216 l -5.3894,-10.56406 -8.6106,2.38428 c -4.7359,1.31136 -13.8896,3.79474 -20.3417,5.51863 -13.53,3.615 -12.7768,1.93448 -7.4877,16.7068 3.6959,10.32258 11.1297,21.63735 18.2606,27.79367 4.7365,4.08923 5.5214,5.31696 6.5459,10.23859 3.1472,15.11907 -3.1437,36.14818 -14.0878,47.0922 -6.6889,6.68897 -12.2623,9.28804 -21.0019,9.79397 -4.6588,0.26969 -9.2139,-0.0401 -11.4525,-0.77894 -4.7579,-1.57023 -9.9459,-6.13564 -13.1123,-11.53862 -4.8829,-8.33213 -5.3971,-14.23954 -5.4159,-62.22641 -0.01,-24.3375 -0.2883,-44.25 -0.6195,-44.25 -0.3312,0 -7.1937,1.76718 -15.25,3.92708 -8.0563,2.15989 -16.548,4.42391 -18.8704,5.03116 l -4.2226,1.10408 -0.2774,48.87686 -0.2775,48.87686 -3.097,3.84198 c -1.7067,2.11724 -5.9714,5.3458 -9.5,7.19185 -6.0358,3.15778 -6.867,3.32623 -14.4951,2.93756 -6.4333,-0.3278 -8.9957,-0.94496 -12.5,-3.01066 -5.5238,-3.25619 -9.0707,-7.01126 -12.0683,-12.77677 l -2.3396,-4.5 -0.2848,-50.75 c -0.1567,-27.9125 -0.6067,-50.74824 -1,-50.74608 -0.3933,0.002 -8.1074,2.01458 -17.1423,4.47206 l -16.4271,4.46815 -5.2668,-3.01339 c -25.2081,-14.42261 -57.976,-12.63413 -81.7253,4.4606 -24.6225,17.7233 -36.1921,45.94764 -31.4922,76.82612 1.463,9.61216 0.2914,14.2997 -4.6607,18.64772 -5.9901,5.25941 -14.4764,6.26727 -21.6286,2.5687 -3.412,-1.7644 -92.8722,-107.18988 -92.8722,-109.44637 0,-1.0992 1.4542,-2.10706 4.25,-2.94554 15.0185,-4.50415 32.1128,-0.81492 43.4486,9.37688 l 4.814,4.32829 14.4937,-8.34882 c 7.9716,-4.59184 14.9437,-8.55549 15.4937,-8.80809 1.356,-0.62279 -9.204,-10.63667 -16.2744,-15.43267 -16.5289,-11.21206 -33.8093,-16.50046 -53.7256,-16.44192 -18.1748,0.0534 -35.601,5.32322 -51.2904,15.5106 -7.7029,5.00163 -24.2096,20.73922 -24.2096,23.08161 0,0.68168 20.0049,25.30378 44.4552,54.71578 24.4504,29.412 44.4754,54.02144 44.5,54.68763 0.076,2.04812 -9.8123,4.28874 -18.9266,4.28874 -9.8753,0 -18.1742,-1.88545 -25.4537,-5.78291 -5.0142,-2.68461 -17.3844,-13.95812 -19.3043,-17.59288 -1.0874,-2.05851 0.4679,-2.80987 -25.0348,12.09484 l -9.2642,5.41437 3.2642,4.56588 c 11.7259,16.40173 31.243,29.87167 51.2254,35.35377 13.3513,3.66286 22.2226,4.41355 34.5651,2.92488 z"
         id="path3511"
         inkscape:connector-curvature="0" /><path
         style="fill:#000000"
         d="m -1292.7207,821.45214 c -12.4825,-4.08525 -22.6061,-15.85971 -26.5045,-30.82673 -1.881,-7.2218 -1.899,-21.16743 -0.036,-28.16585 2.2381,-8.40868 6.4975,-16.17641 11.7511,-21.43003 13.7796,-13.77957 33.606,-13.82217 47.1331,-0.10127 18.5758,18.84189 17.8915,55.40962 -1.3622,72.80425 -6.5484,5.91603 -11.489,7.90453 -20.4747,8.24068 -4.4,0.16459 -9.1279,-0.0699 -10.5065,-0.52105 z"
         id="path3509"
         inkscape:connector-curvature="0" /><path
         style="fill:#000000"
         d="m -1272.2335,817.44013 c 5.6842,-2.51441 14.4808,-11.33491 17.4773,-17.52493 7.278,-15.03431 6.7398,-35.18814 -1.3062,-48.91768 -3.8245,-6.52605 -12.707,-14.19437 -18.7774,-16.21063 -18.5403,-6.1581 -37.4154,7.7182 -42.3812,31.15718 -1.8266,8.62173 -1.8283,12.13914 -0.01,20.71932 1.9493,9.2 5.4733,16.57749 10.5488,22.08374 10.0895,10.94581 22.3577,14.04161 34.4491,8.693 z"
         id="path3507"
         inkscape:connector-curvature="0" /><path
         style="fill:#000000"
         d="m -1288.7207,811.44554 c -8.0652,-2.61833 -13.5986,-7.82715 -17.6525,-16.61694 -3.6279,-7.86633 -4.5315,-23.28416 -1.8554,-31.66047 10.8114,-33.84046 48.2034,-26.23593 50.2823,10.22608 1.183,20.7472 -8.8688,36.8279 -24.0148,38.41841 -2.3392,0.24565 -5.3811,0.0805 -6.7596,-0.36708 z"
         id="path3505"
         inkscape:connector-curvature="0" /><path
         style="fill:#ffffff"
         d="m -1275.6504,807.5786 c 10.6156,-5.38373 16.5033,-17.76699 15.7411,-33.10717 -1.4063,-28.29999 -26.3697,-41.49217 -40.7593,-21.53958 -5.0431,6.99284 -7.0457,13.48127 -7.0457,22.82844 0,17.70211 7.1479,29.72648 19.9936,33.63397 4.3653,1.32789 6.507,1.00573 12.0703,-1.81566 z"
         id="path3503"
         inkscape:connector-curvature="0" /><path
         style="fill:#000000"
         d="m -912.83199,820.94802 c -23.81221,-8.5093 -34.23931,-42.5935 -21.18578,-69.25228 3.51844,-7.18561 10.82345,-14.49339 18.02065,-18.02752 8.08873,-3.9719 18.22703,-4.02126 26.55277,-0.12927 26.14917,12.22384 32.2359,55.22928 11.02609,77.90428 -2.49465,2.66698 -7.25367,6.20723 -10.57559,7.86722 -5.06,2.52851 -7.19014,3.01103 -13.13014,2.97426 -3.89966,-0.0241 -8.71825,-0.62565 -10.708,-1.33669 z"
         id="path3501"
         inkscape:connector-curvature="0" /><path
         style="fill:#000000"
         d="m -890.22291,816.87663 c 14.95538,-7.31699 24.35311,-27.7086 21.6333,-46.94093 -2.85606,-20.19582 -15.74904,-35.08482 -31.47442,-36.3471 -8.86824,-0.71186 -15.1929,1.55537 -22.19764,7.95731 -9.93857,9.0833 -14.46087,19.92555 -14.44073,34.62178 0.0239,17.44375 5.94822,30.22124 17.78955,38.36829 9.23168,6.35157 18.8826,7.13893 28.68994,2.34065 z"
         id="path3499"
         inkscape:connector-curvature="0" /><path
         style="fill:#000000"
         d="m -908.9663,810.95461 c -12.42971,-4.61051 -19.74797,-17.28525 -19.74797,-34.20218 0,-12.69201 2.75931,-20.34314 9.91844,-27.50227 10.82797,-10.82797 22.66839,-10.66312 32.88009,0.45779 18.48977,20.13604 8.98972,59.3782 -15.04533,62.14821 -2.41579,0.27842 -5.8741,-0.11106 -8.00523,-0.90155 z"
         id="path3497"
         inkscape:connector-curvature="0" /><path
         style="fill:#ffffff"
         d="m -893.28953,807.03137 c 8.61253,-4.76445 14.79791,-17.09289 14.90237,-29.70277 0.0767,-9.25611 -2.26268,-17.458 -6.58573,-23.08979 -9.74362,-12.69336 -20.30139,-14.33106 -31.10154,-4.82438 -6.85631,6.03516 -9.84547,13.21131 -10.42349,25.02394 -0.8257,16.874 4.84753,28.31711 16.78365,33.85326 5.32846,2.47143 10.37974,2.08384 16.42474,-1.26026 z"
         id="path3495"
         inkscape:connector-curvature="0" /></g></g></svg>
