<?xml version="1.0" encoding="UTF-8" standalone="no"?>
<!-- Generator: Adobe Illustrator 19.0.0, SVG Export Plug-In . SVG Version: 6.00 Build 0)  -->

<svg
   xmlns:dc="http://purl.org/dc/elements/1.1/"
   xmlns:cc="http://creativecommons.org/ns#"
   xmlns:rdf="http://www.w3.org/1999/02/22-rdf-syntax-ns#"
   xmlns:svg="http://www.w3.org/2000/svg"
   xmlns="http://www.w3.org/2000/svg"
   xmlns:sodipodi="http://sodipodi.sourceforge.net/DTD/sodipodi-0.dtd"
   xmlns:inkscape="http://www.inkscape.org/namespaces/inkscape"
   version="1.1"
   id="svg2"
   sodipodi:docname="toyo.svg"
   inkscape:version="0.91pre3 r13670"
   x="0px"
   y="0px"
   viewBox="-922 373.4 735 105"
   style="enable-background:new -922 373.4 735 105;"
   xml:space="preserve"><metadata
     id="metadata3374"><rdf:RDF><cc:Work
         rdf:about=""><dc:format>image/svg+xml</dc:format><dc:type
           rdf:resource="http://purl.org/dc/dcmitype/StillImage" /><dc:title></dc:title></cc:Work></rdf:RDF></metadata><defs
     id="defs3372" /><style
     type="text/css"
     id="style3337">
	.st0{fill:#009E05;}
	.st1{fill:#0035FF;}
</style><sodipodi:namedview
     units="px"
     showgrid="false"
     inkscape:cy="2.1687866"
     inkscape:cx="254.37145"
     inkscape:zoom="0.7"
     borderopacity="1.0"
     bordercolor="#666666"
     pagecolor="#ffffff"
     id="base"
     inkscape:window-maximized="1"
     inkscape:window-y="-8"
     inkscape:current-layer="svg2"
     inkscape:document-units="px"
     inkscape:pageopacity="0.0"
     inkscape:window-height="715"
     inkscape:window-x="-8"
     inkscape:window-width="1366"
     inkscape:pageshadow="2" /><path
     style="fill:#0062ad;fill-opacity:1"
     d="m -828.78145,463.32638 c -1.05784,-0.26938 -3.5265,-0.90108 -5.4859,-1.40376 -4.72409,-1.21197 -9.28708,-5.17785 -11.45908,-9.95951 -3.8416,-8.45713 -1.2082,-26.82094 5.97777,-41.68544 8.50748,-17.59819 18.4368,-22.30246 47.02997,-22.28168 21.07844,0.0153 31.14579,3.23801 36.01664,11.52943 2.82027,4.80082 2.68568,18.73901 -0.28312,29.31774 -3.14182,11.19529 -9.19726,22.92232 -13.92666,26.97051 -7.05992,6.04302 -13.62295,7.4456 -36.23196,7.74309 -10.84287,0.14268 -20.57982,0.0389 -21.63766,-0.23038 z m 32.21607,-20.34703 c 5.59475,-4.00344 11.0261,-20.43293 8.65068,-26.16771 -1.60017,-3.86314 -4.06881,-5.07254 -10.35416,-5.07254 -8.45464,0 -12.67915,4.84225 -16.25254,18.62915 -1.42112,5.48301 -1.46588,6.75758 -0.33327,9.49193 0.77624,1.87402 2.51238,3.70393 4.26916,4.49974 3.68989,1.67152 10.72267,0.97899 14.02013,-1.38057 z m 141.84688,20.29952 c -10.15639,-2.33546 -14.04556,-4.93262 -16.94502,-11.31576 -3.70986,-8.16724 -1.32768,-26.05668 5.41227,-40.64442 4.6669,-10.10089 8.91122,-14.96058 16.12585,-18.46389 7.61299,-3.69674 15.21601,-4.87062 31.46966,-4.85881 21.02754,0.0153 30.61535,3.02583 35.70391,11.21096 6.18724,9.9524 -0.36483,40.84462 -11.48894,54.169 -6.5291,7.82051 -17.48717,10.57553 -41.52509,10.44005 -9.25611,-0.0522 -17.6948,-0.29389 -18.75264,-0.53713 z m 32.21607,-20.34805 c 3.13439,-2.17961 7.41535,-10.78664 8.65665,-17.40451 1.16118,-6.19062 -0.0418,-11.02831 -3.15711,-12.69554 -3.42186,-1.83132 -12.00831,-1.35774 -14.94335,0.82419 -3.31435,2.46392 -7.31135,10.44564 -8.84143,17.65572 -1.49071,7.02451 -0.1755,11.04433 4.26511,13.03592 3.64193,1.63337 10.65349,0.92534 14.02013,-1.41578 z m 348.35964,19.61664 c -5.4251,-0.64957 -10.05236,-1.36955 -10.28279,-1.59998 -0.23043,-0.23042 0.56752,-4.30252 1.77321,-9.04909 1.84586,-7.26677 2.48281,-8.60096 4.03192,-8.4455 1.01185,0.10154 9.41291,0.67706 18.66902,1.27893 19.19174,1.24793 24.24636,0.48722 24.84452,-3.73903 0.17701,-1.25064 -0.14366,-2.73939 -0.71261,-3.30834 -0.57233,-0.57234 -6.94547,-1.30217 -14.26611,-1.63372 -20.76686,-0.94052 -24.73755,-3.88307 -24.00056,-17.78598 0.47807,-9.01855 2.73126,-14.84602 7.99142,-20.66838 6.97874,-7.72463 14.23489,-9.60533 37.10494,-9.61709 14.80608,-0.008 38.28918,1.60902 39.41968,2.71372 0.36295,0.35469 -0.71893,5.50785 -2.40418,11.45148 -2.35455,8.30408 -3.39817,10.70787 -4.50663,10.38021 -0.79338,-0.23451 -7.69017,-0.90762 -15.32619,-1.49579 -14.70038,-1.13231 -22.23998,-0.67047 -25.78536,1.57949 -2.35761,1.49618 -2.87518,4.62128 -0.96168,5.80673 0.66116,0.4096 7.47702,1.00228 15.14637,1.31706 15.60573,0.64053 19.06876,1.73911 21.73498,6.89501 1.19901,2.31862 1.46921,4.82322 1.13786,10.54715 -0.82275,14.2126 -7.9491,23.12897 -20.50023,25.6496 -7.19584,1.44513 -40.16209,1.27351 -53.10758,-0.27648 z m -631.50574,-24.32798 c 3.3864,-13.09078 6.1632,-23.90961 6.1706,-24.04185 0.01,-0.13222 -4.5809,-0.24042 -10.1962,-0.24042 -10.1162,0 -10.2046,-0.0199 -9.638,-2.16376 0.3145,-1.19007 1.7285,-6.59949 3.1423,-12.02092 l 2.5704,-9.85716 36.3213,0 36.32114,0 -3.12004,11.7805 -3.12,11.78051 -10.4219,0.48083 -10.4219,0.48084 -3.6383,13.94427 c -2.0011,7.66935 -4.8001,18.37999 -6.22,23.80142 l -2.5816,9.85716 -15.6624,0 -15.6624,0 6.157,-23.80142 z m 157.16684,23.26939 c 0,-0.2926 2.38014,-3.75045 5.2892,-7.68409 2.90906,-3.93363 5.28921,-7.84008 5.28921,-8.68098 0,-1.16789 -11.26859,-44.08788 -14.05831,-53.5455 -0.45949,-1.55777 0.76008,-1.68293 16.39768,-1.68293 9.29176,0 16.89459,0.32457 16.89519,0.72125 0.003,2.0159 3.86896,30.39623 4.18338,30.71063 0.20154,0.20155 4.47656,-6.67998 9.50001,-15.29229 l 9.13356,-15.65875 18.05781,-0.26214 c 14.49982,-0.21049 17.87222,-0.021 17.11586,0.96167 -0.51806,0.6731 -12.32071,16.91112 -26.2281,36.08449 l -25.28617,34.86067 -18.14466,0 c -9.97956,0 -18.14466,-0.23941 -18.14466,-0.53203 z m 196.57691,-1.1509 c 0.28878,-0.92561 2.93398,-10.98712 5.87821,-22.35891 2.94423,-11.3718 5.57916,-21.4333 5.85541,-22.35892 0.45614,-1.52831 -0.43141,-1.68293 -9.66009,-1.68293 -5.58932,0 -10.16239,-0.27184 -10.16239,-0.60409 0,-0.33225 1.36602,-5.74167 3.03561,-12.02092 l 3.0356,-11.41683 36.33176,0 36.33175,0 -1.89803,6.97213 c -1.04392,3.83468 -2.53884,9.22953 -3.32205,11.98857 l -1.42403,5.01643 -10.22163,0.27277 -10.22164,0.27278 -1.22868,4.32753 c -0.67578,2.38014 -3.48607,13.09079 -6.24512,23.80143 l -5.01644,19.47389 -15.79666,0 c -14.60335,0 -15.75699,-0.12713 -15.27159,-1.68293 z m 62.7315,-21.15682 c 3.34014,-12.56186 7.65754,-28.7901 9.59422,-36.06277 l 3.52122,-13.22301 15.25169,0 c 8.38842,0 15.25169,0.32591 15.25169,0.72424 0,0.62166 -17.41011,65.02167 -18.84789,69.71836 -0.46221,1.50986 -2.07469,1.68293 -15.67955,1.68293 l -15.16437,0 6.07299,-22.83975 z m 30.51938,21.15682 c 0.27148,-0.92561 4.69738,-17.15385 9.83533,-36.06276 l 9.34174,-34.37984 33.05484,0 c 35.21602,0 37.10617,0.21942 41.16729,4.77898 1.65641,1.85971 1.92218,3.51308 1.91495,11.91323 -0.007,8.13576 -0.35133,10.39195 -2.07569,13.60051 -4.32094,8.04013 -10.9793,12.02092 -20.10641,12.02092 -4.43592,0 -5.32179,0.26372 -4.867,1.44889 0.3058,0.79688 4.67962,7.25664 9.71963,14.35503 5.04,7.09838 9.16364,13.15407 9.16364,13.45705 0,0.30301 -7.95743,0.55092 -17.68318,0.55092 l -17.68318,0 -7.07992,-12.00039 c -3.89396,-6.60022 -7.35311,-12.00963 -7.68701,-12.02092 -0.3339,-0.0113 -1.11199,2.03505 -1.72909,4.54742 -0.61709,2.51237 -2.01413,7.92179 -3.10453,12.02092 l -1.98255,7.45297 -15.34624,0 c -14.16237,0 -15.30815,-0.12983 -14.85262,-1.68293 z m 61.57355,-37.65907 c 3.3055,-3.10761 4.24661,-8.19776 1.97896,-10.70349 -1.45933,-1.61254 -2.98745,-1.88489 -10.57574,-1.88489 l -8.86994,0 -1.55943,6.2081 c -2.49128,9.91781 -2.9097,9.414 7.50078,9.03109 7.999,-0.29421 9.34895,-0.6047 11.52537,-2.65081 z m 30.38314,38.67764 c 0,-0.64007 16.84601,-66.34843 17.88943,-69.77824 0.4762,-1.56531 3.13591,-1.68293 38.05534,-1.68293 33.32695,0 37.47986,0.16548 36.97795,1.47343 -0.31097,0.81039 -1.24898,4.16422 -2.08447,7.45297 -0.83548,3.28875 -1.9401,7.59428 -2.45472,9.56785 l -0.93567,3.5883 -21.74027,0.25839 -21.74028,0.25839 -1.20621,4.08712 -1.20622,4.08711 21.53621,0 c 11.84491,0 21.54174,0.32457 21.54853,0.72125 0.007,0.3967 -0.72148,3.85872 -1.61836,7.69339 l -1.63067,6.97214 -21.7813,0 -21.78132,0 -1.0165,3.31209 c -0.55908,1.82165 -0.77594,3.55266 -0.48191,3.84669 0.29402,0.29404 10.03352,0.53461 21.64331,0.53461 l 21.1087,0 -0.56676,2.16377 c -0.31172,1.19007 -1.30681,5.30123 -2.21134,9.1359 l -1.64459,6.97213 -37.32944,0 c -20.5312,0 -37.32944,-0.29896 -37.32944,-0.66436 z"
     id="path3565"
     inkscape:connector-curvature="0" /></svg>
