<?xml version="1.0" encoding="UTF-8" standalone="no"?>
<!-- Created with Inkscape (http://www.inkscape.org/) -->

<svg
   xmlns:dc="http://purl.org/dc/elements/1.1/"
   xmlns:cc="http://creativecommons.org/ns#"
   xmlns:rdf="http://www.w3.org/1999/02/22-rdf-syntax-ns#"
   xmlns:svg="http://www.w3.org/2000/svg"
   xmlns="http://www.w3.org/2000/svg"
   xmlns:sodipodi="http://sodipodi.sourceforge.net/DTD/sodipodi-0.dtd"
   xmlns:inkscape="http://www.inkscape.org/namespaces/inkscape"
   width="735"
   height="105"
   viewBox="0 0 735 105"
   id="svg2"
   version="1.1"
   inkscape:version="0.91pre3 r13670"
   sodipodi:docname="uniroyal.svg">
  <defs
     id="defs4" />
  <sodipodi:namedview
     id="base"
     pagecolor="#ffffff"
     bordercolor="#666666"
     borderopacity="1.0"
     inkscape:pageopacity="0.0"
     inkscape:pageshadow="2"
     inkscape:zoom="0.24748737"
     inkscape:cx="122.94975"
     inkscape:cy="1025.3947"
     inkscape:document-units="px"
     inkscape:current-layer="layer1"
     showgrid="false"
     units="px"
     inkscape:window-width="1366"
     inkscape:window-height="715"
     inkscape:window-x="-8"
     inkscape:window-y="-8"
     inkscape:window-maximized="1" />
  <metadata
     id="metadata7">
    <rdf:RDF>
      <cc:Work
         rdf:about="">
        <dc:format>image/svg+xml</dc:format>
        <dc:type
           rdf:resource="http://purl.org/dc/dcmitype/StillImage" />
        <dc:title></dc:title>
      </cc:Work>
    </rdf:RDF>
  </metadata>
  <g
     inkscape:label="Layer 1"
     inkscape:groupmode="layer"
     id="layer1"
     transform="translate(0,-947.36216)">
    <g
       id="g3390"
       transform="matrix(0.31863424,0,0,0.31863424,333.37464,940.82495)">
      <path
         id="path3383"
         d="m -1038.4152,330.62947 c 0,-0.47596 7.6425,-19.55647 16.9834,-42.40115 9.3409,-22.84466 18.3635,-44.91075 20.0502,-49.03575 1.6868,-4.125 11.51272,-28.17188 21.83541,-53.4375 51.34527,-125.671754 59.44829,-145.365494 60.07958,-146.018684 0.37538,-0.38839 64.18483,-0.59933 141.79878,-0.46875 l 141.11627,0.23743 -5.38108,12.1875 c -2.9596,6.70312 -16.0274,36.44531 -29.03955,66.093754 -60.4294,137.68953 -87.18759,198.58987 -90.92851,206.94885 l -3.03991,6.79261 -136.73729,-0.0165 c -82.9246,-0.01 -136.7373,-0.357 -136.7373,-0.88181 z"
         style="fill:#e62329;fill-opacity:1"
         inkscape:connector-curvature="0" />
      <path
         id="path3381"
         d="m 850.59454,329.41663 c 1.2514,-3.16294 4.9399,-12.19713 34.732,-85.06781 36.2667,-88.70745 54.4952,-133.29929 70.606,-172.721164 l 13.3085,-32.56492 141.68596,-0.0132 141.6859,-0.0132 -13.358,30.23437 c -7.3469,16.62891 -28.644,65.039064 -47.3269,107.578134 -18.6829,42.53906 -34.7194,79.03125 -35.6367,81.09375 -0.9174,2.0625 -8.3293,18.9375 -16.4709,37.5 -8.1418,18.5625 -15.1916,34.26096 -15.6664,34.88548 -0.6688,0.87963 -31.6797,1.14135 -137.62666,1.16156 l -136.7633,0.0261 0.8305,-2.09906 z"
         style="fill:#e62329;fill-opacity:1"
         inkscape:connector-curvature="0" />
      <path
         id="path3379"
         d="m -627.32145,323.11023 c -29.61231,-4.16655 -45.05228,-16.63167 -47.04597,-37.98152 -1.20299,-12.8826 1.6331,-20.93147 47.07257,-133.5924 13.20589,-32.74218 26.16334,-64.910154 28.79434,-71.484374 l 4.78364,-11.95313 37.81966,0 37.81967,0 -1.48435,3.51563 c -1.79773,4.25787 -1.32579,3.11273 -43.56353,105.703124 -18.68145,45.375 -34.75625,84.7809 -35.72178,87.56865 -2.55395,7.374 -2.34707,13.64376 0.54564,16.53646 2.08548,2.08549 3.05474,2.30115 10.3426,2.30115 16.13964,0 21.42035,-5.04353 32.44102,-30.98391 8.14193,-19.16443 36.71367,-88.20667 58.07862,-140.34422 l 18.15199,-44.296874 35.07666,0 c 32.95654,0 35.04886,0.0992 34.61674,1.64062 -0.90844,3.24065 -77.58209,194.391994 -79.34886,197.820804 -3.1953,6.20116 -10.91665,16.46045 -17.20821,22.8644 -15.08242,15.35184 -37.73513,26.7759 -62.10795,31.32187 -9.59533,1.7897 -49.48852,2.71082 -59.0625,1.36372 z"
         style="fill:#313035;fill-opacity:1"
         inkscape:connector-curvature="0" />
      <path
         id="path3377"
         transform="translate(0,947.36216)"
         d="m 265.03711,-883.00781 c -28.07109,-0.009 -46.01153,3.68816 -65.67578,13.5332 -19.78144,9.9037 -35.9533,25.22754 -44.58008,42.24219 -5.39794,10.6466 -51.05403,124.22053 -56.609375,140.82226 -6.02362,18.00142 -5.322169,32.10513 2.142575,43.11133 6.78497,10.00388 19.6723,16.42116 38.27539,19.0586 3.10819,0.44064 14.93164,0.65357 26.27539,0.47265 27.57469,-0.4398 45.72695,-3.88846 64.86133,-12.32226 22.185,-9.77836 41.42191,-27.92694 50.65235,-47.78516 7.14872,-15.37961 49.43991,-120.92588 54.44531,-135.87891 7.79175,-23.27682 6.33676,-36.69627 -5.14649,-47.4375 -11.64824,-10.89552 -31.71721,-15.8063 -64.64062,-15.8164 z m -14.71875,38.49609 c 1.15112,0.0247 2.5223,0.11557 4.26562,0.25 4.1716,0.32169 8.54132,1.21217 9.71094,1.97852 4.63088,3.03428 3.82174,10.64024 -3.0957,29.08593 -5.2936,14.11557 -26.5375,65.06617 -41.05469,98.46485 -6.05138,13.92188 -12.19519,28.44202 -13.65234,32.26758 -3.414,8.96281 -6.7342,13.07188 -13.07227,16.17187 -5.93822,2.90439 -11.4773,3.68336 -18.68554,2.625 -10.55822,-1.55024 -11.06167,-7.82834 -2.40235,-29.9707 10.36462,-26.50264 52.57049,-130.46931 54.44727,-134.1211 2.48859,-4.84208 9.95814,-12.06606 15.05664,-14.56054 3.56006,-1.74179 5.02907,-2.2654 8.48242,-2.19141 z"
         style="fill:#313035;fill-opacity:1"
         inkscape:connector-curvature="0" />
      <path
         id="path3373"
         d="m -478.7277,317.97868 c 0,-0.3987 6.77257,-17.13589 38.70848,-95.66114 3.35524,-8.25 8.50633,-20.90625 11.44685,-28.125 6.70382,-16.45733 50.18695,-123.334744 50.82452,-124.921884 0.64578,-1.60756 98.70765,-1.72709 98.70765,-0.12032 0,0.57836 -0.61855,5.32446 -1.37455,10.54688 -2.36037,16.30527 -11.43316,80.817794 -17.35471,123.401574 -3.11899,22.42968 -5.90602,41.83593 -6.19341,43.125 -1.3975,6.26855 2.67078,-3.10513 20.14085,-46.40625 10.40158,-25.78125 26.59595,-65.85938 35.98751,-89.0625 l 17.07556,-42.187504 28.35937,-0.24812 c 15.66215,-0.13704 28.35938,0.11732 28.35938,0.56809 0,0.44893 -3.10602,8.36527 -6.90227,17.59188 -6.40404,15.564744 -20.45121,50.108734 -73.53711,180.838154 l -20.55752,50.625 -46.14049,0.24325 -46.14049,0.24325 0.54141,-2.587 c 0.29778,-1.42286 0.95221,-5.54013 1.45431,-9.1495 0.50208,-3.60938 6.80925,-47.48438 14.01591,-97.5 15.75595,-109.349184 14.50484,-100.00065 12.98983,-97.06297 -0.65578,1.2716 -19.98028,48.09972 -42.94333,104.0625 l -41.751,101.7505 -27.85837,0.24832 c -15.32211,0.13658 -27.85838,0.0411 -27.85838,-0.21218 z"
         style="fill:#313035;fill-opacity:1"
         inkscape:connector-curvature="0" />
      <path
         id="path3371"
         d="m -244.3527,317.80194 c 0,-0.34712 10.38318,-26.19186 23.07373,-57.43276 12.69054,-31.2409 34.46746,-84.85633 48.39313,-119.14539 13.92567,-34.28907 26.28592,-64.664074 27.46721,-67.500004 l 2.1478,-5.15625 37.03438,-0.24507 37.034443,-0.24506 -10.57641,26.02631 c -5.817,14.314474 -12.99591,31.932574 -15.95297,39.151324 -2.95715,7.21875 -9.314443,22.82812 -14.127213,34.6875 -4.81283,11.85937 -20.50564,50.46093 -34.87292,85.78125 l -26.12234,64.21875 -36.74942,0.24525 c -20.21218,0.13489 -36.74942,-0.0387 -36.74942,-0.38585 z"
         style="fill:#313035;fill-opacity:1"
         inkscape:connector-curvature="0" />
      <path
         id="path3369"
         transform="translate(0,947.36216)"
         d="m -35.748047,-878.79492 -4.796875,11.71875 c -2.63738,6.44531 -17.976021,43.78125 -34.08789,82.96875 -16.111971,39.1875 -36.394418,88.54687 -45.070308,109.6875 -8.67591,21.14062 -16.44092,40.01953 -17.25586,41.95312 l -1.48047,3.51563 36.375,0 36.37695,0 11.904297,-28.82813 c 6.5475,-15.85547 17.142452,-41.48437 23.544922,-56.95312 l 11.640625,-28.125 9.6523435,0.2793 c 14.75353,0.4252 19.3300465,3.60257 20.2480465,14.05859 0.45094,5.13615 -0.04307,6.64415 -12.3476559,37.69336 -7.04963,17.78906 -13.4201301,34.64752 -14.1562501,37.46289 -0.74128,2.83488 -1.339844,9.42312 -1.339844,14.76562 l 0,9.64649 37.146485,0 c 33.12422,0 37.019163,-0.15354 35.964843,-1.42383 -1.989749,-2.39753 -0.73773,-21.5523 1.72461,-26.37891 3.26907,-6.40794 15.574985,-35.6244 20.166016,-47.8789 13.200749,-35.236 12.003651,-46.39497 -5.824219,-54.2793 -4.08956,-1.80861 -17.631917,-4.61534 -24.716797,-5.12305 -0.6479,-0.0464 3.79273,-1.10255 9.86914,-2.3457 25.290941,-5.17419 39.828721,-12.83991 51.742188,-27.2832 8.5216,-10.33113 16.28908,-28.12945 19.76758,-45.29688 1.22025,-6.02198 1.3019,-8.35816 0.43359,-12.54101 -2.52656,-12.17037 -12.87523,-20.412 -31.630858,-25.19336 -8.12625,-2.0716 -9.072438,-2.09961 -71.042968,-2.09961 l -62.806641,0 z m 59.300781,34.07812 c 4.032272,-0.0993 17.876713,2.30036 21.691407,3.94141 9.06094,3.8979 9.407603,6.55591 3.283203,25.23437 -4.62497,14.1055 -9.22089,22.46974 -14.59961,26.57227 -5.62406,4.28966 -15.051651,8.10176 -22.394531,9.05469 -7.32674,0.95084 -14.9492186,1.239 -14.9492186,0.5664 0,-0.61707 25.4742906,-64.70901 25.9003906,-65.16406 0.117667,-0.12567 0.492321,-0.19089 1.068359,-0.20508 z"
         style="fill:#313035;fill-opacity:1"
         inkscape:connector-curvature="0" />
      <path
         id="path3365"
         d="m 320.12439,313.95819 c 1.05066,-2.44922 9.50953,-22.97023 18.79725,-45.60224 l 16.88691,-41.14913 1.03603,-79.554 1.03594,-79.554004 35.89125,0 35.89116,0 -0.46022,2.57812 c -1.26282,7.07484 -12.61435,94.463834 -12.36694,95.206064 0.15769,0.47303 5.71228,-7.09661 12.34359,-16.82144 6.63122,-9.72482 21.75141,-31.91978 33.60038,-49.322124 l 21.54356,-31.64062 34.56825,0 c 19.0125,0 34.56825,0.23445 34.56825,0.52102 0,0.28657 -28.10859,36.107014 -62.46347,79.601004 l -62.46347,79.07997 -18.75309,45.55525 -18.753,45.55526 -36.40641,0 -36.4064,0 1.91043,-4.45313 z"
         style="fill:#313035;fill-opacity:1"
         inkscape:connector-curvature="0" />
      <path
         id="path3363"
         transform="translate(0,947.36216)"
         d="m 657.02344,-879.08398 c -5.9595,-0.002 -12.50205,0.0135 -19.35742,0.0469 l -49.85743,0.24219 -8.36914,13.59375 c -4.60313,7.47656 -16.91608,27.51562 -27.36133,44.53125 -10.44524,17.01562 -38.94041,63.42187 -63.32226,103.125 -24.38184,39.70312 -46.58113,75.88554 -49.33203,80.4043 l -5.00195,8.21484 30.54296,-0.2461 30.54493,-0.24804 18.34179,-30.23438 18.3418,-30.23437 19.93555,0 19.93554,0 -1.79883,6.32812 c -0.98971,3.48047 -4.89676,17.19141 -8.68164,30.46875 l -6.88086,24.14063 36.41016,0 c 20.02528,0 36.4082,-0.13538 36.4082,-0.30078 0,-0.16539 2.74777,-11.6615 6.10547,-25.54688 8.0874,-33.44518 19.18382,-79.42297 25.32422,-104.93359 2.7306,-11.34375 10.27568,-42.60676 16.76758,-69.47461 6.4919,-26.86788 11.80273,-49.12701 11.80273,-49.46289 0,-0.25191 -12.61956,-0.40803 -30.49804,-0.41406 z m -44.66992,41.52734 c 0.17062,0.17067 -6.53958,25.02943 -14.91211,55.24023 l -15.22266,54.92774 -13.47461,0 -13.47656,0 14.80078,-28.82813 c 35.10122,-68.37467 41.9921,-81.63292 42.28516,-81.33984 z"
         style="fill:#313035;fill-opacity:1"
         inkscape:connector-curvature="0" />
      <path
         id="path3359"
         d="m 650.95984,317.94339 c 0,-0.26346 20.2827,-50.57454 45.0727,-111.80242 24.79,-61.22787 47.4658,-117.332074 50.3906,-124.675984 l 5.3179,-13.35259 36.8299,-0.007 c 34.7772,-0.007 36.7823,0.0846 35.9768,1.63383 -0.4692,0.90234 -7.0683,16.82812 -14.6648,35.390624 -16.5963,40.55405 -40.9369,99.95306 -58.7179,143.29088 -7.1598,17.4506 -13.0177,31.89982 -13.0177,32.10937 0,0.20955 17.5078,0.381 38.9062,0.381 31.0361,0 38.9063,0.24334 38.9063,1.20296 0,0.66162 -3.1356,8.99366 -6.9679,18.51563 l -6.9678,17.31266 -75.5322,0.23992 c -41.5427,0.13173 -75.5321,0.0241 -75.5321,-0.23932 z"
         style="fill:#313035;fill-opacity:1"
         inkscape:connector-curvature="0" />
      <path
         id="path3357"
         transform="translate(0,947.36216)"
         d="m 860.0918,-879.89453 c -4.27628,-0.0284 -8.70672,1.053 -12.91602,3.45703 -10.1251,5.78268 -14.54994,17.59564 -11.08984,29.59961 1.2674,4.39691 2.60001,6.5193 6.44531,10.26367 2.6666,2.5966 6.32225,5.19025 8.12305,5.76367 1.8007,0.57341 6.07449,1.08598 9.49609,1.13867 7.7868,0.11981 14.73683,-3.16468 19.26953,-9.10742 3.6704,-4.81229 4.97289,-9.14601 4.96289,-16.57812 -0.01,-14.37244 -11.46218,-24.45199 -24.29101,-24.53711 z m -0.77149,4.5 c 4.98767,-0.16441 10.01438,1.43604 13.67188,4.84765 9.4803,8.84315 8.01481,27.0618 -2.70899,33.68555 -10.7604,6.64639 -24.5838,2.06959 -28.5039,-9.43555 -2.8378,-8.32827 -1.16139,-17.86941 4.10351,-23.35546 3.50045,-3.64756 8.44984,-5.57779 13.4375,-5.74219 z"
         style="fill:#313035;fill-opacity:1"
         inkscape:connector-curvature="0" />
      <path
         id="path3353"
         transform="translate(0,947.36216)"
         d="m 850.64648,-868.19922 0,14.1543 c 0,13.53078 0.0827,14.15625 1.875,14.15625 1.6827,0 1.875,-0.62501 1.875,-6.09375 0,-6.0271 0.0282,-6.09397 2.57813,-6.07617 2.1748,0.0151 3.13376,0.96839 6.13086,6.09375 2.846,4.86686 4.01383,6.07617 5.86133,6.07617 1.2686,0 2.30468,-0.20337 2.30468,-0.45117 0,-0.2478 -1.47655,-2.75695 -3.28125,-5.57813 -3.5782,-5.59373 -3.9876,-7.0957 -1.9414,-7.0957 2.0262,0 5.22265,-4.6041 5.22265,-7.52149 0,-1.42022 -0.80571,-3.57959 -1.79101,-4.79687 -1.6011,-1.97791 -2.6976,-2.2482 -10.3125,-2.54102 l -8.52149,-0.32617 z m 3.75,3.93555 4.96875,0 c 2.7328,0 5.47495,0.50625 6.09375,1.125 1.7222,1.7223 1.3395,5.25698 -0.6875,6.34179 -2.0178,1.07989 -8.7761,1.31958 -9.75,0.34571 -0.3438,-0.34374 -0.625,-2.24218 -0.625,-4.21875 l 0,-3.59375 z"
         style="fill:#313035;fill-opacity:1"
         inkscape:connector-curvature="0" />
    </g>
  </g>
</svg>
