<?xml version="1.0" encoding="UTF-8" standalone="no"?>
<!-- Generator: Adobe Illustrator 19.0.0, SVG Export Plug-In . SVG Version: 6.00 Build 0)  -->

<svg
   xmlns:dc="http://purl.org/dc/elements/1.1/"
   xmlns:cc="http://creativecommons.org/ns#"
   xmlns:rdf="http://www.w3.org/1999/02/22-rdf-syntax-ns#"
   xmlns:svg="http://www.w3.org/2000/svg"
   xmlns="http://www.w3.org/2000/svg"
   xmlns:sodipodi="http://sodipodi.sourceforge.net/DTD/sodipodi-0.dtd"
   xmlns:inkscape="http://www.inkscape.org/namespaces/inkscape"
   version="1.1"
   id="svg2"
   sodipodi:docname="vredestein.svg"
   inkscape:version="0.91pre3 r13670"
   x="0px"
   y="0px"
   viewBox="-922 373.4 735 105"
   style="enable-background:new -922 373.4 735 105;"
   xml:space="preserve"><metadata
     id="metadata3374"><rdf:RDF><cc:Work
         rdf:about=""><dc:format>image/svg+xml</dc:format><dc:type
           rdf:resource="http://purl.org/dc/dcmitype/StillImage" /><dc:title></dc:title></cc:Work></rdf:RDF></metadata><defs
     id="defs3372" /><style
     type="text/css"
     id="style3337">
	.st0{fill:#009E05;}
	.st1{fill:#0035FF;}
</style><sodipodi:namedview
     units="px"
     showgrid="false"
     inkscape:cy="2.1687866"
     inkscape:cx="254.37145"
     inkscape:zoom="0.7"
     borderopacity="1.0"
     bordercolor="#666666"
     pagecolor="#ffffff"
     id="base"
     inkscape:window-maximized="1"
     inkscape:window-y="-8"
     inkscape:current-layer="svg2"
     inkscape:document-units="px"
     inkscape:pageopacity="0.0"
     inkscape:window-height="715"
     inkscape:window-x="-8"
     inkscape:window-width="1366"
     inkscape:pageshadow="2" /><g
     id="g3598"
     transform="matrix(0.3186963,0,0,0.3186963,-317.20678,317.11299)"><path
       id="path3596"
       d="m -1190.5778,489.25714 c -7.0833,-13.06034 -33.9808,-59.77841 -43.7563,-76 -4.8059,-7.975 -8.9412,-14.8375 -9.1896,-15.25 -0.2483,-0.4125 12.0626,-0.74837 27.3576,-0.74638 l 27.809,0.004 8.7149,17.24637 c 12.114,23.97269 28.9182,54.74601 29.8951,54.74601 1.4207,0 19.7232,-31.79418 32.4625,-56.39225 l 8.2305,-15.89225 22.3485,0.1768 c 12.2917,0.0972 24.9514,0.63385 28.1327,1.19246 24.148,4.24017 33.452,23.72784 18.3591,38.45369 -5.1071,4.98296 -10.8142,7.77245 -21.406,10.46276 -3.6199,0.91944 -4.1137,1.34033 -3.2742,2.79076 1.0583,1.82844 14.5909,16.697 32.6656,35.89047 l 11.1288,11.81756 -22.0051,-0.0276 -22.0051,-0.0276 -5.6237,-5.98373 c -3.093,-3.29102 -12.0361,-13.6007 -19.8736,-22.91036 -12.0579,-14.32279 -14.25,-17.43615 -14.25,-20.23868 0,-3.19049 0.145,-3.31203 3.9508,-3.31203 9.9042,0 21.7328,-4.45844 26.333,-9.92543 6.115,-7.26735 6.0468,-16.97921 -0.1629,-23.18895 -3.7141,-3.71409 -7.8578,-5.36385 -16.2241,-6.45937 -4.0472,-0.52997 -4.526,-0.35114 -6.0217,2.249 -0.8937,1.55361 -9.2187,15.42499 -18.5,30.82528 -9.2813,15.40029 -20.6484,34.97529 -25.2602,43.5 l -8.385,15.49947 -18.4203,0 -18.4203,0 -4.61,-8.5 z"
       style="fill:#000000"
       inkscape:connector-curvature="0" /><path
       id="path3594"
       d="m -1017.0783,493.75714 c 0.9426,-5.22814 0.9392,-89.02266 0,-93.25 l -0.725,-3.25 50.22498,0 50.225,0 0,6.02556 0,6.02556 -30.58715,-0.68084 -30.58715,-0.68084 -0.66285,15.31427 c -0.36437,8.42285 -0.66265,17.78557 -0.66265,20.80604 l 0,5.49176 31,-0.5471 31,-0.54709 0,6.48424 0,6.48424 -3.75,-0.53531 c -2.0625,-0.29441 -15.9,-0.67147 -30.75,-0.83789 l -27,-0.3026 -0.30825,9.5 c -0.16954,5.225 -0.0193,11.4802 0.33383,13.90045 l 0.64209,4.40045 25.16616,-0.67052 c 13.8414,-0.36878 27.64117,-0.93188 30.66617,-1.25133 l 5.5,-0.58081 0,6.36605 0,6.36605 -50.2212,-0.0152 -50.22118,-0.0152 0.7212,-4 z"
       style="fill:#000000"
       inkscape:connector-curvature="0" /><path
       id="path3592"
       d="m -904.35712,447.44492 0,-50.31222 38.5,0.35014 c 37.03902,0.33686 38.76563,0.4378 45.5,2.65992 10.69855,3.53018 17.869,7.77202 23.99563,14.19515 18.33349,19.22075 17.3667,48.65784 -2.19917,66.96075 -11.4785,10.73757 -24.87549,15.75392 -44.54646,16.6799 -10.44083,0.49149 -11.75,0.37069 -11.75,-1.08415 0,-1.04558 0.83789,-1.63727 2.3185,-1.63727 13.38455,0 30.44349,-15.11282 36.40334,-32.25036 2.13445,-6.13761 2.43854,-8.49645 2.09048,-16.21601 -0.51195,-11.35442 -3.43549,-18.19025 -11.3106,-26.44648 -9.35709,-9.80993 -22.09449,-15.04016 -36.70641,-15.07237 l -6.70468,-0.0148 -0.70136,3.73853 c -0.77352,4.12322 0.22486,70.62369 1.22749,81.76147 l 0.63015,7 -18.37346,0 -18.37345,0 0,-50.31222 z"
       style="fill:#000000"
       inkscape:connector-curvature="0" /><path
       id="path3590"
       d="m -774.03232,494.75714 c 0.91105,-4.04792 0.86556,-90.14665 -0.0498,-94.25 l -0.725,-3.25 48.225,0 48.225,0 0,6.03907 0,6.03907 -30.59155,-0.69206 -30.59156,-0.69207 -0.65844,6.29969 c -0.36215,3.46482 -0.65845,12.82813 -0.65845,20.80733 l 0,14.50766 31,-0.57001 31,-0.57 0,6.4244 0,6.42439 -5.25,-0.47985 c -2.8875,-0.26392 -16.85066,-0.73242 -31.02925,-1.04111 l -25.77925,-0.56125 0.27925,13.28237 0.27925,13.28237 52.03438,0 c 48.7618,0 52.29616,-0.1181 56.19673,-1.87785 6.35966,-2.86918 8.90536,-9.55688 5.87127,-15.42417 -2.1627,-4.18219 -4.17851,-5.58167 -17.60238,-12.22044 -15.00196,-7.41922 -18.15715,-9.68319 -21.5402,-15.45593 -2.05416,-3.50516 -2.57882,-5.70508 -2.55569,-10.71612 0.0656,-14.2144 6.12578,-22.65055 20.04804,-27.90815 11.98637,-4.52653 18.48223,-4.88949 87.58004,-4.89353 l 65.0322,-0.004 0.0769,5.3178 0.0769,5.31781 -16.28196,-0.44557 c -8.95507,-0.24506 -17.49381,-0.1414 -18.97497,0.23035 l -2.69302,0.6759 0.4621,43.20185 c 0.25416,23.76103 0.76129,43.87686 1.12697,44.70186 0.57691,1.30156 -1.6532,1.5 -16.85724,1.5 -15.20809,0 -17.4331,-0.19809 -16.84813,-1.5 0.37069,-0.825 0.87493,-20.918 1.12053,-44.65111 l 0.44654,-43.15111 -8.35947,-0.68194 c -4.59778,-0.37487 -18.93454,-0.53187 -31.85954,-0.34869 -20.01077,0.28359 -24.0262,0.59528 -27.04394,2.0992 -8.58832,4.28008 -9.19811,14.51974 -1.21454,20.39474 1.61505,1.18849 8.00914,4.70494 14.20908,7.81433 19.26653,9.66252 24.61852,16.5834 23.89555,30.90033 -0.32206,6.37779 -0.82846,8.13839 -3.38844,11.78081 -4.03847,5.74605 -9.441,9.32546 -18.45771,12.22906 -13.0109,4.18983 -22.44718,4.68961 -92.6752,4.9084 l -66.1752,0.20617 0.6752,-3 z"
       style="fill:#000000"
       inkscape:connector-curvature="0" /><path
       id="path3588"
       d="m -484.35712,447.50719 0,-50.24994 44.51667,-6e-5 44.51666,-5e-5 0,6.02709 0,6.0271 -29.26666,-0.68549 -29.26667,-0.68548 0,20.80878 0,20.80878 29,-0.54607 29,-0.54607 0,6.47514 0,6.47513 -2.75,-0.51519 c -1.5125,-0.28335 -14.675,-0.6566 -29.25,-0.82945 l -26.5,-0.31427 -0.32405,6.5 c -0.17823,3.575 -0.021,9.8302 0.34942,13.90045 l 0.67347,7.40045 24.15058,-0.68977 c 13.28282,-0.37938 26.42871,-0.94913 29.21308,-1.2661 l 5.0625,-0.57632 0,6.38342 0,6.38341 -44.5625,-0.0178 -44.5625,-0.0177 0,-50.24995 z"
       style="fill:#000000"
       inkscape:connector-curvature="0" /><path
       id="path3586"
       d="m -381.10936,491.25714 c 0.98197,-8.48505 0.97664,-80.7994 -0.006,-88.25 l -0.75873,-5.75 14.25873,5e-5 14.25874,5e-5 0,50.24995 0,50.24995 -14.25224,0 -14.25223,0 0.75223,-6.5 z"
       style="fill:#000000"
       inkscape:connector-curvature="0" /><path
       id="path3584"
       d="m -338.68865,492.75903 c 1.88642,-11.92366 3.00735,-45.18633 2.35059,-69.75189 l -0.68841,-25.75 8.33467,0.0463 8.33468,0.0463 28.5,34.41764 c 15.675,18.9297 28.8375,34.43388 29.25,34.45374 0.4125,0.0198 0.75,-15.48898 0.75,-34.46398 l 0,-34.5 8.1175,0 8.1175,0 -0.6518,7.25 c -1.0864,12.0859 -2.5333,54.06757 -2.559,74.25 l -0.024,19 -9.5894,0 -9.5894,0 -26.00439,-30.25105 c -14.30241,-16.63808 -26.41218,-29.99902 -26.9106,-29.69099 -0.50867,0.31438 -0.90649,13.5851 -0.90686,30.25106 l -6.4e-4,29.69098 -8.81079,0.002 -8.81079,0.002 0.79134,-5.00189 z"
       style="fill:#000000"
       inkscape:connector-curvature="0" /><path
       id="path3582"
       d="m -1089.4625,363.72469 c 22.1958,-19.5454 74.3156,-47.59876 121.3362,-65.30888 66.29279,-24.9689 129.97318,-39.13797 208.26918,-46.34049 18.79853,-1.72929 92.00748,-1.70976 111.96587,0.0299 l 15.46586,1.34805 88.03414,43.97955 c 88.36363,44.14416 132.86818,66.82363 132.28137,67.41044 -0.17329,0.1733 -5.24982,-1.26387 -11.28116,-3.1937 -80.85037,-25.86945 -164.66017,-42.75681 -247.46608,-49.86348 -55.85475,-4.79363 -120.59122,-4.79697 -175,-0.009 -81.99507,7.21553 -166.72248,25.71141 -238.44798,52.05289 l -9.052,3.3244 3.8946,-3.42963 z"
       style="fill:#0054a5;fill-opacity:1"
       inkscape:connector-curvature="0" /><path
       id="path3578"
       d="m -929.58596,268.27111 c 3.77422,-2.42295 44.45373,-17.60229 71.18151,-26.561 74.48586,-24.96643 157.79925,-44.68061 225.54733,-53.37054 14.86227,-1.90636 18.81257,-2.30239 36.34499,-3.64377 9.19912,-0.70381 17.92689,0.24572 17.37856,1.89068 -0.20679,0.62038 -6.86669,3.50001 -14.79977,6.39918 -36.11396,13.19796 -52.92378,25.65884 -52.92378,39.23164 0,3.18142 -0.37186,4.03949 -1.75,4.03821 -0.9625,-8.9e-4 -13.5612,-0.47888 -27.99711,-1.0622 -68.20189,-2.75585 -142.50711,4.92394 -209.75289,21.67895 -11.67287,2.90842 -35.44783,9.48731 -43.02714,11.90625 -1.80369,0.57565 -1.82099,0.53214 -0.2017,-0.5074 z"
       style="fill:#cd000b;fill-opacity:1"
       inkscape:connector-curvature="0" /></g></svg>
