<?xml version="1.0" encoding="utf-8"?>
<!-- Generator: Adobe Illustrator 19.2.1, SVG Export Plug-In . SVG Version: 6.00 Build 0)  -->
<svg version="1.1" xmlns="http://www.w3.org/2000/svg" xmlns:xlink="http://www.w3.org/1999/xlink" x="0px" y="0px"
	 viewBox="0 0 512 512" style="enable-background:new 0 0 512 512;" xml:space="preserve">
<style type="text/css">
	.st0{fill:#FFFFFF;}
</style>
<g id="Layer_2">
</g>
<g id="Layer_1">
	<g>
		<path class="st0" d="M256,208.3c-37.3,0-67.6,30.3-67.6,67.6c0,34.7,55.1,106.2,61.3,114.3c1.5,1.9,3.8,3.1,6.3,3.1
			s4.8-1.1,6.3-3.1c6.3-8,61.3-79.6,61.3-114.3C323.6,238.6,293.3,208.3,256,208.3z M256,311.7c-19.7,0-35.8-16.1-35.8-35.8
			c0-19.7,16.1-35.8,35.8-35.8c19.7,0,35.8,16.1,35.8,35.8C291.8,295.6,275.7,311.7,256,311.7z"/>
		<path class="st0" d="M256,0C114.6,0,0,114.6,0,256s114.6,256,256,256s256-114.6,256-256S397.4,0,256,0z M383.8,411.1
			c0,4.4-3.6,8-8,8H136.1c-4.4,0-8-3.6-8-8V261.6c0-2.3,1-4.5,2.8-6l119.9-103.4c3-2.6,7.4-2.6,10.4,0l119.9,103.4
			c1.7,1.5,2.8,3.7,2.8,6V411.1z M427.2,256c-3.1,3.7-7.6,5.5-12.1,5.5c-3.7,0-7.4-1.3-10.4-3.8L256,129.8L107.3,257.7
			c-6.7,5.7-16.7,5-22.4-1.7c-5.7-6.7-5-16.7,1.7-22.4L245.6,96.8c6-5.1,14.8-5.1,20.8,0l159.1,136.8
			C432.1,239.3,432.9,249.4,427.2,256z"/>
	</g>
</g>
</svg>
