<?xml version="1.0" encoding="utf-8"?>
<!-- Generator: Adobe Illustrator 19.2.1, SVG Export Plug-In . SVG Version: 6.00 Build 0)  -->
<svg version="1.1" xmlns="http://www.w3.org/2000/svg" xmlns:xlink="http://www.w3.org/1999/xlink" x="0px" y="0px"
	 viewBox="0 0 512 512" style="enable-background:new 0 0 512 512;" xml:space="preserve">
<style type="text/css">
	.st0{fill:#FFFFFF;}
</style>
<g id="Layer_1">
</g>
<g id="Layer_2">
	<g>
		<path class="st0" d="M256,0C114.6,0,0,114.6,0,256s114.6,256,256,256s256-114.6,256-256S397.4,0,256,0z M336.1,164.1h79.3
			c2.8,0,5.4,0.8,7.7,2.1l-48.5,30l-47.4-29.3C329.8,165.2,332.8,164.1,336.1,164.1z M415.4,238.4h-79.3c-3.1,0-5.9-0.9-8.3-2.5
			l46.8-29l47.9,29.7C420.4,237.7,418,238.4,415.4,238.4z M423.1,249.3l-48.5,30L327.3,250c2.5-1.7,5.6-2.8,8.9-2.8h79.3
			C418.2,247.2,420.8,248.1,423.1,249.3z M320.5,179.7c0-2,0.4-3.9,1.1-5.6l44.4,27.5L321.8,229c-0.8-1.9-1.3-4-1.3-6.2V179.7z
			 M320.5,262.8c0-2,0.4-3.9,1.1-5.6l44.4,27.5l-44.2,27.4c-0.8-1.9-1.3-4-1.3-6.2V262.8z M116,381.1c-17.9,0-32.5-14.5-32.5-32.5
			c0-17.9,14.5-32.5,32.5-32.5c17.9,0,32.5,14.5,32.5,32.5C148.5,366.6,134,381.1,116,381.1z M275.4,381.1
			c-17.9,0-32.5-14.5-32.5-32.5c0-17.9,14.5-32.5,32.5-32.5c17.9,0,32.5,14.5,32.5,32.5C307.9,366.6,293.3,381.1,275.4,381.1z
			 M395.3,345.9H316c-0.9-13.8-8.7-25.7-20-32.3v0c-6-3.6-13.1-5.6-20.6-5.6c-21.6,0-39.2,16.8-40.7,38h-78
			c-1.4-21.2-19.1-38-40.7-38c-14.9,0-27.9,8-35,19.9v-72.9c0-11.4,9.3-20.7,20.7-20.7h16.5v-86.8c0-9.1,7.4-16.5,16.5-16.5h53.6
			c9.3,0,17.9,5.3,22.1,13.6L296,313.2V147.4h16.5v182h82.7V345.9z M415.4,321.5h-79.3c-3.1,0-5.9-0.9-8.3-2.5l46.8-29l47.9,29.7
			C420.4,320.8,418,321.5,415.4,321.5z M431,305.9c0,2.6-0.7,5.1-1.9,7.2l-45.9-28.4l46.2-28.6c1,2,1.6,4.3,1.6,6.7V305.9z
			 M431,222.8c0,2.6-0.7,5.1-1.9,7.2l-45.9-28.4l46.2-28.6c1,2,1.6,4.3,1.6,6.7V222.8z"/>
		<circle class="st0" cx="116" cy="348.7" r="16.2"/>
		<path class="st0" d="M192.7,158.7c-0.7-1.4-2.1-2.2-3.7-2.2h-40.7c-2.3,0-4.1,1.9-4.1,4.1v102.8c0,2.3,1.8,4.1,4.1,4.1h93.5
			c3.1,0,5.1-3.3,3.7-6L192.7,158.7z"/>
		<circle class="st0" cx="275.4" cy="348.7" r="16.2"/>
		<path class="st0" d="M296,313.2v0.3c0.1,0,0.1,0.1,0.2,0.1L296,313.2z"/>
	</g>
</g>
</svg>
