<?xml version="1.0" encoding="UTF-8" standalone="no"?>
<!-- Generator: Adobe Illustrator 16.0.0, SVG Export Plug-In . SVG Version: 6.00 Build 0)  -->

<svg
   xmlns:dc="http://purl.org/dc/elements/1.1/"
   xmlns:cc="http://creativecommons.org/ns#"
   xmlns:rdf="http://www.w3.org/1999/02/22-rdf-syntax-ns#"
   xmlns:svg="http://www.w3.org/2000/svg"
   xmlns="http://www.w3.org/2000/svg"
   xmlns:sodipodi="http://sodipodi.sourceforge.net/DTD/sodipodi-0.dtd"
   xmlns:inkscape="http://www.inkscape.org/namespaces/inkscape"
   version="1.1"
   id="Layer_1"
   x="0px"
   y="0px"
   width="841.89px"
   height="595.276px"
   viewBox="0 0 841.89 595.276"
   enable-background="new 0 0 841.89 595.276"
   xml:space="preserve"
   inkscape:version="0.91 r13725"
   sodipodi:docname="opony.svg"><metadata
     id="metadata4223"><rdf:RDF><cc:Work
         rdf:about=""><dc:format>image/svg+xml</dc:format><dc:type
           rdf:resource="http://purl.org/dc/dcmitype/StillImage" /></cc:Work></rdf:RDF></metadata><defs
     id="defs4221" /><sodipodi:namedview
     pagecolor="#ffffff"
     bordercolor="#666666"
     borderopacity="1"
     objecttolerance="10"
     gridtolerance="10"
     guidetolerance="10"
     inkscape:pageopacity="0"
     inkscape:pageshadow="2"
     inkscape:window-width="1600"
     inkscape:window-height="848"
     id="namedview4219"
     showgrid="false"
     inkscape:zoom="0.54817137"
     inkscape:cx="505.5151"
     inkscape:cy="382.36604"
     inkscape:window-x="-8"
     inkscape:window-y="-8"
     inkscape:window-maximized="1"
     inkscape:current-layer="Layer_1" /><g
     id="g4137"
     transform="matrix(1.7582938,0,0,1.8578894,-292.82997,-255.34056)"
     inkscape:export-xdpi="90"
     inkscape:export-ydpi="90"><g
       id="g4139"><g
         id="g4141"><path
           d="m 415.704,320.614 c -3.692,3.967 -7.802,7.674 -12.399,11.026 0,0 -56.5,25.146 -90,25.553 0,0 5,20.375 42.501,38.852 0,0 51.999,25.981 98.999,-23.519 0,0 25.567,-25.377 37.667,-48.333 0.634,-1.201 1.231,-2.392 1.821,-3.579 l -78.589,0 z"
           id="path4143"
           inkscape:connector-curvature="0"
           style="fill:#ffffff" /><path
           d="m 439.139,278.422 67.25,0 c 0.116,-4.41 -0.252,-8.505 -1.104,-12.23 0,0 -1.437,-8.592 -3.48,-14.666 -6,-17.833 -30.063,-39.146 -30.063,-39.146 0,0 -12.313,-12.375 -24.271,-13.021 l -1.424,2.084 c -0.485,1.144 4.691,39.474 -6.908,76.979 z"
           id="path4145"
           inkscape:connector-curvature="0"
           style="fill:#ffffff" /></g><g
         id="g4147"><path
           d="m 456.885,320.614 -0.01,0.516 -0.053,1.334 -0.084,1.362 -0.115,1.392 -0.146,1.42 -0.176,1.448 -0.207,1.479 -0.237,1.507 -0.268,1.536 -0.099,0.518 c 1.284,-1.618 2.53,-3.249 3.744,-4.887 l 0.163,-2.046 0.043,-0.543 0.043,-0.543 0.044,-0.544 0.042,-0.543 0.043,-0.543 0.043,-0.543 0.042,-0.541 0.042,-0.543 0.042,-0.541 0.042,-0.541 0.012,-0.153 -2.95,0 z"
           id="path4149"
           inkscape:connector-curvature="0"
           style="clip-rule:evenodd;fill-rule:evenodd" /><path
           d="m 464.535,278.422 -0.233,-0.313 -0.525,-0.635 -0.548,-0.594 -0.57,-0.556 -0.594,-0.515 -0.619,-0.479 -0.643,-0.438 -0.668,-0.401 -0.691,-0.362 -0.719,-0.326 -0.743,-0.288 -0.771,-0.25 -0.796,-0.213 -0.824,-0.175 -0.851,-0.137 -0.211,-0.024 c 1.285,-3.146 2.432,-6.271 3.431,-9.362 l 1.156,0.245 1.166,0.322 1.127,0.391 1.089,0.457 1.051,0.526 1.01,0.592 0.969,0.661 0.929,0.727 0.888,0.792 0.844,0.857 0.802,0.924 0.761,0.987 0.719,1.05 0.677,1.113 0.634,1.179 0.596,1.238 0.551,1.302 0.514,1.364 0.111,0.339 5.057,0 -0.026,-0.224 -0.106,-0.83 -0.115,-0.828 -0.125,-0.825 -0.134,-0.822 -0.146,-0.818 -0.158,-0.815 -0.172,-0.813 -0.187,-0.808 -0.2,-0.806 -0.218,-0.8 -0.233,-0.8 -0.251,-0.795 -0.271,-0.792 -0.29,-0.789 -0.311,-0.785 -0.332,-0.782 -0.354,-0.779 -0.378,-0.776 -0.338,-0.649 -0.342,-0.629 -0.352,-0.607 -0.359,-0.587 -0.365,-0.564 -0.373,-0.544 -0.381,-0.524 -0.387,-0.502 -0.395,-0.482 -0.402,-0.46 -0.408,-0.441 -0.416,-0.419 -0.424,-0.398 -0.43,-0.379 -0.438,-0.357 -0.443,-0.339 -0.452,-0.318 -0.458,-0.298 -0.466,-0.278 -0.473,-0.258 -0.481,-0.24 -0.487,-0.218 -0.495,-0.2 -0.504,-0.181 -0.512,-0.161 -0.52,-0.142 -0.527,-0.123 -0.537,-0.103 -0.545,-0.084 -0.553,-0.064 -0.563,-0.043 -0.031,-0.001 c 0.824,-3.689 1.426,-7.303 1.791,-10.816 l 0.811,0.058 1.074,0.152 1.053,0.229 1.031,0.305 1.01,0.379 0.986,0.454 0.961,0.528 0.938,0.601 0.912,0.675 0.889,0.745 0.863,0.817 0.838,0.889 0.813,0.959 0.791,1.028 0.766,1.099 0.742,1.168 0.72,1.236 0.696,1.308 0.674,1.378 0.65,1.446 0.631,1.516 0.607,1.586 0.586,1.655 0.564,1.726 0.542,1.795 0.521,1.865 0.5,1.935 0.479,2.006 0.457,2.076 0.437,2.146 0.081,0.426 c 0.27,-1.009 0.523,-2.015 0.761,-3.015 l -0.642,-2.586 -0.186,-0.762 -0.182,-0.759 -0.179,-0.756 -0.177,-0.754 -0.175,-0.751 -0.174,-0.747 -0.175,-0.744 -0.174,-0.742 -0.176,-0.738 -0.178,-0.735 -0.18,-0.732 -0.184,-0.73 -0.188,-0.727 -0.194,-0.723 -0.198,-0.72 -0.204,-0.717 -0.211,-0.714 -0.22,-0.711 -0.226,-0.707 -0.237,-0.703 -0.245,-0.701 -0.256,-0.697 -0.269,-0.694 -0.277,-0.691 -0.291,-0.687 -0.305,-0.686 -0.318,-0.681 -0.333,-0.68 -0.348,-0.675 -0.364,-0.672 -0.381,-0.669 -0.516,-0.868 -0.517,-0.836 -0.517,-0.799 -0.518,-0.764 -0.518,-0.729 -0.518,-0.692 -0.518,-0.659 -0.518,-0.624 -0.516,-0.591 -0.518,-0.555 -0.516,-0.52 -0.515,-0.484 -0.515,-0.45 -0.512,-0.416 -0.512,-0.382 -0.51,-0.348 -0.508,-0.314 -0.508,-0.279 -0.505,-0.246 -0.504,-0.214 -0.502,-0.182 -0.501,-0.149 -0.498,-0.118 -0.5,-0.086 -0.499,-0.057 -0.499,-0.023 -0.501,0.007 -0.503,0.038 -0.506,0.068 -0.404,0.08 c 0.145,-3.307 0.077,-6.511 -0.226,-9.583 l 0.32,0.006 0.513,0.025 0.514,0.041 0.511,0.056 0.507,0.07 0.506,0.085 0.5,0.098 0.498,0.112 0.492,0.124 0.486,0.138 0.482,0.148 0.477,0.161 0.469,0.173 0.461,0.184 0.454,0.193 0.445,0.205 0.438,0.214 0.428,0.224 0.419,0.233 0.407,0.242 0.396,0.25 0.386,0.259 0.375,0.267 0.361,0.273 0.35,0.281 0.334,0.289 0.322,0.295 0.309,0.302 0.291,0.309 0.24,0.274 0.518,0.491 0.541,0.557 0.528,0.583 0.515,0.61 0.502,0.635 0.488,0.66 0.477,0.687 0.467,0.71 0.455,0.733 0.445,0.759 0.436,0.782 0.427,0.805 0.417,0.829 0.41,0.852 0.403,0.873 0.396,0.896 0.389,0.918 0.383,0.939 0.378,0.961 0.373,0.981 0.368,1.004 0.363,1.024 0.361,1.043 0.357,1.064 0.357,1.083 0.352,1.104 0.353,1.123 0.351,1.142 0.35,1.16 0.35,1.179 0.274,0.935 c 0.238,-2.342 0.382,-4.643 0.419,-6.894 l -1.473,-3.177 -0.413,-0.9 -0.407,-0.9 -0.404,-0.896 -0.785,-1.752 -0.415,-0.923 -0.401,-0.883 -0.401,-0.88 -0.405,-0.874 -0.409,-0.869 -0.415,-0.861 -0.422,-0.855 -0.428,-0.85 -0.439,-0.839 -0.447,-0.833 -0.459,-0.825 -0.472,-0.815 -0.485,-0.805 -0.498,-0.796 -0.515,-0.785 -0.532,-0.774 -0.547,-0.764 -0.568,-0.751 -0.589,-0.739 -0.61,-0.727 -0.631,-0.715 -0.655,-0.701 -0.681,-0.687 -0.707,-0.674 -0.732,-0.658 -0.765,-0.646 -0.37,-0.299 -0.37,-0.284 -0.368,-0.271 -0.367,-0.257 -0.363,-0.244 -0.361,-0.229 -0.359,-0.217 -0.357,-0.202 -0.355,-0.188 -0.354,-0.175 -0.35,-0.162 -0.348,-0.148 -0.347,-0.134 -0.343,-0.122 -0.34,-0.108 -0.34,-0.096 -0.338,-0.082 -0.333,-0.07 -0.333,-0.056 -0.33,-0.044 -0.328,-0.032 -0.326,-0.018 -0.324,-0.007 -0.324,0.007 -0.322,0.019 -0.32,0.03 -0.32,0.045 -0.318,0.057 -0.015,0.003 c -0.577,-2.828 -1.386,-5.508 -2.405,-8.041 l 0.461,-0.062 0.969,-0.047 0.984,0.032 0.998,0.108 1.01,0.183 1.018,0.259 1.024,0.331 1.03,0.4 1.033,0.473 1.037,0.539 1.036,0.608 1.035,0.675 1.034,0.741 1.027,0.806 1.023,0.869 1.016,0.933 1.005,0.996 0.996,1.057 0.981,1.119 0.968,1.179 0.952,1.237 0.934,1.297 0.914,1.355 0.893,1.411 0.867,1.469 0.845,1.523 0.815,1.581 0.787,1.633 0.757,1.687 0.454,1.094 c -1.645,-7.921 -4.001,-10.904 -9.164,-16.838 l -1.438,-1.389 -0.885,-0.961 -0.875,-0.922 -0.863,-0.881 -0.854,-0.841 -0.842,-0.8 -0.83,-0.761 -0.819,-0.72 -0.808,-0.68 -0.797,-0.641 -0.785,-0.598 -0.773,-0.56 -0.762,-0.519 -0.749,-0.479 -0.737,-0.438 -0.726,-0.399 -0.712,-0.358 -0.699,-0.319 -0.688,-0.28 -0.674,-0.241 -0.662,-0.201 -0.647,-0.164 -0.635,-0.125 -0.622,-0.088 -0.609,-0.051 -0.598,-0.015 -0.585,0.023 -0.317,0.033 c -1.393,-2.46 -3.046,-4.722 -4.957,-6.769 l 0.156,-0.027 0.782,-0.081 0.792,-0.028 0.803,0.024 0.812,0.078 0.819,0.132 0.827,0.184 0.836,0.234 0.845,0.286 0.852,0.337 0.86,0.388 0.868,0.438 0.877,0.488 0.886,0.538 0.896,0.587 0.904,0.637 0.914,0.687 0.924,0.736 0.935,0.785 0.944,0.836 0.954,0.885 0.966,0.935 0.975,0.984 0.986,1.034 0.998,1.083 1.01,1.134 6.81,6.313 0.141,0.135 0.014,-1.397 c -2.559,-2.524 -5.3,-5.05 -8.173,-7.624 -15.514,-14.032 -29.885,-21.284 -43.116,-21.754 -1.208,-0.143 -2.445,-0.226 -3.695,-0.281 -25.216,-1.582 -58.847,15.165 -86.836,45.865 -11.924,13.079 -21.432,27.18 -28.27,41.138 l 153.035,0 z"
           id="path4151"
           inkscape:connector-curvature="0"
           style="clip-rule:evenodd;fill-rule:evenodd" /><path
           d="m 437.052,334.797 -0.122,-1.145 -0.182,-1.123 -0.244,-1.103 -0.309,-1.081 -0.378,-1.062 -0.45,-1.042 -0.527,-1.024 -0.607,-1.005 -0.691,-0.987 -0.781,-0.971 -0.873,-0.955 -0.971,-0.939 -1.072,-0.921 -1.078,-0.826 -129.6,0 c -0.841,11.917 1.08,22.563 6.048,30.883 1.361,2.4 2.958,4.622 4.811,6.63 6.349,8.473 13.268,15.789 20.755,21.956 l 0.063,-0.069 -0.193,-0.165 -0.252,-0.22 -0.251,-0.223 -0.247,-0.225 -0.243,-0.227 -0.243,-0.229 -0.238,-0.232 -0.236,-0.233 -0.234,-0.234 -0.23,-0.238 -0.229,-0.24 -0.226,-0.242 -0.221,-0.246 -0.222,-0.246 -0.217,-0.25 -0.215,-0.251 -0.211,-0.255 -0.209,-0.257 -0.207,-0.259 -0.204,-0.263 -0.202,-0.263 -0.137,-0.184 -0.236,-0.2 -0.312,-0.278 -0.301,-0.287 -0.291,-0.296 -0.281,-0.304 -0.27,-0.313 -0.26,-0.32 -0.25,-0.328 -0.239,-0.338 -0.229,-0.346 -0.217,-0.355 -0.209,-0.36 -0.197,-0.371 -0.187,-0.377 -0.178,-0.386 -0.166,-0.395 -0.154,-0.402 -0.147,-0.409 -0.136,-0.417 -0.126,-0.425 -0.116,-0.434 -0.106,-0.439 -0.096,-0.449 -0.086,-0.456 -0.078,-0.465 -0.022,-0.158 c 2.426,1.056 5,1.859 7.701,2.419 l 0.016,0.087 0.073,0.374 0.078,0.365 0.08,0.358 0.083,0.349 0.086,0.343 0.091,0.334 0.092,0.327 0.097,0.317 0.1,0.31 0.103,0.302 0.105,0.296 0.109,0.286 0.113,0.277 0.114,0.271 0.118,0.263 0.121,0.255 0.124,0.246 0.127,0.237 0.129,0.231 0.132,0.223 0.135,0.215 0.138,0.208 0.09,0.128 0.199,0.178 0.269,0.243 0.256,0.242 0.247,0.241 0.237,0.237 0.226,0.237 0.216,0.235 0.207,0.231 0.196,0.232 0.186,0.229 0.177,0.228 0.165,0.229 0.156,0.225 0.147,0.225 0.136,0.225 0.126,0.223 0.115,0.223 0.106,0.223 0.095,0.223 0.085,0.221 0.074,0.22 0.063,0.224 0.052,0.22 0.041,0.221 0.027,0.221 0.017,0.221 0.005,0.218 -0.009,0.218 -0.022,0.216 -0.033,0.212 -0.046,0.211 -0.378,1.335 c 0,0 -0.062,0.015 0.431,0.366 l 0.008,-0.009 c 0.02,0.021 0.042,0.039 0.063,0.058 1.277,0.904 2.611,1.722 3.998,2.453 l 0.726,-0.657 0.163,-0.161 0.151,-0.164 0.138,-0.166 0.126,-0.169 0.117,-0.174 0.105,-0.176 0.095,-0.179 0.084,-0.184 0.075,-0.188 0.065,-0.193 0.054,-0.198 0.046,-0.205 0.036,-0.21 0.025,-0.215 0.015,-0.223 0.004,-0.229 -0.006,-0.235 -0.017,-0.243 -0.027,-0.25 -0.039,-0.257 -0.051,-0.265 -0.062,-0.271 -0.072,-0.279 -0.086,-0.285 -0.097,-0.292 -0.11,-0.299 -0.121,-0.306 -0.133,-0.313 -0.146,-0.32 -0.159,-0.324 -0.119,-0.234 -0.159,-0.168 -0.241,-0.269 -0.234,-0.278 -0.23,-0.282 -0.224,-0.29 -0.218,-0.296 -0.213,-0.302 -0.207,-0.31 -0.201,-0.316 -0.196,-0.324 -0.19,-0.328 -0.185,-0.334 -0.179,-0.343 -0.172,-0.349 -0.168,-0.354 -0.162,-0.361 -0.156,-0.368 -0.151,-0.372 -0.146,-0.381 -0.139,-0.387 -0.135,-0.393 -0.128,-0.398 -0.124,-0.405 -0.118,-0.411 -0.112,-0.418 -0.106,-0.424 -0.036,-0.15 c 1.976,0.123 4.006,0.127 6.078,0.027 l 0.042,0.152 0.097,0.329 0.102,0.326 0.111,0.323 0.116,0.322 0.121,0.322 0.127,0.32 0.135,0.318 0.139,0.318 0.146,0.314 0.153,0.313 0.158,0.313 0.165,0.311 0.17,0.311 0.178,0.308 0.183,0.308 0.189,0.305 0.196,0.305 0.201,0.303 0.208,0.302 0.215,0.301 0.22,0.298 0.228,0.297 0.233,0.296 0.239,0.295 0.316,0.377 0.219,0.442 0.166,0.361 0.152,0.359 0.139,0.36 0.126,0.358 0.115,0.357 0.101,0.357 0.088,0.356 0.075,0.354 0.06,0.355 0.049,0.353 0.035,0.353 0.02,0.352 0.007,0.35 -0.006,0.347 -0.021,0.347 c -0.07,0.7 -0.204,1.354 -0.416,2.025 l -0.119,0.328 -0.131,0.325 -0.146,0.321 -0.16,0.318 -0.172,0.313 -0.185,0.31 -0.199,0.307 -0.212,0.302 -0.226,0.299 -0.507,0.629 -0.068,-0.006 c 4.852,1.667 10.181,2.481 15.862,2.466 l 1.741,-1.894 0.437,-0.494 0.414,-0.492 0.392,-0.486 0.369,-0.484 0.349,-0.481 0.324,-0.476 0.304,-0.473 0.282,-0.469 0.261,-0.466 0.238,-0.461 0.217,-0.457 0.196,-0.455 0.178,-0.45 0.154,-0.446 0.135,-0.442 0.113,-0.439 0.095,-0.438 0.074,-0.433 0.055,-0.43 0.034,-0.428 0.016,-0.426 -0.002,-0.423 -0.023,-0.421 -0.042,-0.42 -0.062,-0.418 -0.08,-0.417 -0.099,-0.417 -0.119,-0.416 -0.138,-0.415 -0.158,-0.415 -0.135,-0.315 -0.171,-0.202 -0.253,-0.309 -0.252,-0.313 -0.251,-0.318 -0.25,-0.323 -0.246,-0.329 -0.245,-0.333 -0.244,-0.338 -0.242,-0.344 -0.24,-0.348 -0.239,-0.354 -0.237,-0.358 -0.235,-0.363 -0.233,-0.369 -0.232,-0.373 -0.23,-0.379 -0.229,-0.384 -0.228,-0.388 -0.226,-0.394 -0.224,-0.397 -0.223,-0.404 -0.222,-0.407 -0.217,-0.414 -0.219,-0.417 -0.216,-0.425 -0.214,-0.428 -0.059,-0.12 c 2.117,-0.658 4.254,-1.407 6.41,-2.244 l 0.034,0.099 0.112,0.309 0.12,0.311 0.133,0.314 0.14,0.316 0.151,0.32 0.16,0.322 0.168,0.326 0.18,0.329 0.19,0.331 0.198,0.334 0.209,0.337 0.219,0.341 0.229,0.342 0.238,0.346 0.248,0.348 0.258,0.351 0.268,0.354 0.277,0.356 0.287,0.358 0.297,0.361 0.308,0.364 0.317,0.365 0.326,0.37 0.338,0.371 0.441,0.478 0.198,0.433 0.136,0.322 0.13,0.322 0.12,0.325 0.112,0.327 0.103,0.329 0.096,0.331 0.086,0.333 0.078,0.334 0.069,0.336 0.06,0.339 0.053,0.339 0.043,0.342 0.033,0.343 0.025,0.344 0.018,0.345 0.006,0.348 -0.001,0.348 -0.011,0.349 -0.019,0.351 -0.028,0.351 -0.038,0.353 -0.046,0.353 -0.055,0.354 -0.064,0.354 -0.074,0.355 -0.08,0.355 -0.094,0.357 -0.1,0.355 -0.109,0.358 -0.119,0.358 -0.122,0.346 -0.082,0.239 -0.088,0.247 -0.091,0.244 -0.092,0.24 -0.094,0.238 -0.098,0.235 -0.1,0.233 -0.104,0.231 -0.105,0.229 -0.107,0.226 -0.111,0.224 -0.113,0.221 -0.117,0.217 -0.12,0.216 -0.122,0.213 -0.125,0.211 -0.131,0.209 -0.133,0.205 -0.135,0.201 -0.141,0.203 -0.143,0.196 -0.145,0.194 -0.15,0.193 -0.154,0.191 -0.157,0.188 -0.161,0.185 -0.164,0.183 -0.168,0.182 -0.172,0.177 -0.176,0.175 -0.18,0.172 -0.376,0.347 c 0,0 1.884,-0.011 5.319,-0.686 l 1.825,-2.297 0.46,-0.604 0.439,-0.603 0.418,-0.599 0.395,-0.597 0.373,-0.594 0.353,-0.592 0.333,-0.59 0.309,-0.587 0.288,-0.584 0.267,-0.582 0.247,-0.578 0.224,-0.576 0.203,-0.574 0.183,-0.57 0.161,-0.566 0.141,-0.565 0.119,-0.563 0.099,-0.56 0.076,-0.556 0.058,-0.556 0.035,-0.552 0.016,-0.55 -0.006,-0.547 -0.026,-0.546 -0.046,-0.544 -0.069,-0.541 -0.087,-0.539 -0.109,-0.539 -0.132,-0.534 -0.151,-0.535 -0.164,-0.509 -0.085,-0.193 -0.106,-0.229 -0.117,-0.237 -0.125,-0.244 -0.137,-0.252 -0.145,-0.258 -0.154,-0.265 -0.164,-0.271 -0.174,-0.279 -0.184,-0.284 -0.193,-0.292 -0.203,-0.298 -0.212,-0.305 -0.222,-0.312 -0.23,-0.317 -0.241,-0.324 -0.25,-0.33 -0.261,-0.337 -0.27,-0.342 -0.279,-0.35 -0.287,-0.355 -0.299,-0.361 -0.308,-0.367 -0.316,-0.374 -0.327,-0.381 -0.336,-0.386 -0.345,-0.393 -0.354,-0.397 -0.331,-0.367 c 3.225,-1.507 6.473,-3.202 9.729,-5.083 l 0.137,0.195 0.265,0.375 0.26,0.37 0.255,0.366 0.249,0.361 0.245,0.355 0.24,0.351 0.234,0.346 0.23,0.34 0.227,0.335 0.221,0.329 0.217,0.324 0.211,0.318 0.207,0.313 0.202,0.308 0.197,0.301 0.192,0.297 0.188,0.29 0.185,0.284 0.179,0.278 0.175,0.271 0.169,0.266 0.166,0.261 0.159,0.254 0.155,0.248 0.152,0.24 0.146,0.235 0.143,0.228 0.152,0.246 0.291,0.549 0.26,0.55 0.236,0.56 0.211,0.569 0.185,0.579 0.159,0.588 0.134,0.598 0.108,0.606 0.082,0.615 0.059,0.622 0.031,0.633 0.007,0.639 -0.019,0.647 -0.043,0.655 -0.068,0.664 -0.094,0.671 -0.117,0.679 -0.143,0.687 -0.167,0.694 -0.19,0.701 -0.216,0.71 -0.239,0.719 -0.264,0.726 -0.289,0.734 -0.311,0.74 -0.336,0.75 -0.359,0.757 -0.383,0.766 -0.407,0.775 -0.431,0.781 -0.455,0.791 -0.644,1.074 c -0.071,0.626 8.454,-3.344 8.454,-3.344 l 1.625,-2.901 0.603,-1.117 0.567,-1.096 0.533,-1.074 0.498,-1.053 0.463,-1.031 0.428,-1.009 0.394,-0.986 0.358,-0.967 0.323,-0.942 0.29,-0.923 0.254,-0.897 0.221,-0.877 0.186,-0.854 0.152,-0.833 0.117,-0.808 0.084,-0.786 0.049,-0.763 0.018,-0.741 -0.016,-0.718 -0.049,-0.696 -0.082,-0.673 -0.113,-0.649 -0.146,-0.629 -0.178,-0.607 -0.209,-0.586 -0.24,-0.565 -0.272,-0.546 -0.305,-0.526 -0.336,-0.507 -0.368,-0.49 -0.382,-0.446 -0.224,-0.202 -0.265,-0.24 -0.263,-0.241 -0.259,-0.242 -0.258,-0.244 -0.256,-0.244 -0.252,-0.244 -0.251,-0.245 -0.247,-0.247 -0.246,-0.247 -0.243,-0.248 -0.241,-0.249 -0.237,-0.249 -0.235,-0.249 -0.234,-0.251 -0.23,-0.253 -0.229,-0.252 -0.227,-0.253 -0.224,-0.254 -0.222,-0.255 -0.219,-0.256 -0.216,-0.257 -0.215,-0.257 -0.202,-0.246 c 3.081,-2.119 6.153,-4.39 9.201,-6.825 l 0.237,0.248 0.286,0.304 0.281,0.304 0.281,0.302 0.276,0.302 0.274,0.304 0.271,0.302 0.268,0.302 0.265,0.301 0.263,0.302 0.26,0.302 0.256,0.302 0.252,0.3 0.252,0.301 0.247,0.3 0.245,0.3 0.241,0.3 0.239,0.301 0.234,0.3 0.233,0.3 0.229,0.299 0.227,0.299 0.225,0.299 0.221,0.298 0.218,0.299 0.216,0.299 0.211,0.299 0.228,0.323 0.337,0.573 0.304,0.578 0.274,0.596 0.248,0.611 0.221,0.626 0.192,0.642 0.165,0.657 0.139,0.671 0.111,0.687 0.084,0.7 0.059,0.715 0.031,0.73 0.005,0.742 -0.021,0.758 -0.049,0.772 -0.072,0.786 -0.099,0.8 -0.124,0.813 -0.149,0.828 -0.175,0.844 -0.199,0.855 -0.225,0.872 -0.25,0.884 -0.274,0.9 -0.3,0.914 -0.323,0.929 -0.349,0.942 -0.374,0.957 -0.397,0.973 -0.423,0.986 -0.446,1.001 -0.568,1.224 c 0,0 4.592,-2.296 8.617,-4.973 l 2.101,-3.865 0.63,-1.26 0.574,-1.262 0.521,-1.261 0.465,-1.259 0.408,-1.255 0.354,-1.251 0.297,-1.246 0.241,-1.24 0.183,-1.231 0.127,-1.224 0.068,-1.214 0.01,-1.202 -0.047,-1.191 -0.106,-1.179 -0.165,-1.165 -0.224,-1.15 -0.283,-1.135 -0.343,-1.118 -0.404,-1.103 -0.465,-1.083 -0.525,-1.065 -0.588,-1.045 -0.651,-1.024 -0.714,-1.004 -0.778,-0.98 -0.843,-0.957 -0.908,-0.933 -0.975,-0.907 -1.041,-0.879 -0.455,-0.35 c 2.975,-2.747 5.91,-5.649 8.791,-8.693 l 0.083,0.052 0.279,0.177 0.275,0.181 0.272,0.182 0.271,0.185 0.267,0.188 0.265,0.191 0.262,0.192 0.258,0.197 0.255,0.197 0.253,0.203 0.251,0.204 0.247,0.207 0.244,0.21 0.244,0.214 0.24,0.216 0.236,0.22 0.236,0.222 0.232,0.225 0.23,0.229 0.229,0.23 0.227,0.234 0.223,0.236 0.221,0.24 0.254,0.281 0.539,0.778 0.486,0.766 0.452,0.784 0.421,0.802 0.387,0.819 0.354,0.836 0.321,0.854 0.288,0.871 0.256,0.888 0.221,0.905 0.188,0.921 0.156,0.938 0.122,0.954 0.09,0.971 0.059,0.985 0.023,1.004 -0.007,1.019 -0.041,1.035 -0.072,1.051 -0.104,1.067 -0.137,1.082 -0.171,1.101 -0.2,1.114 -0.234,1.132 -0.266,1.147 -0.297,1.163 -0.329,1.18 -0.36,1.196 -0.393,1.212 -0.425,1.229 -0.456,1.245 -0.34,0.881 c 2.395,-1.926 4.773,-3.945 7.131,-6.055 l 0.906,-3.544 0.36,-1.424 0.348,-1.406 0.333,-1.388 0.314,-1.37 0.291,-1.351 0.266,-1.332 0.235,-1.313 0.202,-1.292 0.166,-1.272 0.126,-1.252 0.083,-1.23 0.036,-1.209 -0.014,-1.188 -0.067,-1.171 z m -80.531,55.023 c -2.007,0.14 -4.36,-0.398 -5.934,-0.594 1.412,-1.467 3.587,-8.19 2.004,-12.066 -2.366,-2.84 -4.051,-5.81 -5.08,-8.904 1.762,-0.254 3.547,-0.57 5.357,-0.969 1.123,3.224 2.855,6.139 5.221,8.736 2.765,6.716 -0.335,10.875 -1.568,13.797 z"
           id="path4153"
           inkscape:connector-curvature="0"
           style="clip-rule:evenodd;fill-rule:evenodd" /><path
           d="m 443.155,320.614 0.393,0.975 0.397,1.193 0.338,1.24 0.275,1.292 0.215,1.338 0.154,1.388 0.096,1.436 0.035,1.484 -0.025,1.533 -0.084,1.581 -0.142,1.629 -0.2,1.678 -0.262,1.729 -0.316,1.775 -0.377,1.826 -0.435,1.874 -0.493,1.925 -0.443,1.586 c 1.414,-1.443 2.816,-2.918 4.205,-4.43 l 0.02,-0.021 0.54,-3.206 0.083,-0.489 0.083,-0.49 0.083,-0.489 0.082,-0.489 0.082,-0.489 0.083,-0.489 0.081,-0.488 0.082,-0.489 0.082,-0.488 0.082,-0.489 0.08,-0.486 0.082,-0.489 0.08,-0.487 0.081,-0.486 0.08,-0.486 0.079,-0.487 0.08,-0.486 0.079,-0.485 0.079,-0.484 0.077,-0.485 0.079,-0.485 0.076,-0.483 0.078,-0.483 0.076,-0.483 0.076,-0.482 0.074,-0.481 0.074,-0.481 0.074,-0.481 0.074,-0.479 0.073,-0.479 0.07,-0.468 0.135,-1.088 0.099,-1.06 0.063,-1.035 0.025,-1.008 -0.006,-0.589 -6.651,0 z"
           id="path4155"
           inkscape:connector-curvature="0"
           style="clip-rule:evenodd;fill-rule:evenodd" /></g><g
         id="g4157"><path
           d="m 426.9,278.422 c 4.092,-7.679 7.168,-15.466 9.041,-23.066 4.028,-16.343 2.033,-29.724 -5.617,-37.68 -4.778,-4.969 -11.386,-7.488 -19.639,-7.488 -18.755,0 -42.316,13.064 -61.49,34.094 -9.688,10.626 -17.469,22.361 -22.744,34.14 l 100.449,0 z"
           id="path4159"
           inkscape:connector-curvature="0"
           style="clip-rule:evenodd;fill:#dae1e3;fill-rule:evenodd" /><path
           d="m 320.146,320.614 c 1.245,4.572 3.35,8.48 6.316,11.565 4.779,4.969 11.387,7.487 19.641,7.487 13.746,0 30.073,-7.024 45.363,-19.053 l -71.32,0 z"
           id="path4161"
           inkscape:connector-curvature="0"
           style="clip-rule:evenodd;fill:#dae1e3;fill-rule:evenodd" /></g><g
         id="g4163"><path
           d="m 410.689,213.188 c 7.403,0 13.282,2.21 17.473,6.568 10.94,11.376 8.229,35.052 -4.744,58.667 l 6.857,0 c 12.945,-25.083 14.642,-49.9 2.211,-62.826 -5.483,-5.702 -13.056,-8.409 -21.798,-8.409 l 0.001,6 0,0 z"
           id="path4165"
           inkscape:connector-curvature="0"
           style="fill:#ffffff" /><polygon
           points="410.688,207.188 410.688,207.188 410.688,207.188 "
           id="polygon4167"
           style="fill:#ffffff" /><path
           d="m 329.82,278.422 c 5.043,-10.865 12.347,-21.978 21.592,-32.119 18.622,-20.424 41.334,-33.114 59.274,-33.116 l 0.003,-6 c -0.001,0 -0.002,0 -0.004,0 -18.912,0.002 -43.281,12.669 -63.707,35.073 -10.459,11.472 -18.491,23.977 -23.782,36.161 l 6.624,0 z"
           id="path4169"
           inkscape:connector-curvature="0"
           style="fill:#ffffff" /><path
           d="m 386.536,320.614 c -13.828,10.18 -28.234,16.053 -40.433,16.053 -7.406,0 -13.287,-2.21 -17.478,-6.567 -2.477,-2.576 -4.24,-5.793 -5.358,-9.485 l -6.189,0 c 1.317,5.326 3.69,9.972 7.223,13.645 5.485,5.703 13.059,8.408 21.803,8.408 14.863,0 33.095,-7.828 50.136,-22.053 l -9.704,0 z"
           id="path4171"
           inkscape:connector-curvature="0"
           style="fill:#ffffff" /></g></g><g
       id="g4173"><path
         d="m 492.678,235.967 c 0.135,0.211 0.271,0.425 0.406,0.64 -0.618,0.851 -1.219,1.98 -1.465,2.458 0.646,2.125 1.16,4.283 1.541,6.463 0.813,-1.061 2.139,-2.456 3.088,-3.419 0.265,0.507 0.526,1.021 0.785,1.544 -1.287,0.67 -2.896,1.731 -3.8,2.344 0.259,1.559 0.452,3.127 0.589,4.702 0.891,-0.701 3.277,-2.513 4.982,-3.181 0.439,1.033 0.864,2.092 1.27,3.182 -2.202,0.7 -5.467,3.465 -6.027,3.948 0.074,2.685 -0.006,5.377 -0.217,8.057 l 0.513,-0.611 0.397,-0.459 0.395,-0.438 0.389,-0.417 0.384,-0.396 0.381,-0.376 0.375,-0.354 0.372,-0.335 0.365,-0.313 0.361,-0.294 0.355,-0.271 0.351,-0.253 0.346,-0.231 0.339,-0.212 0.334,-0.191 0.328,-0.172 0.322,-0.152 0.314,-0.132 0.31,-0.113 0.303,-0.095 0.296,-0.076 0.289,-0.058 0.285,-0.041 0.084,-0.007 c 0.604,2.187 1.131,4.51 1.555,6.967 l -0.004,-0.001 -0.428,-0.055 -0.436,-0.021 -0.443,0.015 -0.45,0.05 -0.456,0.082 -0.463,0.115 -0.471,0.146 -0.475,0.177 -0.482,0.205 -0.492,0.237 -0.498,0.266 -0.508,0.295 -0.516,0.324 -0.525,0.354 -0.535,0.383 -0.545,0.412 -0.554,0.44 -0.564,0.47 -0.575,0.498 -0.584,0.528 -0.469,0.438 c -0.481,3.185 -1.125,6.323 -1.876,9.39 l 1.256,0 0.477,-0.471 0.638,-0.605 0.627,-0.569 0.614,-0.533 0.601,-0.497 0.591,-0.462 0.576,-0.427 0.563,-0.392 0.55,-0.356 0.536,-0.323 0.521,-0.289 0.507,-0.255 0.491,-0.222 0.476,-0.189 0.461,-0.157 0.443,-0.126 0.428,-0.097 0.41,-0.066 0.393,-0.036 0.377,-0.011 0.359,0.019 0.343,0.042 0.33,0.069 0.315,0.093 c 0,0 0.686,0.214 1.425,0.503 0.101,1.733 0.136,3.523 0.115,5.358 l 1.702,0 c 0.229,-36.937 -25.759,-57.344 -25.759,-57.344 -0.006,0.584 -0.014,1.397 -0.014,1.397 6.251,6.666 8.22,10.661 9.995,16.436 0.187,-0.8 0.695,-2.024 1.107,-2.946 z"
         id="path4175"
         inkscape:connector-curvature="0"
         style="fill:#fb0026" /><path
         d="m 476.239,320.614 -0.96,0.514 -1.208,0.673 -1.239,0.713 -1.271,0.754 -0.446,0.272 c -2.892,4.054 -5.771,7.874 -8.632,11.489 l 3.147,-1.894 1.299,-0.762 1.27,-0.724 1.24,-0.685 1.211,-0.648 1.181,-0.609 1.151,-0.569 1.121,-0.533 1.091,-0.496 1.062,-0.456 1.033,-0.419 1.001,-0.381 0.972,-0.343 0.941,-0.305 0.912,-0.268 0.88,-0.229 0.851,-0.192 0.818,-0.154 0.788,-0.117 0.759,-0.082 0.725,-0.044 0.694,-0.009 0.663,0.027 0.631,0.063 0.602,0.096 0.57,0.131 0.54,0.162 0.511,0.196 0.288,0.136 c -1.302,2.333 -2.709,4.701 -4.229,7.107 l -0.028,-0.02 -0.539,-0.299 -0.578,-0.25 -0.615,-0.205 -0.648,-0.157 -0.682,-0.116 -0.717,-0.072 -0.75,-0.03 -0.785,0.01 -0.818,0.05 -0.854,0.091 -0.891,0.128 -0.924,0.168 -0.963,0.206 -0.998,0.245 -1.035,0.282 -1.072,0.321 -1.109,0.358 -1.146,0.397 -1.186,0.436 -1.223,0.474 -1.26,0.511 -1.299,0.55 -1.337,0.587 -1.376,0.627 -1.414,0.664 -1.451,0.701 -1.49,0.739 -0.145,0.073 c -3.016,3.644 -6.01,7.05 -8.975,10.24 l 3.742,-1.771 1.524,-0.702 1.487,-0.667 1.449,-0.63 1.414,-0.596 1.377,-0.56 1.338,-0.522 1.304,-0.489 1.266,-0.452 1.229,-0.418 1.189,-0.381 1.154,-0.346 1.117,-0.312 1.078,-0.274 1.041,-0.24 1.004,-0.203 0.964,-0.17 0.927,-0.134 0.889,-0.101 0.848,-0.063 0.811,-0.032 0.771,0.005 0.731,0.037 0.691,0.07 0.651,0.103 0.61,0.136 0.258,0.074 c -1.463,2.047 -2.994,4.115 -4.623,6.211 l -0.487,-0.236 -0.601,-0.223 -0.643,-0.18 -0.687,-0.138 -0.729,-0.099 -0.773,-0.061 -0.817,-0.021 -0.863,0.013 -0.908,0.051 -0.956,0.086 -1.002,0.122 -1.049,0.156 -1.096,0.192 -1.145,0.227 -1.193,0.262 -1.24,0.298 -1.29,0.332 -1.337,0.366 -1.388,0.403 -1.436,0.436 -1.485,0.472 -1.533,0.506 -1.582,0.542 -1.633,0.576 -1.682,0.611 -1.284,0.479 c -3.798,3.945 -7.547,7.53 -11.234,10.793 l 2.717,-0.97 1.628,-0.565 1.59,-0.536 1.547,-0.508 1.509,-0.478 1.468,-0.448 1.427,-0.419 1.387,-0.39 1.347,-0.361 1.305,-0.329 1.264,-0.303 1.224,-0.271 1.183,-0.243 1.141,-0.214 1.101,-0.184 1.06,-0.155 1.017,-0.125 0.976,-0.097 0.934,-0.067 0.891,-0.04 0.85,-0.01 0.806,0.019 0.764,0.046 0.72,0.074 0.678,0.101 0.633,0.127 0.588,0.154 0.25,0.081 c -2.32,2.683 -4.621,5.217 -6.902,7.61 l -0.336,-0.154 -0.594,-0.226 -0.629,-0.196 -0.67,-0.167 -0.705,-0.139 -0.743,-0.113 -0.781,-0.086 -0.82,-0.058 -0.859,-0.033 -0.896,-0.008 -0.937,0.019 -0.977,0.043 -1.017,0.068 -1.056,0.094 -1.097,0.118 -1.136,0.145 -1.177,0.168 -1.217,0.193 -1.258,0.219 -1.299,0.243 -1.337,0.267 -1.381,0.294 -1.42,0.317 -1.462,0.342 -1.503,0.367 -1.543,0.393 -1.584,0.416 -1.626,0.443 -0.45,0.126 c -4.601,3.743 -9.091,6.986 -13.449,9.791 l 2.287,-0.497 1.752,-0.369 1.707,-0.351 1.66,-0.327 1.617,-0.309 1.57,-0.288 1.525,-0.268 1.48,-0.246 1.434,-0.228 1.39,-0.206 1.343,-0.185 1.298,-0.166 1.251,-0.144 1.207,-0.125 1.16,-0.104 1.113,-0.084 1.068,-0.063 1.021,-0.042 0.976,-0.024 0.928,-0.002 0.882,0.018 0.834,0.037 0.788,0.056 0.739,0.077 0.691,0.095 0.642,0.113 0.593,0.132 0.545,0.149 0.492,0.164 c -2.894,2.598 -5.75,4.967 -8.568,7.138 l -0.216,-0.123 -0.496,-0.233 -0.54,-0.211 -0.583,-0.191 -0.628,-0.172 -0.672,-0.155 -0.72,-0.137 -0.766,-0.122 -0.813,-0.104 -0.861,-0.09 -0.908,-0.073 -0.955,-0.059 -1.006,-0.044 -1.054,-0.026 -1.102,-0.014 -1.151,0.003 -1.201,0.018 -1.249,0.032 -1.3,0.049 -1.348,0.063 -1.397,0.078 -1.447,0.093 -1.497,0.107 -1.546,0.124 -1.595,0.137 -1.646,0.153 -1.696,0.169 -1.744,0.182 -1.074,0.119 c -5.225,2.992 -10.225,5.357 -14.958,7.222 l 1.628,-0.166 1.134,-0.106 1.135,-0.098 1.138,-0.089 1.141,-0.081 1.143,-0.071 1.146,-0.063 1.148,-0.055 1.15,-0.047 1.152,-0.039 1.157,-0.029 1.16,-0.021 1.163,-0.014 1.166,-0.006 1.17,0.004 1.174,0.011 1.176,0.02 1.182,0.026 1.184,0.035 1.188,0.044 1.192,0.052 1.196,0.059 1.201,0.066 1.204,0.075 1.209,0.083 1.214,0.09 1.219,0.098 1.223,0.105 1.229,0.112 1.231,0.122 0.447,0.047 c -2.698,1.686 -5.352,3.182 -7.963,4.516 l -0.562,-0.177 -0.48,-0.134 -0.523,-0.13 -0.569,-0.128 -0.614,-0.124 -0.658,-0.123 -0.705,-0.12 -0.754,-0.117 -0.799,-0.117 -0.844,-0.114 -0.894,-0.112 -0.939,-0.111 -0.987,-0.108 -1.034,-0.106 -1.081,-0.105 -1.129,-0.104 -1.176,-0.102 -1.225,-0.1 -1.271,-0.099 -1.319,-0.097 -1.366,-0.095 -1.414,-0.094 -1.462,-0.092 -1.51,-0.09 -1.558,-0.088 -1.604,-0.087 -1.652,-0.085 -1.7,-0.082 -1.748,-0.082 -0.764,-0.034 c -4.267,1.472 -8.283,2.529 -12.019,3.278 l 1.739,0.164 1.454,0.142 1.436,0.141 1.416,0.142 1.398,0.143 1.379,0.144 1.359,0.143 1.34,0.145 1.322,0.144 1.303,0.146 1.283,0.146 1.266,0.146 1.246,0.147 1.227,0.147 1.209,0.148 1.189,0.149 1.171,0.149 1.153,0.15 1.134,0.15 1.115,0.151 1.097,0.152 1.078,0.153 1.059,0.154 1.041,0.154 1.021,0.155 1.004,0.155 0.986,0.156 0.968,0.157 0.175,0.029 c -1.523,0.567 -3.028,1.08 -4.514,1.54 l -0.037,-0.012 -0.478,-0.139 c -0.78,-0.213 -1.565,-0.405 -2.353,-0.589 l -0.702,-0.156 -0.746,-0.161 -0.792,-0.164 -0.838,-0.169 -0.884,-0.173 -0.931,-0.176 -0.974,-0.182 -1.021,-0.185 -1.068,-0.188 -1.112,-0.192 -1.16,-0.197 -1.207,-0.201 -1.251,-0.206 -1.298,-0.21 -1.344,-0.213 -1.391,-0.219 -1.442,-0.217 -1.483,-0.226 -1.528,-0.23 -1.575,-0.234 -1.621,-0.239 -1.668,-0.242 -1.713,-0.247 -0.799,-0.113 c -14.939,2.745 -25.069,0.487 -27.78,-0.257 l 0.455,0.135 c 0.604,0.371 1.238,0.754 1.921,1.152 -1.044,-0.486 -2.082,-0.983 -3.108,-1.504 11.389,7.298 65.395,36.018 128.197,-44.448 7.663,-9.818 13.488,-19.134 17.83,-27.932 l -20.257,0 z m -123.157,73.153 2.309,0.684 1.045,0.309 1.045,0.31 1.045,0.31 1.045,0.309 1.045,0.31 1.045,0.31 1.046,0.309 1.044,0.31 1.045,0.311 1.046,0.309 1.044,0.31 1.047,0.309 3.133,0.929 1.046,0.309 1.045,0.31 1.046,0.309 1.045,0.31 1.044,0.31 3.136,0.929 1.044,0.31 0.529,0.156 c -11.967,-1.209 -21.502,-5.172 -27.919,-8.272 z m 41.931,8.295 -1.427,-0.381 -1.024,-0.272 -1.024,-0.273 -1.023,-0.272 -1.025,-0.273 -1.023,-0.271 -1.023,-0.273 -1.024,-0.272 -1.024,-0.272 -1.023,-0.273 -1.023,-0.273 -1.024,-0.272 -1.024,-0.273 -1.023,-0.272 -1.024,-0.272 -1.024,-0.272 -1.023,-0.273 -1.023,-0.272 -1.024,-0.272 -1.024,-0.273 -1.024,-0.272 -1.023,-0.272 -1.024,-0.273 -0.47,-0.124 2.901,0.595 2.291,0.471 1.145,0.235 1.145,0.234 1.145,0.235 1.145,0.235 2.289,0.472 2.289,0.472 1.143,0.235 1.145,0.236 1.143,0.236 1.144,0.237 2.286,0.473 1.144,0.237 1.142,0.238 2.285,0.475 1.141,0.238 1.143,0.238 0.763,0.16 c -1.504,0.225 -2.97,0.408 -4.412,0.545 z"
         id="path4177"
         inkscape:connector-curvature="0"
         style="fill:#fb0026" /></g><g
       id="g4179"><path
         d="m 188.941,294.89 2.122,-6.016 c 0.736,-2.088 2.729,-3.562 4.857,-3.562 l 15.549,0 -1.241,3.52 -2.691,3.685 -8.797,0 -0.462,1.309 5.941,5.199 c 1.502,1.31 1.505,2.577 0.697,4.869 l -2.295,6.507 c -0.736,2.088 -2.729,3.562 -4.816,3.562 l -15.59,0 2.526,-7.163 10.189,0 0.663,-1.882 -5.955,-5.157 c -1.488,-1.351 -1.504,-2.579 -0.697,-4.871 z"
         id="path4181"
         inkscape:connector-curvature="0" /><path
         d="m 216.956,305.041 -3.146,8.922 -8.961,0 10.103,-28.649 17.881,0 c 2.128,0 3.082,1.474 2.346,3.562 l -4.431,12.564 c -0.736,2.086 -2.744,3.602 -4.872,3.602 l -8.92,0 z m 2.525,-7.163 3.56,0 1.891,-5.361 -3.56,0 -1.891,5.361 z"
         id="path4183"
         inkscape:connector-curvature="0" /><path
         d="m 258.246,285.313 c 2.087,0 3.042,1.474 2.305,3.562 l -3.969,11.255 c -0.476,1.351 -2.034,2.865 -3.513,3.232 l 0.341,7.039 -1.256,3.562 -8.756,0 0.732,-8.922 -1.801,0 -3.146,8.922 -8.961,0 10.103,-28.649 17.921,0 z m -11.501,7.204 -1.891,5.361 3.56,0 1.891,-5.361 -3.56,0 z"
         id="path4185"
         inkscape:connector-curvature="0" /><path
         d="m 257.401,306.635 14.29,-13.137 0.346,-0.981 -8.265,0 -0.107,-3.643 1.255,-3.562 19.887,0 -2.598,7.367 -14.331,13.138 -0.346,0.981 10.066,0 -2.526,7.163 -20.255,0 2.584,-7.326 z"
         id="path4187"
         inkscape:connector-curvature="0" /><path
         d="m 278.554,313.962 10.103,-28.649 19.15,0 -1.255,3.562 -2.717,3.643 -8.797,0 -1.126,3.191 8.797,0 -2.526,7.162 -8.797,0 -1.386,3.928 10.229,0 -2.526,7.163 -19.149,0 z"
         id="path4189"
         inkscape:connector-curvature="0" /><path
         d="m 301.187,313.962 10.103,-28.649 17.88,0 c 2.088,0 3.041,1.474 2.305,3.562 l -7.591,21.526 c -0.736,2.088 -2.729,3.562 -4.817,3.562 l -17.88,0 z m 11.445,-7.163 3.601,0 5.037,-14.282 -3.601,0 -5.037,14.282 z"
         id="path4191"
         inkscape:connector-curvature="0" /><path
         d="m 355.117,285.313 -4.838,25.088 -1.256,3.562 -8.961,0 1.502,-5.771 -3.928,0 -2.607,5.771 -8.921,0 1.256,-3.562 12.858,-25.088 14.895,0 z m -11.68,15.716 2.184,-8.512 -0.981,0 -3.82,8.512 2.617,0 z"
         id="path4193"
         inkscape:connector-curvature="0" /><path
         d="m 351.277,313.962 2.527,-7.163 5.196,0 7.578,-21.486 8.92,0 -8.846,25.088 c -0.736,2.088 -2.73,3.562 -4.817,3.562 l -10.558,0 z"
         id="path4195"
         inkscape:connector-curvature="0" /><path
         d="m 369.694,313.962 10.103,-28.649 19.15,0 -1.256,3.562 -2.717,3.643 -8.797,0 -1.126,3.191 8.797,0 -2.525,7.162 -8.798,0 -1.385,3.929 10.229,0 -2.526,7.163 -19.149,0 z"
         id="path4197"
         inkscape:connector-curvature="0" /><path
         d="m 405.811,300.21 -0.695,0 -4.85,13.752 -8.758,0 1.256,-3.562 11.793,-25.088 9.984,0 -1.814,11.296 0.613,0 6.152,-11.296 10.025,0 -5.941,25.088 -1.256,3.562 -8.716,0 4.85,-13.752 -0.737,0 -7.059,13.752 -7.488,0 2.641,-13.752 z"
         id="path4199"
         inkscape:connector-curvature="0" /><path
         d="m 431.787,288.875 1.256,-3.562 8.961,0 -1.758,11.133 0.656,0 6.135,-11.133 8.92,0 -1.255,3.562 -13.088,17.271 -2.757,7.817 -8.92,0 2.757,-7.817 -0.907,-17.271 z"
         id="path4201"
         inkscape:connector-curvature="0" /><path
         d="m 452.527,313.962 c -2.127,0 -3.08,-1.474 -2.344,-3.562 l 7.592,-21.526 c 0.736,-2.088 2.728,-3.562 4.855,-3.562 l 14.28,0 c 2.128,0 3.082,1.474 2.346,3.562 l -7.591,21.526 c -0.736,2.088 -2.73,3.562 -4.857,3.562 l -14.281,0 z m 12.924,-21.445 -5.037,14.282 3.56,0 5.037,-14.282 -3.56,0 z"
         id="path4203"
         inkscape:connector-curvature="0"
         style="fill:#fb0026" /><path
         d="m 486.818,305.041 -3.147,8.922 -8.96,0 10.103,-28.649 17.881,0 c 2.128,0 3.081,1.474 2.345,3.562 l -4.43,12.564 c -0.736,2.086 -2.744,3.602 -4.871,3.602 l -8.921,0 z m 2.526,-7.163 3.56,0 1.891,-5.361 -3.56,0 -1.891,5.361 z"
         id="path4205"
         inkscape:connector-curvature="0"
         style="fill:#fb0026" /><path
         d="m 503.684,313.962 c -2.128,0 -3.08,-1.474 -2.344,-3.562 l 7.59,-21.526 c 0.736,-2.088 2.729,-3.562 4.857,-3.562 l 14.279,0 c 2.129,0 3.084,1.474 2.348,3.562 l -7.592,21.526 c -0.736,2.088 -2.73,3.562 -4.859,3.562 l -14.279,0 z m 12.923,-21.445 -5.037,14.282 3.56,0 5.036,-14.282 -3.559,0 z"
         id="path4207"
         inkscape:connector-curvature="0"
         style="fill:#fb0026" /><path
         d="m 545.697,298.574 2.232,-9.699 1.256,-3.562 8.266,0 -10.104,28.649 -9.492,0 0.447,-13.22 -0.695,0 -2.26,9.658 -1.256,3.562 -8.225,0 10.102,-28.649 9.494,0 -0.502,13.261 0.737,0 z"
         id="path4209"
         inkscape:connector-curvature="0"
         style="fill:#fb0026" /><path
         d="m 559.27,288.875 1.256,-3.562 8.961,0 -1.758,11.133 0.656,0 6.135,-11.133 8.92,0 -1.256,3.562 -13.088,17.271 -2.758,7.817 -8.92,0 2.758,-7.817 -0.906,-17.271 z"
         id="path4211"
         inkscape:connector-curvature="0"
         style="fill:#fb0026" /><path
         d="m 582.086,306.799 -2.527,7.163 -8.061,0 2.527,-7.163 8.061,0 z"
         id="path4213"
         inkscape:connector-curvature="0" /><path
         d="m 595.965,305.041 -3.146,8.922 -8.961,0 10.104,-28.649 17.881,0 c 2.127,0 3.082,1.474 2.346,3.562 l -4.432,12.564 c -0.736,2.086 -2.744,3.602 -4.871,3.602 l -8.921,0 z m 2.525,-7.163 3.561,0 1.891,-5.361 -3.561,0 -1.891,5.361 z"
         id="path4215"
         inkscape:connector-curvature="0" /><path
         d="m 619.334,285.313 8.92,0 -7.576,21.486 9.002,0 -2.527,7.163 -17.923,0 10.104,-28.649 z"
         id="path4217"
         inkscape:connector-curvature="0" /></g></g></svg>
